SplineFontDB: 3.2
FontName: ATM486-Regular
FullName: ATM486-Regular
FamilyName: ATM 486
Weight: Book
Copyright: AzhaguThamizh
Version: 1.001
ItalicAngle: -11
UnderlinePosition: -271
UnderlineWidth: 102
Ascent: 1600
Descent: 400
InvalidEm: 0
sfntRevision: 0x00010042
LayerCount: 2
Layer: 0 1 "Back" 1
Layer: 1 1 "Fore" 0
XUID: [1021 192 2086997156 29871]
StyleMap: 0x0040
FSType: 8
OS2Version: 3
OS2_WeightWidthSlopeOnly: 0
OS2_UseTypoMetrics: 0
CreationTime: 1537354305
ModificationTime: 1545685019
PfmFamily: 17
TTFWeight: 400
TTFWidth: 5
LineGap: 0
VLineGap: 0
Panose: 2 11 6 4 2 2 2 2 2 4
OS2TypoAscent: 2000
OS2TypoAOffset: 0
OS2TypoDescent: -1320
OS2TypoDOffset: 0
OS2TypoLinegap: 0
OS2WinAscent: 2000
OS2WinAOffset: 0
OS2WinDescent: 744
OS2WinDOffset: 0
HheadAscent: 2000
HheadAOffset: 0
HheadDescent: -1320
HheadDOffset: 0
OS2SubXSize: 1400
OS2SubYSize: 1300
OS2SubXOff: 0
OS2SubYOff: 0
OS2SupXSize: 1400
OS2SupYSize: 1300
OS2SupXOff: 0
OS2SupYOff: 0
OS2StrikeYSize: 100
OS2StrikeYPos: 518
OS2CapHeight: 1586
OS2XHeight: -200
OS2Vendor: '    '
OS2CodePages: 00000001.00000000
OS2UnicodeRanges: 00100003.00000000.00000000.00000000
Lookup: 4 0 0 "'akhn' Akhand in Tamil2 lookup 0" { "'akhn' Akhand in Tamil2 lookup 0 subtable"  } ['akhn' ('tml2' <'dflt' > ) ]
Lookup: 4 0 0 "'akhn' Akhand in Tamil lookup 1" { "'akhn' Akhand in Tamil lookup 1 subtable"  } ['akhn' ('taml' <'dflt' > ) ]
Lookup: 4 0 0 "'half' Half Forms in Tamil lookup 2" { "'half' Half Forms in Tamil lookup 2 subtable"  } ['half' ('taml' <'dflt' > ) ]
Lookup: 4 0 0 "'haln' Halant Forms in Tamil2 lookup 3" { "'haln' Halant Forms in Tamil2 lookup 3 subtable"  } ['haln' ('tml2' <'dflt' > ) ]
Lookup: 4 0 0 "'haln' Halant Forms in Tamil lookup 4" { "'haln' Halant Forms in Tamil lookup 4 subtable"  } ['haln' ('taml' <'dflt' > ) ]
Lookup: 4 0 0 "'abvs' Above Base Substitutions lookup 5" { "'abvs' Above Base Substitutions lookup 5 subtable"  } ['abvs' ('taml' <'dflt' > 'tml2' <'dflt' > ) ]

StartChar: .notdef
Encoding: 65536 -1 0
Width: 1600
Flags: W
LayerCount: 2
Fore
SplineSet
100 0 m 1,0,-1
 100 1600 l 1,1,-1
 1500 1600 l 1,2,-1
 1500 0 l 1,3,-1
 100 0 l 1,0,-1
1400 100 m 1,4,-1
 1400 1500 l 1,5,-1
 200 1500 l 1,6,-1
 200 100 l 1,7,-1
 1400 100 l 1,4,-1
EndSplineSet
EndChar

StartChar: exclam
Encoding: 33 33 4
Width: 687
GlyphClass: 2
Flags: W
LayerCount: 2
Fore
SplineSet
453 389 m 1,0,-1
 355 389 l 1,1,2
 344 480 344 480 290 651 c 128,-1,3
 236 822 236 822 234 908 c 0,4,5
 234 990 234 990 285 1038 c 128,-1,6
 336 1086 336 1086 404 1086 c 0,7,8
 471 1086 471 1086 521.5 1038 c 128,-1,9
 572 990 572 990 570 908 c 0,10,11
 568 820 568 820 516.5 650 c 128,-1,12
 465 480 465 480 453 389 c 1,0,-1
404 318 m 0,13,14
 469 318 469 318 515.5 271.5 c 128,-1,15
 562 225 562 225 562 158 c 0,16,17
 562 92 562 92 515.5 46 c 128,-1,18
 469 0 469 0 404 0 c 0,19,20
 336 0 336 0 289 46 c 128,-1,21
 242 92 242 92 242 158 c 0,22,23
 242 225 242 225 290 271.5 c 128,-1,24
 338 318 338 318 404 318 c 0,13,14
EndSplineSet
EndChar

StartChar: quotedbl
Encoding: 34 34 5
Width: 840
GlyphClass: 2
Flags: W
LayerCount: 2
Fore
SplineSet
646 784 m 1,0,-1
 674 1070 l 1,1,-1
 690 1200 l 2,2,3
 698 1264 698 1264 735 1309 c 128,-1,4
 772 1354 772 1354 832 1354 c 0,5,6
 896 1354 896 1354 904 1288 c 0,7,8
 904 1262 904 1262 890 1222 c 0,9,10
 858 1126 858 1126 830 1070 c 2,11,-1
 692 784 l 1,12,-1
 646 784 l 1,0,-1
288 784 m 1,13,-1
 318 1074 l 2,14,15
 330 1192 330 1192 334 1210 c 0,16,17
 350 1292 350 1292 396 1328 c 1,18,19
 438 1354 438 1354 472 1354 c 0,20,21
 546 1354 546 1354 546 1286 c 0,22,23
 546 1248 546 1248 464 1072 c 2,24,-1
 330 784 l 1,25,-1
 288 784 l 1,13,-1
EndSplineSet
EndChar

StartChar: numbersign
Encoding: 35 35 6
Width: 1068
GlyphClass: 2
Flags: W
LayerCount: 2
Fore
SplineSet
998 278 m 1,0,-1
 746 278 l 1,1,-1
 680 -36 l 1,2,-1
 584 -36 l 1,3,-1
 650 278 l 1,4,-1
 320 278 l 1,5,-1
 254 -36 l 1,6,-1
 158 -36 l 1,7,-1
 224 278 l 1,8,-1
 68 278 l 1,9,-1
 68 374 l 1,10,-1
 244 374 l 1,11,-1
 304 664 l 1,12,-1
 68 664 l 1,13,-1
 68 760 l 1,14,-1
 324 760 l 1,15,-1
 392 1076 l 1,16,-1
 488 1076 l 1,17,-1
 420 760 l 1,18,-1
 748 760 l 1,19,-1
 814 1076 l 1,20,-1
 910 1076 l 1,21,-1
 844 760 l 1,22,-1
 998 760 l 1,23,-1
 998 664 l 1,24,-1
 826 664 l 1,25,-1
 764 374 l 1,26,-1
 998 374 l 1,27,-1
 998 278 l 1,0,-1
730 664 m 1,28,-1
 400 664 l 1,29,-1
 340 374 l 1,30,-1
 668 374 l 1,31,-1
 730 664 l 1,28,-1
EndSplineSet
EndChar

StartChar: dollar
Encoding: 36 36 7
Width: 932
GlyphClass: 2
Flags: W
LayerCount: 2
Fore
SplineSet
774 296 m 2,0,1
 760 170 760 170 636 82 c 0,2,3
 534 12 534 12 392 -16 c 1,4,-1
 376 -90 l 1,5,-1
 314 -90 l 1,6,-1
 328 -20 l 1,7,-1
 302 -20 l 1,8,-1
 242 -18 l 1,9,-1
 210 -18 l 1,10,11
 194 -12 194 -12 188 -10 c 0,12,13
 112 6 112 6 30 46 c 1,14,-1
 46 88 l 1,15,-1
 66 160 l 1,16,-1
 86 242 l 1,17,-1
 130 242 l 1,18,-1
 124 188 l 1,19,20
 124 104 124 104 190 60 c 0,21,22
 248 20 248 20 336 20 c 1,23,-1
 432 464 l 1,24,25
 172 562 172 562 172 724 c 0,26,27
 172 760 172 760 176 776 c 0,28,29
 206 900 206 900 322 982 c 0,30,31
 424 1054 424 1054 562 1074 c 1,32,-1
 574 1134 l 1,33,-1
 636 1134 l 1,34,-1
 624 1074 l 1,35,36
 774 1074 774 1074 882 1008 c 1,37,-1
 830 830 l 1,38,-1
 786 830 l 1,39,-1
 788 868 l 2,40,41
 796 1030 796 1030 614 1030 c 1,42,-1
 524 602 l 1,43,44
 652 546 652 546 696 512 c 0,45,46
 780 448 780 448 780 350 c 1,47,-1
 774 296 l 2,0,1
468 630 m 1,48,-1
 552 1028 l 1,49,50
 362 996 362 996 314 824 c 1,51,-1
 310 792 l 1,52,53
 310 736 310 736 360 690 c 0,54,55
 388 664 388 664 468 630 c 1,48,-1
638 238 m 1,56,-1
 642 278 l 1,57,58
 642 364 642 364 488 438 c 1,59,-1
 398 20 l 1,60,61
 484 34 484 34 550 94 c 128,-1,62
 616 154 616 154 638 238 c 1,56,-1
EndSplineSet
EndChar

StartChar: percent
Encoding: 37 37 8
Width: 1568
GlyphClass: 2
Flags: W
LayerCount: 2
Fore
SplineSet
416 580 m 0,0,1
 459 580 459 580 481.5 623 c 128,-1,2
 504 666 504 666 504 756 c 256,3,4
 504 846 504 846 481.5 888 c 128,-1,5
 459 930 459 930 416 930 c 0,6,7
 371 930 371 930 348.5 888 c 128,-1,8
 326 846 326 846 326 756 c 256,9,10
 326 666 326 666 348.5 623 c 128,-1,11
 371 580 371 580 416 580 c 0,0,1
416 482 m 0,12,13
 266 482 266 482 191.5 555.5 c 128,-1,14
 117 629 117 629 117 756 c 0,15,16
 117 881 117 881 191.5 954 c 128,-1,17
 266 1027 266 1027 416 1027 c 0,18,19
 562 1027 562 1027 637.5 954 c 128,-1,20
 713 881 713 881 713 756 c 0,21,22
 713 629 713 629 638.5 555.5 c 128,-1,23
 564 482 564 482 416 482 c 0,12,13
1096 1039 m 1,24,-1
 576 -92 l 1,25,-1
 455 -35 l 1,26,-1
 975 1094 l 1,27,-1
 1096 1039 l 1,24,-1
1156 96 m 256,28,29
 1199 96 1199 96 1220.5 139 c 128,-1,30
 1242 182 1242 182 1242 273 c 0,31,32
 1242 361 1242 361 1220.5 404 c 128,-1,33
 1199 447 1199 447 1156 447 c 256,34,35
 1113 447 1113 447 1089.5 404 c 128,-1,36
 1066 361 1066 361 1066 273 c 0,37,38
 1066 182 1066 182 1089.5 139 c 128,-1,39
 1113 96 1113 96 1156 96 c 256,28,29
1156 0 m 0,40,41
 1006 0 1006 0 931.5 73 c 128,-1,42
 857 146 857 146 857 273 c 0,43,44
 857 398 857 398 931.5 471.5 c 128,-1,45
 1006 545 1006 545 1156 545 c 0,46,47
 1303 545 1303 545 1377 471.5 c 128,-1,48
 1451 398 1451 398 1451 273 c 0,49,50
 1451 146 1451 146 1377 73 c 128,-1,51
 1303 0 1303 0 1156 0 c 0,40,41
EndSplineSet
EndChar

StartChar: ampersand
Encoding: 38 38 9
Width: 1034
GlyphClass: 2
Flags: W
LayerCount: 2
Fore
SplineSet
1006 -4 m 1,0,-1
 928 0 l 1,1,-1
 850 0 l 1,2,-1
 754 -4 l 1,3,-1
 676 98 l 1,4,5
 598 32 598 32 524 2 c 1,6,-1
 462 -14 l 2,7,8
 424 -24 424 -24 370 -24 c 0,9,10
 228 -24 228 -24 132 60 c 128,-1,11
 36 144 36 144 36 284 c 0,12,13
 36 470 36 470 260 586 c 2,14,-1
 310 612 l 1,15,-1
 248 730 l 1,16,-1
 232 778 l 1,17,-1
 226 828 l 1,18,19
 226 938 226 938 324 1010 c 0,20,21
 414 1076 414 1076 528 1076 c 0,22,23
 604 1076 604 1076 664 1029 c 128,-1,24
 724 982 724 982 724 908 c 0,25,26
 724 806 724 806 626 746 c 2,27,-1
 552 700 l 1,28,-1
 452 644 l 1,29,-1
 568 472 l 1,30,-1
 748 228 l 1,31,32
 812 312 812 312 812 416 c 256,33,34
 812 520 812 520 716 516 c 2,35,-1
 676 514 l 1,36,-1
 688 552 l 1,37,-1
 1006 552 l 1,38,-1
 1006 514 l 1,39,-1
 968 514 l 2,40,41
 916 514 916 514 892 486 c 0,42,43
 878 470 878 470 862 408 c 2,44,-1
 848 352 l 2,45,46
 840 322 840 322 828 300 c 0,47,48
 814 262 814 262 772 200 c 1,49,-1
 862 98 l 1,50,-1
 888 72 l 1,51,-1
 934 44 l 2,52,53
 950 32 950 32 980 32 c 2,54,-1
 1006 32 l 1,55,-1
 1006 -4 l 1,0,-1
590 890 m 0,56,57
 590 950 590 950 558 992 c 128,-1,58
 526 1034 526 1034 468 1034 c 0,59,60
 414 1034 414 1034 376 996 c 128,-1,61
 338 958 338 958 338 904 c 0,62,63
 338 874 338 874 342 858 c 2,64,-1
 360 806 l 2,65,66
 378 756 378 756 434 672 c 1,67,68
 500 712 500 712 530 744 c 0,69,70
 590 808 590 808 590 890 c 0,56,57
652 124 m 1,71,-1
 484 348 l 1,72,-1
 422 440 l 1,73,-1
 330 582 l 1,74,75
 178 470 178 470 178 326 c 0,76,77
 178 210 178 210 264 132 c 128,-1,78
 350 54 350 54 468 54 c 0,79,80
 522 54 522 54 580 78 c 0,81,82
 604 88 604 88 610 94 c 2,83,-1
 652 124 l 1,71,-1
EndSplineSet
EndChar

StartChar: quotesingle
Encoding: 39 39 10
Width: 428
GlyphClass: 2
Flags: W
LayerCount: 2
Fore
SplineSet
262 784 m 1,0,-1
 292 1074 l 2,1,2
 300 1144 300 1144 324 1264 c 1,3,4
 342 1322 342 1322 408 1346 c 0,5,6
 430 1354 430 1354 446 1354 c 0,7,8
 514 1354 514 1354 522 1286 c 0,9,10
 522 1256 522 1256 512 1236 c 1,11,12
 504 1208 504 1208 440 1072 c 2,13,-1
 306 784 l 1,14,-1
 262 784 l 1,0,-1
EndSplineSet
EndChar

StartChar: parenleft
Encoding: 40 40 11
Width: 840
GlyphClass: 2
Flags: W
LayerCount: 2
Fore
SplineSet
418 381 m 256,0,1
 418 354 418 354 416 24.5 c 128,-1,2
 414 -305 414 -305 723 -443 c 1,3,-1
 689 -523 l 1,4,5
 395 -438 395 -438 256 -191.5 c 128,-1,6
 117 55 117 55 117 381 c 256,7,8
 117 707 117 707 256 954 c 128,-1,9
 395 1201 395 1201 689 1287 c 1,10,-1
 723 1205 l 1,11,12
 414 1068 414 1068 416 738 c 128,-1,13
 418 408 418 408 418 381 c 256,0,1
EndSplineSet
EndChar

StartChar: parenright
Encoding: 41 41 12
Width: 840
GlyphClass: 2
Flags: W
LayerCount: 2
Fore
SplineSet
424 381 m 256,0,1
 424 408 424 408 426 738 c 128,-1,2
 428 1068 428 1068 117 1205 c 1,3,-1
 150 1287 l 1,4,5
 445 1201 445 1201 584 954 c 128,-1,6
 723 707 723 707 723 381 c 256,7,8
 723 55 723 55 584 -191.5 c 128,-1,9
 445 -438 445 -438 150 -523 c 1,10,-1
 117 -443 l 1,11,12
 428 -305 428 -305 426 24.5 c 128,-1,13
 424 354 424 354 424 381 c 256,0,1
EndSplineSet
EndChar

StartChar: asterisk
Encoding: 42 42 13
Width: 812
GlyphClass: 2
Flags: W
LayerCount: 2
Fore
SplineSet
420 359 m 1,0,-1
 451 379 l 2,1,2
 477 393 477 393 488.5 407.5 c 128,-1,3
 500 422 500 422 486 445 c 1,4,5
 498 484 498 484 532 513.5 c 128,-1,6
 566 543 566 543 605 543 c 0,7,8
 645 543 645 543 671 515.5 c 128,-1,9
 697 488 697 488 695 451 c 0,10,11
 693 406 693 406 655 378 c 128,-1,12
 617 350 617 350 572 350 c 0,13,14
 561 350 561 350 553 351 c 128,-1,15
 545 352 545 352 537 354 c 1,16,17
 523 377 523 377 505.5 375 c 128,-1,18
 488 373 488 373 463 359 c 2,19,-1
 432 340 l 1,20,-1
 463 322 l 2,21,22
 488 307 488 307 505.5 305 c 128,-1,23
 523 303 523 303 537 324 c 1,24,25
 545 326 545 326 552 327 c 128,-1,26
 559 328 559 328 568 328 c 0,27,28
 617 328 617 328 656 299.5 c 128,-1,29
 695 271 695 271 695 225 c 1,30,31
 691 189 691 189 667 163 c 128,-1,32
 643 137 643 137 609 135 c 0,33,34
 566 135 566 135 531 164 c 128,-1,35
 496 193 496 193 486 232 c 1,36,37
 500 256 500 256 489.5 270.5 c 128,-1,38
 479 285 479 285 451 301 c 2,39,-1
 420 322 l 1,40,-1
 420 285 l 2,41,42
 420 252 420 252 427 236.5 c 128,-1,43
 434 221 434 221 459 221 c 1,44,45
 479 201 479 201 487.5 175.5 c 128,-1,46
 496 150 496 150 496 123 c 0,47,48
 496 82 496 82 471.5 52.5 c 128,-1,49
 447 23 447 23 404 23 c 256,50,51
 361 23 361 23 336.5 53.5 c 128,-1,52
 312 84 312 84 316 123 c 0,53,54
 316 150 316 150 326 175.5 c 128,-1,55
 336 201 336 201 354 221 c 1,56,57
 381 221 381 221 388 236.5 c 128,-1,58
 395 252 395 252 395 285 c 2,59,-1
 396 322 l 1,60,-1
 365 301 l 1,61,62
 338 289 338 289 327 274.5 c 128,-1,63
 316 260 316 260 328 236 c 1,64,65
 314 195 314 195 280 167 c 128,-1,66
 246 139 246 139 207 139 c 0,67,68
 172 141 172 141 146.5 167 c 128,-1,69
 121 193 121 193 117 230 c 1,70,71
 117 273 117 273 157 301.5 c 128,-1,72
 197 330 197 330 242 330 c 0,73,74
 252 330 252 330 260 330 c 128,-1,75
 268 330 268 330 275 328 c 1,76,77
 289 305 289 305 307.5 306 c 128,-1,78
 326 307 326 307 354 322 c 2,79,-1
 385 342 l 1,80,-1
 354 359 l 2,81,82
 352 361 352 361 323.5 374 c 128,-1,83
 295 387 295 387 275 355 c 0,84,85
 270 354 270 354 264 354 c 128,-1,86
 258 354 258 354 250 354 c 0,87,88
 203 354 203 354 162 382 c 128,-1,89
 121 410 121 410 121 457 c 0,90,91
 121 490 121 490 145.5 516.5 c 128,-1,92
 170 543 170 543 203 545 c 0,93,94
 246 547 246 547 281 518.5 c 128,-1,95
 316 490 316 490 330 447 c 1,96,97
 312 416 312 416 337.5 397.5 c 128,-1,98
 363 379 363 379 365 379 c 2,99,-1
 396 359 l 1,100,-1
 396 396 l 2,101,102
 396 426 396 426 388.5 442.5 c 128,-1,103
 381 459 381 459 355 459 c 1,104,105
 336 480 336 480 326 505.5 c 128,-1,106
 316 531 316 531 316 557 c 0,107,108
 316 600 316 600 340.5 629 c 128,-1,109
 365 658 365 658 408 658 c 256,110,111
 451 658 451 658 475.5 628 c 128,-1,112
 500 598 500 598 500 557 c 0,113,114
 500 531 500 531 489.5 505.5 c 128,-1,115
 479 480 479 480 459 459 c 1,116,117
 434 459 434 459 427 442.5 c 128,-1,118
 420 426 420 426 420 396 c 2,119,-1
 420 359 l 1,0,-1
EndSplineSet
EndChar

StartChar: plus
Encoding: 43 43 14
Width: 1113
GlyphClass: 2
Flags: W
LayerCount: 2
Fore
SplineSet
996 453 m 1,0,-1
 996 336 l 1,1,-1
 689 336 l 1,2,-1
 689 8 l 1,3,-1
 428 8 l 1,4,-1
 428 336 l 1,5,-1
 117 336 l 1,6,-1
 117 453 l 1,7,-1
 428 453 l 1,8,-1
 428 787 l 1,9,-1
 689 787 l 1,10,-1
 689 453 l 1,11,-1
 996 453 l 1,0,-1
EndSplineSet
EndChar

StartChar: comma
Encoding: 44 44 15
Width: 564
GlyphClass: 2
Flags: W
LayerCount: 2
Fore
SplineSet
275 -188 m 1,0,-1
 221 -127 l 1,1,2
 266 -98 266 -98 298 -63.5 c 128,-1,3
 330 -29 330 -29 342 14 c 1,4,5
 326 8 326 8 309.5 4 c 128,-1,6
 293 0 293 0 277 0 c 0,7,8
 211 0 211 0 164 47 c 128,-1,9
 117 94 117 94 117 160 c 0,10,11
 117 225 117 225 164 271.5 c 128,-1,12
 211 318 211 318 277 318 c 0,13,14
 363 318 363 318 405 259.5 c 128,-1,15
 447 201 447 201 447 115 c 0,16,17
 447 23 447 23 400.5 -57 c 128,-1,18
 354 -137 354 -137 275 -188 c 1,0,-1
EndSplineSet
EndChar

StartChar: hyphen
Encoding: 45 45 16
Width: 918
GlyphClass: 2
Flags: W
LayerCount: 2
Fore
SplineSet
801 453 m 1,0,-1
 801 336 l 1,1,-1
 117 336 l 1,2,-1
 117 453 l 1,3,-1
 801 453 l 1,0,-1
EndSplineSet
EndChar

StartChar: period
Encoding: 46 46 17
Width: 555
GlyphClass: 2
Flags: W
LayerCount: 2
Fore
SplineSet
279 318 m 0,0,1
 344 318 344 318 390.5 271.5 c 128,-1,2
 437 225 437 225 437 158 c 0,3,4
 437 92 437 92 390.5 46 c 128,-1,5
 344 0 344 0 279 0 c 0,6,7
 211 0 211 0 164 46 c 128,-1,8
 117 92 117 92 117 158 c 0,9,10
 117 225 117 225 165 271.5 c 128,-1,11
 213 318 213 318 279 318 c 0,0,1
EndSplineSet
EndChar

StartChar: slash
Encoding: 47 47 18
Width: 740
GlyphClass: 2
Flags: W
LayerCount: 2
Fore
SplineSet
623 1195 m 1,0,-1
 232 2 l 1,1,-1
 117 41 l 1,2,-1
 502 1223 l 1,3,-1
 623 1195 l 1,0,-1
EndSplineSet
EndChar

StartChar: zero
Encoding: 48 48 19
Width: 954
GlyphClass: 2
Flags: W
LayerCount: 2
Fore
SplineSet
478 0 m 0,0,1
 288 0 288 0 186.5 123.5 c 128,-1,2
 85 247 85 247 85 436 c 256,3,4
 85 625 85 625 186.5 747.5 c 128,-1,5
 288 870 288 870 478 870 c 0,6,7
 666 870 666 870 768 747.5 c 128,-1,8
 870 625 870 625 870 436 c 256,9,10
 870 247 870 247 768 123.5 c 128,-1,11
 666 0 666 0 478 0 c 0,0,1
478 70 m 0,12,13
 574 70 574 70 600 168.5 c 128,-1,14
 626 267 626 267 626 436 c 0,15,16
 626 603 626 603 600 701.5 c 128,-1,17
 574 800 574 800 478 800 c 0,18,19
 381 800 381 800 354.5 701.5 c 128,-1,20
 328 603 328 603 328 436 c 0,21,22
 328 267 328 267 354.5 168.5 c 128,-1,23
 381 70 381 70 478 70 c 0,12,13
EndSplineSet
EndChar

StartChar: one
Encoding: 49 49 20
Width: 954
GlyphClass: 2
Flags: W
LayerCount: 2
Fore
SplineSet
682 855 m 1,0,-1
 682 0 l 1,1,-1
 442 0 l 1,2,-1
 442 660 l 1,3,-1
 272 660 l 1,4,-1
 272 730 l 1,5,6
 383 729 383 729 454.5 764.5 c 128,-1,7
 526 800 526 800 566 855 c 1,8,-1
 682 855 l 1,0,-1
EndSplineSet
EndChar

StartChar: two
Encoding: 50 50 21
Width: 952
GlyphClass: 2
Flags: W
LayerCount: 2
Fore
SplineSet
785 199 m 0,0,1
 785 227 785 227 767 245.5 c 128,-1,2
 749 264 749 264 715 264 c 2,3,-1
 701 264 l 1,4,-1
 701 328 l 1,5,6
 767 330 767 330 812 293 c 128,-1,7
 857 256 857 256 859 194 c 0,8,9
 861 100 861 100 799.5 50 c 128,-1,10
 738 0 738 0 645 0 c 0,11,12
 574 -2 574 -2 447.5 42.5 c 128,-1,13
 321 87 321 87 254 89 c 0,14,15
 222 89 222 89 200.5 74 c 128,-1,16
 179 59 179 59 173 28 c 1,17,-1
 108 28 l 1,18,19
 102 56 102 56 98 82 c 128,-1,20
 94 108 94 108 94 130 c 0,21,22
 95 212 95 212 134 272.5 c 128,-1,23
 173 333 173 333 248 368 c 0,24,25
 286 384 286 384 438.5 428 c 128,-1,26
 591 472 591 472 587 651 c 0,27,28
 587 723 587 723 550 768 c 128,-1,29
 513 813 513 813 424 814 c 0,30,31
 332 816 332 816 268.5 772.5 c 128,-1,32
 205 729 205 729 205 645 c 0,33,34
 205 624 205 624 211 599 c 128,-1,35
 217 574 217 574 227 545 c 1,36,-1
 130 515 l 1,37,38
 119 541 119 541 113.5 570 c 128,-1,39
 108 599 108 599 108 625 c 0,40,41
 108 754 108 754 212 822.5 c 128,-1,42
 316 891 316 891 471 889 c 0,43,44
 614 889 614 889 720 828 c 128,-1,45
 826 767 826 767 826 629 c 0,46,47
 824 410 824 410 532 359.5 c 128,-1,48
 240 309 240 309 192 214 c 1,49,50
 220 237 220 237 253 247 c 128,-1,51
 286 257 286 257 324 257 c 0,52,53
 412 256 412 256 526.5 199.5 c 128,-1,54
 641 143 641 143 705 143 c 0,55,56
 736 143 736 143 759.5 157 c 128,-1,57
 783 171 783 171 785 199 c 0,0,1
EndSplineSet
EndChar

StartChar: three
Encoding: 51 51 22
Width: 954
GlyphClass: 2
Flags: W
LayerCount: 2
Fore
SplineSet
386 493 m 1,0,-1
 457 493 l 2,1,2
 532 493 532 493 560.5 535.5 c 128,-1,3
 589 578 589 578 586 656 c 0,4,5
 586 731 586 731 547.5 766.5 c 128,-1,6
 509 802 509 802 424 802 c 0,7,8
 350 805 350 805 288.5 773 c 128,-1,9
 227 741 227 741 225 672 c 0,10,11
 222 640 222 640 237 609 c 128,-1,12
 252 578 252 578 275 562 c 1,13,-1
 236 519 l 1,14,15
 183 540 183 540 154 581 c 128,-1,16
 125 622 125 622 127 675 c 0,17,18
 128 794 128 794 230.5 835 c 128,-1,19
 333 876 333 876 471 876 c 0,20,21
 624 875 624 875 725.5 831.5 c 128,-1,22
 827 788 827 788 824 658 c 0,23,24
 822 589 822 589 788 544 c 128,-1,25
 754 499 754 499 692 479 c 1,26,27
 776 464 776 464 823 415.5 c 128,-1,28
 870 367 870 367 868 277 c 0,29,30
 865 119 865 119 740.5 60.5 c 128,-1,31
 616 2 616 2 441 0 c 0,32,33
 274 0 274 0 179.5 60.5 c 128,-1,34
 85 121 85 121 85 277 c 1,35,-1
 236 277 l 1,36,37
 238 153 238 153 281 111.5 c 128,-1,38
 324 70 324 70 444 70 c 0,39,40
 540 70 540 70 584.5 119.5 c 128,-1,41
 629 169 629 169 629 264 c 0,42,43
 627 367 627 367 599 396.5 c 128,-1,44
 571 426 571 426 452 426 c 2,45,-1
 386 426 l 1,46,-1
 386 493 l 1,0,-1
EndSplineSet
EndChar

StartChar: four
Encoding: 52 52 23
Width: 954
GlyphClass: 2
Flags: W
LayerCount: 2
Fore
SplineSet
769 855 m 1,0,-1
 769 268 l 1,1,-1
 884 268 l 1,2,-1
 884 143 l 1,3,-1
 769 143 l 1,4,-1
 769 0 l 1,5,-1
 531 0 l 1,6,-1
 531 143 l 1,7,-1
 70 143 l 1,8,-1
 70 283 l 1,9,-1
 557 855 l 1,10,-1
 769 855 l 1,0,-1
169 268 m 1,11,-1
 528 268 l 1,12,-1
 528 715 l 1,13,-1
 169 293 l 1,14,-1
 169 268 l 1,11,-1
EndSplineSet
EndChar

StartChar: five
Encoding: 53 53 24
Width: 954
GlyphClass: 2
Flags: W
LayerCount: 2
Fore
SplineSet
809 749 m 1,0,-1
 265 749 l 1,1,-1
 242 578 l 1,2,3
 291 609 291 609 355.5 625 c 128,-1,4
 420 641 420 641 488 642 c 0,5,6
 645 645 645 645 758 565 c 128,-1,7
 871 485 871 485 871 333 c 0,8,9
 871 171 871 171 745 85.5 c 128,-1,10
 619 0 619 0 450 0 c 0,11,12
 316 2 316 2 215.5 65 c 128,-1,13
 115 128 115 128 83 257 c 1,14,-1
 171 289 l 1,15,16
 197 189 197 189 266.5 134.5 c 128,-1,17
 336 80 336 80 420 80 c 0,18,19
 509 80 509 80 571 142.5 c 128,-1,20
 633 205 633 205 633 319 c 0,21,22
 635 441 635 441 583.5 496.5 c 128,-1,23
 532 552 532 552 439 556 c 0,24,25
 379 556 379 556 318 533.5 c 128,-1,26
 257 511 257 511 207 467 c 1,27,-1
 161 492 l 1,28,-1
 212 873 l 1,29,-1
 809 873 l 1,30,-1
 809 749 l 1,0,-1
EndSplineSet
EndChar

StartChar: six
Encoding: 54 54 25
Width: 952
GlyphClass: 2
Flags: W
LayerCount: 2
Fore
SplineSet
317 542 m 1,0,1
 363 580 363 580 424 601 c 128,-1,2
 485 622 485 622 552 622 c 0,3,4
 690 622 690 622 782.5 543.5 c 128,-1,5
 875 465 875 465 876 333 c 0,6,7
 876 179 876 179 767.5 89.5 c 128,-1,8
 659 0 659 0 499 0 c 0,9,10
 315 0 315 0 195 114.5 c 128,-1,11
 75 229 75 229 77 417 c 0,12,13
 77 608 77 608 195 735.5 c 128,-1,14
 313 863 313 863 503 868 c 0,15,16
 624 871 624 871 710 832.5 c 128,-1,17
 796 794 796 794 846 726 c 1,18,-1
 776 666 l 1,19,20
 736 732 736 732 673 763 c 128,-1,21
 610 794 610 794 534 794 c 0,22,23
 420 794 420 794 365.5 722.5 c 128,-1,24
 311 651 311 651 317 542 c 1,0,1
317 307 m 0,25,26
 319 199 319 199 369.5 136 c 128,-1,27
 420 73 420 73 485 75 c 0,28,29
 549 75 549 75 593.5 132.5 c 128,-1,30
 638 190 638 190 636 294 c 0,31,32
 635 417 635 417 594.5 476.5 c 128,-1,33
 554 536 554 536 490 536 c 0,34,35
 407 536 407 536 362 464 c 128,-1,36
 317 392 317 392 317 307 c 0,25,26
EndSplineSet
EndChar

StartChar: seven
Encoding: 55 55 26
Width: 954
GlyphClass: 2
Flags: W
LayerCount: 2
Fore
SplineSet
140 886 m 1,0,-1
 814 886 l 1,1,-1
 814 797 l 1,2,-1
 351 0 l 1,3,-1
 262 46 l 1,4,-1
 643 712 l 1,5,-1
 140 712 l 1,6,-1
 140 886 l 1,0,-1
EndSplineSet
EndChar

StartChar: eight
Encoding: 56 56 27
Width: 954
GlyphClass: 2
Flags: W
LayerCount: 2
Fore
SplineSet
478 0 m 0,0,1
 296 0 296 0 191.5 67 c 128,-1,2
 87 134 87 134 85 272 c 0,3,4
 83 348 83 348 126 405.5 c 128,-1,5
 169 463 169 463 248 478 c 1,6,7
 187 495 187 495 157 547 c 128,-1,8
 127 599 127 599 128 675 c 0,9,10
 130 785 130 785 237 844 c 128,-1,11
 344 903 344 903 487 900 c 0,12,13
 626 900 626 900 726 842.5 c 128,-1,14
 826 785 826 785 827 675 c 0,15,16
 827 601 827 601 797 552.5 c 128,-1,17
 767 504 767 504 705 487 c 1,18,19
 786 471 786 471 828 418 c 128,-1,20
 870 365 870 365 870 280 c 0,21,22
 868 143 868 143 763 71.5 c 128,-1,23
 658 0 658 0 478 0 c 0,0,1
476 511 m 256,24,25
 523 511 523 511 562 551 c 128,-1,26
 601 591 601 591 601 664 c 0,27,28
 601 740 601 740 565 778 c 128,-1,29
 529 816 529 816 478 816 c 0,30,31
 426 816 426 816 388.5 778 c 128,-1,32
 351 740 351 740 351 664 c 0,33,34
 351 591 351 591 390 551 c 128,-1,35
 429 511 429 511 476 511 c 256,24,25
478 85 m 0,36,37
 540 85 540 85 583 128 c 128,-1,38
 626 171 626 171 629 253 c 0,39,40
 631 326 631 326 590 378.5 c 128,-1,41
 549 431 549 431 478 431 c 256,42,43
 407 431 407 431 364.5 378.5 c 128,-1,44
 322 326 322 326 326 253 c 0,45,46
 328 171 328 171 371.5 128 c 128,-1,47
 415 85 415 85 478 85 c 0,36,37
EndSplineSet
EndChar

StartChar: nine
Encoding: 57 57 28
Width: 952
GlyphClass: 2
Flags: W
LayerCount: 2
Fore
SplineSet
621 316 m 1,0,1
 578 275 578 275 520.5 256 c 128,-1,2
 463 237 463 237 401 237 c 0,3,4
 265 238 265 238 175 324 c 128,-1,5
 85 410 85 410 87 545 c 0,6,7
 89 703 89 703 196 785.5 c 128,-1,8
 303 868 303 868 465 868 c 0,9,10
 662 870 662 870 763.5 766 c 128,-1,11
 865 662 865 662 865 476 c 0,12,13
 865 270 865 270 749 137 c 128,-1,14
 633 4 633 4 431 0 c 0,15,16
 311 -2 311 -2 226.5 36.5 c 128,-1,17
 142 75 142 75 94 143 c 1,18,-1
 163 200 l 1,19,20
 205 135 205 135 268.5 105 c 128,-1,21
 332 75 332 75 407 75 c 0,22,23
 522 75 522 75 575.5 141.5 c 128,-1,24
 629 208 629 208 621 316 c 1,0,1
455 794 m 0,25,26
 384 794 384 794 342.5 726.5 c 128,-1,27
 301 659 301 659 301 566 c 0,28,29
 300 471 300 471 340.5 402 c 128,-1,30
 381 333 381 333 452 333 c 0,31,32
 532 333 532 333 575.5 401 c 128,-1,33
 619 469 619 469 619 562 c 0,34,35
 619 658 619 658 575.5 727 c 128,-1,36
 532 796 532 796 455 794 c 0,25,26
EndSplineSet
EndChar

StartChar: colon
Encoding: 58 58 29
Width: 557
GlyphClass: 2
Flags: W
LayerCount: 2
Fore
SplineSet
277 793 m 0,0,1
 344 793 344 793 391.5 746 c 128,-1,2
 439 699 439 699 439 633 c 0,3,4
 439 566 439 566 391.5 518.5 c 128,-1,5
 344 471 344 471 277 471 c 0,6,7
 211 471 211 471 164 518.5 c 128,-1,8
 117 566 117 566 117 633 c 0,9,10
 117 699 117 699 164 746 c 128,-1,11
 211 793 211 793 277 793 c 0,0,1
277 322 m 0,12,13
 344 322 344 322 391.5 275.5 c 128,-1,14
 439 229 439 229 439 162 c 0,15,16
 439 94 439 94 391.5 47 c 128,-1,17
 344 0 344 0 277 0 c 0,18,19
 211 0 211 0 164 48 c 128,-1,20
 117 96 117 96 117 162 c 0,21,22
 117 229 117 229 164 275.5 c 128,-1,23
 211 322 211 322 277 322 c 0,12,13
EndSplineSet
EndChar

StartChar: semicolon
Encoding: 59 59 30
Width: 682
GlyphClass: 2
Flags: W
LayerCount: 2
Fore
SplineSet
393 -188 m 1,0,-1
 338 -127 l 1,1,2
 383 -98 383 -98 415 -63.5 c 128,-1,3
 447 -29 447 -29 459 14 c 1,4,5
 443 8 443 8 426.5 4 c 128,-1,6
 410 0 410 0 395 0 c 0,7,8
 328 0 328 0 281 47 c 128,-1,9
 234 94 234 94 234 160 c 0,10,11
 234 225 234 225 281 271.5 c 128,-1,12
 328 318 328 318 395 318 c 0,13,14
 480 318 480 318 522 259.5 c 128,-1,15
 564 201 564 201 564 115 c 0,16,17
 564 23 564 23 517.5 -57 c 128,-1,18
 471 -137 471 -137 393 -188 c 1,0,-1
395 793 m 0,19,20
 461 793 461 793 509 746 c 128,-1,21
 557 699 557 699 557 633 c 0,22,23
 557 566 557 566 509 518.5 c 128,-1,24
 461 471 461 471 395 471 c 0,25,26
 328 471 328 471 281 518.5 c 128,-1,27
 234 566 234 566 234 633 c 0,28,29
 234 699 234 699 281 746 c 128,-1,30
 328 793 328 793 395 793 c 0,19,20
EndSplineSet
EndChar

StartChar: less
Encoding: 60 60 31
Width: 1068
GlyphClass: 2
Flags: W
LayerCount: 2
Fore
SplineSet
732 908 m 1,0,-1
 806 836 l 1,1,-1
 486 516 l 1,2,-1
 804 200 l 1,3,-1
 732 128 l 1,4,-1
 342 516 l 1,5,-1
 732 908 l 1,0,-1
EndSplineSet
EndChar

StartChar: equal
Encoding: 61 61 32
Width: 1057
GlyphClass: 2
Flags: W
LayerCount: 2
Fore
SplineSet
939 611 m 1,0,-1
 939 494 l 1,1,-1
 117 494 l 1,2,-1
 117 611 l 1,3,-1
 939 611 l 1,0,-1
939 268 m 1,4,-1
 939 148 l 1,5,-1
 117 148 l 1,6,-1
 117 268 l 1,7,-1
 939 268 l 1,4,-1
EndSplineSet
EndChar

StartChar: greater
Encoding: 62 62 33
Width: 1068
GlyphClass: 2
Flags: W
LayerCount: 2
Fore
SplineSet
866 516 m 1,0,-1
 476 128 l 1,1,-1
 404 200 l 1,2,-1
 722 516 l 1,3,-1
 402 836 l 1,4,-1
 476 908 l 1,5,-1
 866 516 l 1,0,-1
EndSplineSet
EndChar

StartChar: question
Encoding: 63 63 34
Width: 1238
GlyphClass: 2
Flags: W
LayerCount: 2
Fore
SplineSet
289 652 m 1,0,1
 262 680 262 680 248 718 c 128,-1,2
 234 756 234 756 234 799 c 0,3,4
 234 941 234 941 366 1022.5 c 128,-1,5
 498 1104 498 1104 695 1100 c 1,6,7
 893 1100 893 1100 1007 1027.5 c 128,-1,8
 1121 955 1121 955 1121 807 c 0,9,10
 1121 646 1121 646 1045 593.5 c 128,-1,11
 969 541 969 541 787 502 c 0,12,13
 756 498 756 498 739.5 482.5 c 128,-1,14
 723 467 723 467 719 432 c 0,15,16
 717 422 717 422 717 408.5 c 128,-1,17
 717 395 717 395 717 371 c 1,18,-1
 449 371 l 1,19,20
 449 531 449 531 635.5 588 c 128,-1,21
 822 645 822 645 826 807 c 0,22,23
 828 904 828 904 777.5 947 c 128,-1,24
 727 990 727 990 645 994 c 0,25,26
 527 996 527 996 454 950 c 128,-1,27
 381 904 381 904 383 805 c 0,28,29
 383 775 383 775 391.5 749 c 128,-1,30
 400 723 400 723 420 701 c 1,31,-1
 289 652 l 1,0,1
602 318 m 0,32,33
 668 318 668 318 714 271.5 c 128,-1,34
 760 225 760 225 760 158 c 0,35,36
 760 92 760 92 714 46 c 128,-1,37
 668 0 668 0 602 0 c 0,38,39
 533 0 533 0 486 46 c 128,-1,40
 439 92 439 92 439 158 c 0,41,42
 439 225 439 225 487 271.5 c 128,-1,43
 535 318 535 318 602 318 c 0,32,33
EndSplineSet
EndChar

StartChar: at
Encoding: 64 64 35
Width: 1760
GlyphClass: 2
Flags: W
LayerCount: 2
Fore
SplineSet
936 128 m 1,0,1
 800 -2 800 -2 668 -2 c 0,2,3
 504 -2 504 -2 462 164 c 0,4,5
 450 212 450 212 450 262 c 2,6,-1
 450 314 l 1,7,-1
 458 348 l 2,8,9
 488 476 488 476 575 601 c 128,-1,10
 662 726 662 726 772 786 c 128,-1,11
 882 846 882 846 970 846 c 0,12,13
 1112 846 1112 846 1176 702 c 1,14,-1
 1228 824 l 1,15,-1
 1368 824 l 1,16,-1
 1094 180 l 1,17,18
 1094 160 1094 160 1102 142 c 1,19,20
 1112 132 1112 132 1138 128 c 1,21,22
 1184 128 1184 128 1258 174 c 0,23,24
 1356 236 1356 236 1434 343 c 128,-1,25
 1512 450 1512 450 1532 560 c 2,26,-1
 1540 604 l 1,27,-1
 1542 656 l 2,28,29
 1544 726 1544 726 1518 802 c 0,30,31
 1476 924 1476 924 1338 992 c 0,32,33
 1220 1052 1220 1052 1078 1052 c 0,34,35
 786 1052 786 1052 567 861 c 128,-1,36
 348 670 348 670 284 380 c 0,37,38
 266 298 266 298 266 224 c 0,39,40
 266 -50 266 -50 492 -154 c 0,41,42
 636 -220 636 -220 828 -220 c 0,43,44
 1204 -220 1204 -220 1428 14 c 1,45,-1
 1568 14 l 1,46,47
 1444 -182 1444 -182 1138 -286 c 0,48,49
 992 -336 992 -336 804 -336 c 0,50,51
 448 -336 448 -336 278 -162 c 0,52,53
 146 -26 146 -26 146 196 c 0,54,55
 146 464 146 464 320 730 c 0,56,57
 454 936 454 936 661 1051 c 128,-1,58
 868 1166 868 1166 1110 1166 c 0,59,60
 1524 1166 1524 1166 1634 852 c 0,61,62
 1662 770 1662 770 1660 686 c 2,63,-1
 1658 624 l 1,64,-1
 1646 556 l 2,65,66
 1608 342 1608 342 1402 156 c 0,67,68
 1224 -4 1224 -4 1058 -4 c 2,69,-1
 1036 -4 l 1,70,-1
 1006 0 l 2,71,72
 960 6 960 6 934 60 c 1,73,-1
 932 86 l 1,74,-1
 936 128 l 1,0,1
602 340 m 2,75,-1
 596 302 l 1,76,-1
 594 264 l 2,77,78
 590 202 590 202 625 158 c 128,-1,79
 660 114 660 114 720 114 c 0,80,81
 844 114 844 114 926 218 c 1,82,83
 978 258 978 258 1028 350 c 0,84,85
 1076 436 1076 436 1088 508 c 2,86,-1
 1094 542 l 1,87,-1
 1096 578 l 2,88,89
 1100 642 1100 642 1060 687 c 128,-1,90
 1020 732 1020 732 956 732 c 0,91,92
 800 732 800 732 660 490 c 0,93,94
 612 408 612 408 602 340 c 2,75,-1
EndSplineSet
EndChar

StartChar: bracketleft
Encoding: 91 91 36
Width: 556
GlyphClass: 2
Flags: W
LayerCount: 2
Fore
SplineSet
50 -398 m 1,0,-1
 442 1432 l 1,1,-1
 830 1432 l 1,2,-1
 798 1286 l 1,3,-1
 586 1286 l 1,4,-1
 258 -252 l 1,5,-1
 470 -252 l 1,6,-1
 438 -398 l 1,7,-1
 50 -398 l 1,0,-1
EndSplineSet
EndChar

StartChar: backslash
Encoding: 92 92 37
Width: 556
GlyphClass: 2
Flags: W
LayerCount: 2
Fore
SplineSet
416 -24 m 1,0,-1
 0 1456 l 1,1,-1
 142 1456 l 1,2,-1
 556 -24 l 1,3,-1
 416 -24 l 1,0,-1
EndSplineSet
EndChar

StartChar: bracketright
Encoding: 93 93 38
Width: 556
GlyphClass: 2
Flags: W
LayerCount: 2
Fore
SplineSet
340 -398 m 1,0,-1
 -48 -398 l 1,1,-1
 -16 -252 l 1,2,-1
 196 -252 l 1,3,-1
 524 1286 l 1,4,-1
 312 1286 l 1,5,-1
 344 1432 l 1,6,-1
 732 1432 l 1,7,-1
 340 -398 l 1,0,-1
EndSplineSet
EndChar

StartChar: asciicircum
Encoding: 94 94 39
Width: 938
GlyphClass: 2
Flags: W
LayerCount: 2
Fore
SplineSet
234 674 m 1,0,-1
 52 674 l 1,1,-1
 398 1456 l 1,2,-1
 540 1456 l 1,3,-1
 886 674 l 1,4,-1
 708 674 l 1,5,-1
 468 1256 l 1,6,-1
 234 674 l 1,0,-1
EndSplineSet
EndChar

StartChar: underscore
Encoding: 95 95 40
Width: 1112
GlyphClass: 2
Flags: W
LayerCount: 2
Fore
SplineSet
-30 -398 m 1,0,-1
 -30 -270 l 1,1,-1
 1134 -270 l 1,2,-1
 1134 -398 l 1,3,-1
 -30 -398 l 1,0,-1
EndSplineSet
EndChar

StartChar: grave
Encoding: 96 96 41
Width: 666
GlyphClass: 2
Flags: W
LayerCount: 2
Fore
SplineSet
454 1166 m 1,0,-1
 312 1166 l 1,1,-1
 86 1440 l 1,2,-1
 322 1440 l 1,3,-1
 454 1166 l 1,0,-1
EndSplineSet
EndChar

StartChar: braceleft
Encoding: 123 123 42
Width: 668
GlyphClass: 2
Flags: W
LayerCount: 2
Fore
SplineSet
184 598 m 1,0,1
 336 598 336 598 400 744 c 1,2,-1
 434 854 l 1,3,-1
 466 974 l 2,4,5
 480 1042 480 1042 520 1202 c 0,6,7
 550 1312 550 1312 650 1396 c 0,8,9
 686 1426 686 1426 756 1446 c 1,10,-1
 804 1454 l 1,11,-1
 878 1456 l 1,12,-1
 934 1456 l 1,13,-1
 900 1302 l 1,14,-1
 868 1302 l 2,15,16
 770 1302 770 1302 724 1264 c 0,17,18
 690 1236 690 1236 658 1102 c 2,19,-1
 644 1042 l 1,20,-1
 614 898 l 1,21,-1
 596 824 l 2,22,23
 590 800 590 800 578 780 c 0,24,25
 536 676 536 676 484 623 c 128,-1,26
 432 570 432 570 328 518 c 1,27,28
 468 460 468 460 468 296 c 0,29,30
 468 244 468 244 438 78 c 2,31,-1
 392 -178 l 1,32,33
 392 -220 392 -220 414 -242 c 1,34,-1
 450 -258 l 1,35,36
 486 -268 486 -268 532 -268 c 2,37,-1
 564 -268 l 1,38,-1
 532 -420 l 1,39,-1
 476 -420 l 2,40,41
 378 -420 378 -420 342 -406 c 0,42,43
 292 -386 292 -386 256 -334 c 1,44,-1
 234 -278 l 1,45,-1
 226 -206 l 1,46,47
 226 -160 226 -160 244 -72 c 2,48,-1
 268 46 l 1,49,-1
 296 194 l 1,50,-1
 304 290 l 2,51,52
 310 352 310 352 264 398 c 1,53,54
 214 438 214 438 150 438 c 1,55,-1
 184 598 l 1,0,1
EndSplineSet
EndChar

StartChar: bar
Encoding: 124 124 43
Width: 520
GlyphClass: 2
Flags: W
LayerCount: 2
Fore
SplineSet
184 -420 m 1,0,-1
 184 1456 l 1,1,-1
 336 1456 l 1,2,-1
 336 -420 l 1,3,-1
 184 -420 l 1,0,-1
EndSplineSet
EndChar

StartChar: braceright
Encoding: 125 125 44
Width: 668
GlyphClass: 2
Flags: W
LayerCount: 2
Fore
SplineSet
740 598 m 1,0,-1
 706 438 l 1,1,2
 632 438 632 438 570 398 c 128,-1,3
 508 358 508 358 486 290 c 2,4,-1
 456 200 l 1,5,-1
 372 -154 l 2,6,7
 354 -230 354 -230 310 -282 c 2,8,-1
 274 -324 l 1,9,-1
 234 -364 l 1,10,-1
 194 -386 l 1,11,-1
 134 -410 l 1,12,-1
 86 -418 l 1,13,-1
 10 -420 l 1,14,-1
 -44 -420 l 1,15,-1
 -12 -268 l 1,16,-1
 18 -268 l 2,17,18
 116 -268 116 -268 159 -231 c 128,-1,19
 202 -194 202 -194 230 -66 c 2,20,-1
 272 124 l 1,21,-1
 304 244 l 2,22,23
 354 432 354 432 558 518 c 1,24,25
 460 566 460 566 432 656 c 0,26,27
 422 688 422 688 422 748 c 0,28,29
 422 838 422 838 448 958 c 2,30,-1
 474 1078 l 1,31,-1
 486 1142 l 1,32,-1
 496 1212 l 1,33,-1
 496 1222 l 2,34,35
 496 1302 496 1302 354 1302 c 2,36,-1
 324 1302 l 1,37,-1
 358 1456 l 1,38,-1
 412 1456 l 2,39,40
 584 1456 584 1456 634 1370 c 0,41,42
 660 1326 660 1326 660 1240 c 1,43,-1
 650 1138 l 1,44,-1
 592 834 l 1,45,-1
 582 742 l 1,46,47
 582 686 582 686 624 638 c 1,48,49
 646 620 646 620 674 608 c 1,50,-1
 704 600 l 1,51,-1
 740 598 l 1,0,-1
EndSplineSet
EndChar

StartChar: asciitilde
Encoding: 126 126 45
Width: 1168
GlyphClass: 2
Flags: W
LayerCount: 2
Fore
SplineSet
84 544 m 1,0,-1
 84 744 l 1,1,2
 190 862 190 862 356 862 c 0,3,4
 402 862 402 862 480 844 c 1,5,6
 526 826 526 826 664 776 c 2,7,-1
 764 740 l 1,8,-1
 806 730 l 1,9,-1
 832 730 l 2,10,11
 950 730 950 730 1084 864 c 1,12,-1
 1084 658 l 1,13,14
 1024 604 1024 604 960 572 c 1,15,16
 876 544 876 544 814 546 c 2,17,-1
 758 548 l 1,18,-1
 726 548 l 1,19,20
 718 552 718 552 704 556 c 0,21,22
 662 568 662 568 524 628 c 0,23,24
 414 676 414 676 340 676 c 0,25,26
 276 676 276 676 222 650 c 1,27,-1
 162 612 l 1,28,-1
 136 592 l 1,29,-1
 84 544 l 1,0,-1
EndSplineSet
EndChar

StartChar: cent
Encoding: 162 162 46
Width: 721
GlyphClass: 2
Flags: W
LayerCount: 2
Fore
SplineSet
598 156 m 1,0,1
 537 71 537 71 467 31 c 128,-1,2
 397 -9 397 -9 304 -17 c 1,3,-1
 228 -265 l 1,4,-1
 187 -265 l 1,5,-1
 262 -17 l 1,6,7
 177 -8 177 -8 128.5 47 c 128,-1,8
 80 102 80 102 80 188 c 0,9,10
 80 345 80 345 191.5 478.5 c 128,-1,11
 303 612 303 612 457 638 c 1,12,-1
 541 917 l 1,13,-1
 580 917 l 1,14,-1
 499 638 l 1,15,16
 580 638 580 638 616.5 607 c 128,-1,17
 653 576 653 576 653 523 c 0,18,19
 653 482 653 482 631.5 455.5 c 128,-1,20
 610 429 610 429 580 429 c 0,21,22
 557 429 557 429 544 442 c 128,-1,23
 531 455 531 455 531 476 c 0,24,25
 531 491 531 491 536 502 c 128,-1,26
 541 513 541 513 560.5 534.5 c 128,-1,27
 580 556 580 556 580 570 c 0,28,29
 580 578 580 578 575 585 c 0,30,31
 565 596 565 596 549.5 601 c 128,-1,32
 534 606 534 606 489 606 c 1,33,-1
 322 49 l 1,34,-1
 352 47 l 1,35,36
 470 47 470 47 580 173 c 1,37,-1
 598 156 l 1,0,1
284 57 m 1,38,-1
 445 598 l 1,39,40
 383 570 383 570 342 533 c 0,41,42
 274 467 274 467 237 380.5 c 128,-1,43
 200 294 200 294 200 205 c 0,44,45
 200 146 200 146 224 108 c 0,46,47
 243 81 243 81 284 57 c 1,38,-1
EndSplineSet
EndChar

StartChar: multiply
Encoding: 215 215 47
Width: 975
GlyphClass: 2
Flags: W
LayerCount: 2
Fore
SplineSet
267 230 m 1,0,-1
 515 479 l 1,1,-1
 267 728 l 1,2,-1
 308 768 l 1,3,-1
 556 520 l 1,4,-1
 805 768 l 1,5,-1
 844 728 l 1,6,-1
 595 480 l 1,7,-1
 845 230 l 1,8,-1
 805 190 l 1,9,-1
 555 439 l 1,10,-1
 307 190 l 1,11,-1
 267 230 l 1,0,-1
EndSplineSet
EndChar

StartChar: divide
Encoding: 247 247 48
Width: 1086
GlyphClass: 2
Flags: W
LayerCount: 2
Fore
SplineSet
969 490 m 1,0,-1
 969 373 l 1,1,-1
 117 373 l 1,2,-1
 117 490 l 1,3,-1
 969 490 l 1,0,-1
545 861 m 0,4,5
 609 861 609 861 656 815.5 c 128,-1,6
 703 770 703 770 703 703 c 0,7,8
 703 637 703 637 656 590 c 128,-1,9
 609 543 609 543 545 543 c 0,10,11
 479 543 479 543 431 590 c 128,-1,12
 383 637 383 637 383 703 c 0,13,14
 383 770 383 770 430 815.5 c 128,-1,15
 477 861 477 861 545 861 c 0,4,5
545 318 m 0,16,17
 609 318 609 318 656 271.5 c 128,-1,18
 703 225 703 225 703 160 c 0,19,20
 703 94 703 94 656 47 c 128,-1,21
 609 0 609 0 545 0 c 0,22,23
 479 0 479 0 431 47 c 128,-1,24
 383 94 383 94 383 160 c 0,25,26
 383 225 383 225 431 271.5 c 128,-1,27
 479 318 479 318 545 318 c 0,16,17
EndSplineSet
EndChar

StartChar: tm_visarga
Encoding: 2947 2947 49
Width: 1219
GlyphClass: 2
Flags: W
LayerCount: 2
Fore
SplineSet
299 84 m 256,0,1
 336 84 336 84 354.5 119 c 128,-1,2
 373 154 373 154 373 230 c 0,3,4
 373 305 373 305 354.5 338 c 128,-1,5
 336 371 336 371 299 371 c 256,6,7
 262 371 262 371 243.5 338 c 128,-1,8
 225 305 225 305 225 230 c 0,9,10
 225 154 225 154 243.5 119 c 128,-1,11
 262 84 262 84 299 84 c 256,0,1
299 0 m 256,12,13
 174 0 174 0 109.5 62.5 c 128,-1,14
 45 125 45 125 45 230 c 0,15,16
 45 336 45 336 109.5 397.5 c 128,-1,17
 174 459 174 459 299 459 c 256,18,19
 424 459 424 459 486.5 397.5 c 128,-1,20
 549 336 549 336 549 230 c 0,21,22
 549 125 549 125 486.5 62.5 c 128,-1,23
 424 0 424 0 299 0 c 256,12,13
922 84 m 256,24,25
 959 84 959 84 977.5 119 c 128,-1,26
 996 154 996 154 996 230 c 0,27,28
 996 305 996 305 977.5 338 c 128,-1,29
 959 371 959 371 922 371 c 256,30,31
 885 371 885 371 867.5 338 c 128,-1,32
 850 305 850 305 850 230 c 0,33,34
 850 154 850 154 867.5 119 c 128,-1,35
 885 84 885 84 922 84 c 256,24,25
922 0 m 0,36,37
 797 0 797 0 734.5 62.5 c 128,-1,38
 672 125 672 125 672 230 c 0,39,40
 672 336 672 336 734.5 397.5 c 128,-1,41
 797 459 797 459 922 459 c 0,42,43
 1049 459 1049 459 1111.5 397.5 c 128,-1,44
 1174 336 1174 336 1174 230 c 0,45,46
 1174 125 1174 125 1111.5 62.5 c 128,-1,47
 1049 0 1049 0 922 0 c 0,36,37
611 580 m 256,48,49
 648 580 648 580 667 617 c 128,-1,50
 686 654 686 654 686 730 c 0,51,52
 686 805 686 805 667 838 c 128,-1,53
 648 871 648 871 611 871 c 256,54,55
 574 871 574 871 555.5 838 c 128,-1,56
 537 805 537 805 537 730 c 0,57,58
 537 654 537 654 555.5 617 c 128,-1,59
 574 580 574 580 611 580 c 256,48,49
611 496 m 0,60,61
 484 496 484 496 421.5 558.5 c 128,-1,62
 359 621 359 621 359 730 c 0,63,64
 359 836 359 836 421.5 897.5 c 128,-1,65
 484 959 484 959 611 959 c 0,66,67
 736 959 736 959 798.5 897.5 c 128,-1,68
 861 836 861 836 861 730 c 0,69,70
 861 623 861 623 798.5 559.5 c 128,-1,71
 736 496 736 496 611 496 c 0,60,61
EndSplineSet
EndChar

StartChar: tm_a
Encoding: 2949 2949 50
Width: 1900
GlyphClass: 2
Flags: W
LayerCount: 2
Fore
SplineSet
1783 781 m 1,0,-1
 1783 -154 l 1,1,-1
 1488 -154 l 1,2,-1
 1488 133 l 1,3,-1
 1324 133 l 1,4,5
 1232 -37 1232 -37 1052.5 -95.5 c 128,-1,6
 873 -154 873 -154 629 -156 c 0,7,8
 512 -156 512 -156 397.5 -135.5 c 128,-1,9
 283 -115 283 -115 172 -51 c 0,10,11
 113 -18 113 -18 68 25 c 128,-1,12
 23 68 23 68 25 119 c 0,13,14
 29 172 29 172 87.5 194.5 c 128,-1,15
 146 217 146 217 256 217 c 2,16,-1
 566 217 l 1,17,18
 482 240 482 240 438.5 313.5 c 128,-1,19
 395 387 395 387 395 486 c 0,20,21
 395 660 395 660 531.5 744 c 128,-1,22
 668 828 668 828 855 822 c 1,23,24
 1082 820 1082 820 1234.5 704 c 128,-1,25
 1387 588 1387 588 1383 369 c 0,26,27
 1383 332 1383 332 1377 294 c 128,-1,28
 1371 256 1371 256 1359 217 c 1,29,-1
 1488 217 l 1,30,-1
 1488 781 l 1,31,-1
 1783 781 l 1,0,-1
1084 133 m 1,32,-1
 318 133 l 2,33,34
 279 133 279 133 260.5 119 c 128,-1,35
 242 105 242 105 244 82 c 0,36,37
 244 62 244 62 258.5 41.5 c 128,-1,38
 273 21 273 21 299 0 c 0,39,40
 359 -39 359 -39 461.5 -54.5 c 128,-1,41
 564 -70 564 -70 666 -70 c 0,42,43
 807 -70 807 -70 917 -23.5 c 128,-1,44
 1027 23 1027 23 1084 133 c 1,32,-1
828 217 m 1,45,-1
 1111 217 l 1,46,47
 1119 254 1119 254 1124 295 c 128,-1,48
 1129 336 1129 336 1129 375 c 0,49,50
 1133 525 1133 525 1056 627 c 128,-1,51
 979 729 979 729 803 732 c 0,52,53
 682 736 682 736 590 676.5 c 128,-1,54
 498 617 498 617 498 500 c 0,55,56
 498 463 498 463 506 431.5 c 128,-1,57
 514 400 514 400 529 383 c 1,58,59
 527 393 527 393 525 404.5 c 128,-1,60
 523 416 523 416 523 426 c 0,61,62
 525 518 525 518 590.5 578.5 c 128,-1,63
 656 639 656 639 756 639 c 0,64,65
 854 637 854 637 908.5 580 c 128,-1,66
 963 523 963 523 963 437 c 0,67,68
 965 363 965 363 930 304.5 c 128,-1,69
 895 246 895 246 828 217 c 1,45,-1
617 402 m 0,70,71
 617 346 617 346 641.5 312.5 c 128,-1,72
 666 279 666 279 695 283 c 1,73,74
 725 283 725 283 744.5 315.5 c 128,-1,75
 764 348 764 348 764 406 c 0,76,77
 764 469 764 469 742.5 500 c 128,-1,78
 721 531 721 531 689 529 c 0,79,80
 660 527 660 527 637.5 493 c 128,-1,81
 615 459 615 459 617 402 c 0,70,71
EndSplineSet
EndChar

StartChar: tm_aa
Encoding: 2950 2950 51
Width: 2211
GlyphClass: 2
Flags: W
LayerCount: 2
Fore
SplineSet
1307 -107 m 1,0,1
 1309 -191 1309 -191 1392 -240 c 128,-1,2
 1475 -289 1475 -289 1594 -289 c 0,3,4
 1715 -293 1715 -293 1812.5 -241 c 128,-1,5
 1910 -189 1910 -189 1910 -76 c 2,6,-1
 1910 27 l 2,7,8
 1910 80 1910 80 1893.5 111.5 c 128,-1,9
 1877 143 1877 143 1832 145 c 0,10,11
 1822 145 1822 145 1809.5 140 c 128,-1,12
 1797 135 1797 135 1783 127 c 1,13,-1
 1783 -154 l 1,14,-1
 1488 -154 l 1,15,-1
 1488 133 l 1,16,-1
 1324 133 l 1,17,18
 1232 -37 1232 -37 1052.5 -95.5 c 128,-1,19
 873 -154 873 -154 629 -156 c 0,20,21
 512 -156 512 -156 397.5 -135.5 c 128,-1,22
 283 -115 283 -115 172 -51 c 0,23,24
 113 -18 113 -18 68 25 c 128,-1,25
 23 68 23 68 25 119 c 0,26,27
 29 172 29 172 87.5 194.5 c 128,-1,28
 146 217 146 217 256 217 c 2,29,-1
 566 217 l 1,30,31
 482 240 482 240 438.5 313.5 c 128,-1,32
 395 387 395 387 395 486 c 0,33,34
 395 660 395 660 531.5 744 c 128,-1,35
 668 828 668 828 855 822 c 1,36,37
 1082 820 1082 820 1234.5 704 c 128,-1,38
 1387 588 1387 588 1383 369 c 0,39,40
 1383 332 1383 332 1377 294 c 128,-1,41
 1371 256 1371 256 1359 217 c 1,42,-1
 1488 217 l 1,43,-1
 1488 781 l 1,44,-1
 1783 781 l 1,45,-1
 1783 229 l 1,46,47
 1818 238 1818 238 1851.5 244 c 128,-1,48
 1885 250 1885 250 1914 248 c 0,49,50
 2031 248 2031 248 2109 180.5 c 128,-1,51
 2187 113 2187 113 2189 -14 c 0,52,53
 2191 -223 2191 -223 2020.5 -307 c 128,-1,54
 1850 -391 1850 -391 1627 -387 c 0,55,56
 1441 -387 1441 -387 1319 -319.5 c 128,-1,57
 1197 -252 1197 -252 1187 -107 c 1,58,-1
 1307 -107 l 1,0,1
1084 133 m 1,59,-1
 318 133 l 2,60,61
 279 133 279 133 260.5 119 c 128,-1,62
 242 105 242 105 244 82 c 0,63,64
 244 62 244 62 258.5 41.5 c 128,-1,65
 273 21 273 21 299 0 c 0,66,67
 359 -39 359 -39 461.5 -54.5 c 128,-1,68
 564 -70 564 -70 666 -70 c 0,69,70
 807 -70 807 -70 917 -23.5 c 128,-1,71
 1027 23 1027 23 1084 133 c 1,59,-1
828 217 m 1,72,-1
 1111 217 l 1,73,74
 1119 254 1119 254 1124 295 c 128,-1,75
 1129 336 1129 336 1129 375 c 0,76,77
 1133 525 1133 525 1056 627 c 128,-1,78
 979 729 979 729 803 732 c 0,79,80
 682 736 682 736 590 676.5 c 128,-1,81
 498 617 498 617 498 500 c 0,82,83
 498 463 498 463 506 431.5 c 128,-1,84
 514 400 514 400 529 383 c 1,85,86
 527 393 527 393 525 404.5 c 128,-1,87
 523 416 523 416 523 426 c 0,88,89
 525 518 525 518 590.5 578.5 c 128,-1,90
 656 639 656 639 756 639 c 0,91,92
 854 637 854 637 908.5 580 c 128,-1,93
 963 523 963 523 963 437 c 0,94,95
 965 363 965 363 930 304.5 c 128,-1,96
 895 246 895 246 828 217 c 1,72,-1
617 402 m 0,97,98
 617 346 617 346 641.5 312.5 c 128,-1,99
 666 279 666 279 695 283 c 1,100,101
 725 283 725 283 744.5 315.5 c 128,-1,102
 764 348 764 348 764 406 c 0,103,104
 764 469 764 469 742.5 500 c 128,-1,105
 721 531 721 531 689 529 c 0,106,107
 660 527 660 527 637.5 493 c 128,-1,108
 615 459 615 459 617 402 c 0,97,98
EndSplineSet
EndChar

StartChar: tm_i
Encoding: 2951 2951 52
Width: 1582
GlyphClass: 2
Flags: W
LayerCount: 2
Fore
SplineSet
533 357 m 0,0,1
 533 309 533 309 556.5 276.5 c 128,-1,2
 580 244 580 244 613 244 c 0,3,4
 654 244 654 244 670.5 282 c 128,-1,5
 687 320 687 320 687 365 c 0,6,7
 687 416 687 416 668.5 445.5 c 128,-1,8
 650 475 650 475 617 475 c 0,9,10
 574 475 574 475 553.5 438.5 c 128,-1,11
 533 402 533 402 533 357 c 0,0,1
498 168 m 1,12,13
 416 197 416 197 374 263.5 c 128,-1,14
 332 330 332 330 332 422 c 0,15,16
 334 594 334 594 473.5 689.5 c 128,-1,17
 613 785 613 785 791 781 c 0,18,19
 1004 779 1004 779 1143.5 641.5 c 128,-1,20
 1283 504 1283 504 1283 299 c 0,21,22
 1283 254 1283 254 1275.5 208 c 128,-1,23
 1268 162 1268 162 1252 115 c 1,24,25
 1371 80 1371 80 1455 17.5 c 128,-1,26
 1539 -45 1539 -45 1533 -148 c 0,27,28
 1523 -277 1523 -277 1404 -322 c 128,-1,29
 1285 -367 1285 -367 1133 -367 c 0,30,31
 1029 -367 1029 -367 924.5 -352.5 c 128,-1,32
 820 -338 820 -338 723 -307 c 1,33,34
 641 -326 641 -326 563.5 -336 c 128,-1,35
 486 -346 486 -346 412 -344 c 0,36,37
 258 -344 258 -344 147.5 -300 c 128,-1,38
 37 -256 37 -256 37 -125 c 0,39,40
 35 -61 35 -61 74 -11 c 128,-1,41
 113 39 113 39 184 78 c 1,42,43
 135 152 135 152 110.5 245 c 128,-1,44
 86 338 86 338 88 443 c 0,45,46
 90 734 90 734 295 919.5 c 128,-1,47
 500 1105 500 1105 795 1105 c 0,48,49
 1152 1105 1152 1105 1325 899 c 128,-1,50
 1498 693 1498 693 1498 357 c 0,51,52
 1498 309 1498 309 1494 257 c 128,-1,53
 1490 205 1490 205 1484 145 c 1,54,-1
 1398 156 l 1,55,56
 1398 170 1398 170 1401 204 c 128,-1,57
 1404 238 1404 238 1404 262 c 0,58,59
 1404 555 1404 555 1244 728.5 c 128,-1,60
 1084 902 1084 902 779 900 c 0,61,62
 520 898 520 898 370.5 765.5 c 128,-1,63
 221 633 221 633 209 437 c 0,64,65
 205 346 205 346 221.5 266 c 128,-1,66
 238 186 238 186 275 119 c 1,67,68
 328 135 328 135 385.5 147.5 c 128,-1,69
 443 160 443 160 498 168 c 1,12,13
758 184 m 1,70,71
 816 184 816 184 876 180 c 128,-1,72
 936 176 936 176 996 168 c 1,73,74
 1002 215 1002 215 1006 253 c 128,-1,75
 1010 291 1010 291 1010 328 c 0,76,77
 1010 480 1010 480 951.5 580 c 128,-1,78
 893 680 893 680 746 684 c 0,79,80
 619 687 619 687 524.5 618 c 128,-1,81
 430 549 430 549 430 426 c 0,82,83
 430 404 430 404 433.5 383.5 c 128,-1,84
 437 363 437 363 447 342 c 1,85,86
 439 445 439 445 500 508.5 c 128,-1,87
 561 572 561 572 662 568 c 0,88,89
 758 568 758 568 813.5 514.5 c 128,-1,90
 869 461 869 461 869 371 c 0,91,92
 867 305 867 305 838 258 c 128,-1,93
 809 211 809 211 758 184 c 1,70,71
564 -250 m 1,94,95
 463 -203 463 -203 379 -139.5 c 128,-1,96
 295 -76 295 -76 234 4 c 1,97,98
 201 -23 201 -23 183.5 -50.5 c 128,-1,99
 166 -78 166 -78 166 -105 c 0,100,101
 162 -168 162 -168 234.5 -215 c 128,-1,102
 307 -262 307 -262 428 -262 c 0,103,104
 457 -262 457 -262 489 -259 c 128,-1,105
 521 -256 521 -256 564 -250 c 1,94,95
318 43 m 1,106,107
 387 -45 387 -45 484.5 -110.5 c 128,-1,108
 582 -176 582 -176 699 -213 c 1,109,110
 801 -172 801 -172 869 -100.5 c 128,-1,111
 937 -29 937 -29 973 80 c 1,112,113
 920 88 920 88 863.5 93 c 128,-1,114
 807 98 807 98 740 102 c 1,115,116
 625 102 625 102 515.5 89 c 128,-1,117
 406 76 406 76 318 43 c 1,106,107
887 -252 m 1,118,119
 922 -256 922 -256 954 -259 c 128,-1,120
 986 -262 986 -262 1020 -262 c 0,121,122
 1125 -258 1125 -258 1204 -226.5 c 128,-1,123
 1283 -195 1283 -195 1291 -111 c 0,124,125
 1295 -68 1295 -68 1272.5 -38 c 128,-1,126
 1250 -8 1250 -8 1209 16 c 1,127,128
 1156 -72 1156 -72 1073 -139.5 c 128,-1,129
 990 -207 990 -207 887 -252 c 1,118,119
EndSplineSet
EndChar

StartChar: tm_ii
Encoding: 2952 2952 53
Width: 1098
GlyphClass: 2
Flags: W
LayerCount: 2
Fore
SplineSet
814 697 m 1,0,-1
 814 2 l 1,1,-1
 520 2 l 1,2,-1
 520 697 l 1,3,-1
 252 697 l 1,4,-1
 252 2 l 1,5,-1
 117 2 l 1,6,-1
 117 781 l 1,7,-1
 1016 781 l 1,8,-1
 1016 697 l 1,9,-1
 814 697 l 1,0,-1
387 514 m 256,10,11
 428 514 428 514 456 475.5 c 128,-1,12
 484 437 484 437 484 385 c 0,13,14
 484 330 484 330 456 291 c 128,-1,15
 428 252 428 252 387 252 c 256,16,17
 346 252 346 252 317.5 291 c 128,-1,18
 289 330 289 330 289 385 c 0,19,20
 289 437 289 437 317.5 475.5 c 128,-1,21
 346 514 346 514 387 514 c 256,10,11
959 510 m 256,22,23
 1000 510 1000 510 1028.5 473 c 128,-1,24
 1057 436 1057 436 1057 381 c 256,25,26
 1057 326 1057 326 1028.5 289 c 128,-1,27
 1000 252 1000 252 959 252 c 256,28,29
 918 252 918 252 889.5 289 c 128,-1,30
 861 326 861 326 861 381 c 256,31,32
 861 436 861 436 889.5 473 c 128,-1,33
 918 510 918 510 959 510 c 256,22,23
EndSplineSet
EndChar

StartChar: tm_u
Encoding: 2953 2953 54
Width: 1420
GlyphClass: 2
Flags: W
LayerCount: 2
Fore
SplineSet
1406 84 m 1,0,-1
 1406 0 l 1,1,-1
 92 0 l 1,2,-1
 92 115 l 2,3,4
 92 168 92 168 124 197.5 c 128,-1,5
 156 227 156 227 207 227 c 0,6,7
 451 227 451 227 589 276.5 c 128,-1,8
 727 326 727 326 727 531 c 0,9,10
 727 658 727 658 650.5 714 c 128,-1,11
 574 770 574 770 436 770 c 0,12,13
 326 770 326 770 246 707.5 c 128,-1,14
 166 645 166 645 168 549 c 0,15,16
 168 531 168 531 172 513.5 c 128,-1,17
 176 496 176 496 184 480 c 1,18,19
 176 578 176 578 241.5 640.5 c 128,-1,20
 307 703 307 703 404 703 c 0,21,22
 498 703 498 703 558.5 648.5 c 128,-1,23
 619 594 619 594 617 502 c 0,24,25
 617 400 617 400 544 343.5 c 128,-1,26
 471 287 471 287 355 287 c 0,27,28
 232 287 232 287 156 351.5 c 128,-1,29
 80 416 80 416 76 535 c 0,30,31
 72 713 72 713 206 789 c 128,-1,32
 340 865 340 865 527 865 c 0,33,34
 734 861 734 861 875 785 c 128,-1,35
 1016 709 1016 709 1016 518 c 0,36,37
 1016 301 1016 301 851 226.5 c 128,-1,38
 686 152 686 152 436 152 c 0,39,40
 410 152 410 152 398.5 146.5 c 128,-1,41
 387 141 387 141 387 115 c 2,42,-1
 387 84 l 1,43,-1
 1406 84 l 1,0,-1
271 480 m 0,44,45
 273 437 273 437 296.5 413 c 128,-1,46
 320 389 320 389 354 389 c 0,47,48
 377 389 377 389 397.5 414 c 128,-1,49
 418 439 418 439 418 490 c 0,50,51
 420 541 420 541 400.5 567.5 c 128,-1,52
 381 594 381 594 354 594 c 0,53,54
 309 594 309 594 287.5 558.5 c 128,-1,55
 266 523 266 523 271 480 c 0,44,45
EndSplineSet
EndChar

StartChar: tm_uu
Encoding: 2954 2954 55
Width: 2309
GlyphClass: 2
Flags: W
LayerCount: 2
Fore
SplineSet
268 480 m 0,0,1
 271 437 271 437 292.5 413 c 128,-1,2
 314 389 314 389 348 389 c 0,3,4
 375 389 375 389 395.5 414 c 128,-1,5
 416 439 416 439 418 490 c 0,6,7
 418 541 418 541 397.5 567.5 c 128,-1,8
 377 594 377 594 348 594 c 0,9,10
 307 594 307 594 286.5 559.5 c 128,-1,11
 266 525 266 525 268 480 c 0,0,1
2172 84 m 1,12,-1
 2172 0 l 1,13,-1
 90 0 l 1,14,-1
 90 115 l 2,15,16
 90 168 90 168 122 197.5 c 128,-1,17
 154 227 154 227 205 227 c 0,18,19
 449 227 449 227 587 277.5 c 128,-1,20
 725 328 725 328 725 531 c 0,21,22
 725 658 725 658 648.5 714 c 128,-1,23
 572 770 572 770 434 770 c 0,24,25
 324 770 324 770 245 707.5 c 128,-1,26
 166 645 166 645 168 549 c 0,27,28
 168 529 168 529 171 512.5 c 128,-1,29
 174 496 174 496 180 480 c 1,30,31
 172 578 172 578 237.5 640.5 c 128,-1,32
 303 703 303 703 402 703 c 0,33,34
 496 703 496 703 555.5 648.5 c 128,-1,35
 615 594 615 594 615 502 c 0,36,37
 615 400 615 400 541 343.5 c 128,-1,38
 467 287 467 287 354 287 c 0,39,40
 230 287 230 287 155 350.5 c 128,-1,41
 80 414 80 414 76 535 c 0,42,43
 70 713 70 713 203 789 c 128,-1,44
 336 865 336 865 525 865 c 0,45,46
 730 861 730 861 871 785 c 128,-1,47
 1012 709 1012 709 1012 518 c 0,48,49
 1012 301 1012 301 846 226.5 c 128,-1,50
 680 152 680 152 434 152 c 0,51,52
 406 152 406 152 395.5 146.5 c 128,-1,53
 385 141 385 141 385 115 c 2,54,-1
 385 84 l 1,55,-1
 2172 84 l 1,12,-1
1311 469 m 0,56,57
 1275 471 1275 471 1255.5 436.5 c 128,-1,58
 1236 402 1236 402 1236 355 c 0,59,60
 1236 314 1236 314 1253.5 283 c 128,-1,61
 1271 252 1271 252 1305 250 c 0,62,63
 1340 250 1340 250 1359.5 284 c 128,-1,64
 1379 318 1379 318 1379 365 c 0,65,66
 1379 406 1379 406 1360.5 437.5 c 128,-1,67
 1342 469 1342 469 1311 469 c 0,56,57
2295 775 m 1,68,-1
 2295 691 l 1,69,-1
 2170 691 l 1,70,-1
 2170 176 l 1,71,-1
 1953 176 l 1,72,-1
 1953 691 l 1,73,-1
 1836 691 l 1,74,-1
 1836 176 l 1,75,-1
 1621 176 l 1,76,-1
 1621 426 l 2,77,78
 1621 559 1621 559 1581 628 c 128,-1,79
 1541 697 1541 697 1416 697 c 0,80,81
 1295 697 1295 697 1220 622 c 128,-1,82
 1145 547 1145 547 1160 422 c 1,83,84
 1176 504 1176 504 1232.5 546 c 128,-1,85
 1289 588 1289 588 1371 588 c 0,86,87
 1463 588 1463 588 1514.5 535 c 128,-1,88
 1566 482 1566 482 1566 391 c 0,89,90
 1568 277 1568 277 1494 217.5 c 128,-1,91
 1420 158 1420 158 1307 160 c 0,92,93
 1180 162 1180 162 1119.5 236.5 c 128,-1,94
 1059 311 1059 311 1055 434 c 1,95,96
 1055 607 1055 607 1168 701 c 128,-1,97
 1281 795 1281 795 1457 793 c 0,98,99
 1541 793 1541 793 1609.5 772.5 c 128,-1,100
 1678 752 1678 752 1730 701 c 1,101,-1
 1730 775 l 1,102,-1
 2275 775 l 1,103,-1
 2295 775 l 1,68,-1
EndSplineSet
EndChar

StartChar: tm_e
Encoding: 2958 2958 56
Width: 1264
GlyphClass: 2
Flags: W
LayerCount: 2
Fore
SplineSet
293 236 m 0,0,1
 295 152 295 152 321.5 112 c 128,-1,2
 348 72 348 72 385 74 c 0,3,4
 426 74 426 74 447.5 119 c 128,-1,5
 469 164 469 164 471 258 c 0,6,7
 471 334 471 334 448.5 369 c 128,-1,8
 426 404 426 404 389 402 c 0,9,10
 348 398 348 398 319.5 351.5 c 128,-1,11
 291 305 291 305 293 236 c 0,0,1
1121 697 m 1,12,-1
 1121 0 l 1,13,-1
 824 0 l 1,14,-1
 824 697 l 1,15,-1
 664 697 l 2,16,17
 469 697 469 697 331 617 c 128,-1,18
 193 537 193 537 189 355 c 1,19,-1
 189 322 l 1,20,21
 207 430 207 430 289 484.5 c 128,-1,22
 371 539 371 539 482 537 c 0,23,24
 604 535 604 535 676 467.5 c 128,-1,25
 748 400 748 400 746 264 c 0,26,27
 742 131 742 131 642.5 55.5 c 128,-1,28
 543 -20 543 -20 408 -18 c 0,29,30
 229 -16 229 -16 145.5 82 c 128,-1,31
 62 180 62 180 62 344 c 0,32,33
 62 418 62 418 84.5 481.5 c 128,-1,34
 107 545 107 545 148 598 c 0,35,36
 232 699 232 699 368 740 c 128,-1,37
 504 781 504 781 660 781 c 2,38,-1
 1250 781 l 1,39,-1
 1250 697 l 1,40,-1
 1121 697 l 1,12,-1
EndSplineSet
EndChar

StartChar: tm_ee
Encoding: 2959 2959 57
Width: 1264
GlyphClass: 2
Flags: W
LayerCount: 2
Fore
SplineSet
293 236 m 0,0,1
 295 152 295 152 321.5 112 c 128,-1,2
 348 72 348 72 385 74 c 0,3,4
 426 74 426 74 447.5 119 c 128,-1,5
 469 164 469 164 471 258 c 0,6,7
 471 334 471 334 448.5 369 c 128,-1,8
 426 404 426 404 389 402 c 0,9,10
 348 398 348 398 319.5 351.5 c 128,-1,11
 291 305 291 305 293 236 c 0,0,1
1121 697 m 1,12,-1
 1121 -6 l 1,13,-1
 535 -340 l 1,14,-1
 469 -221 l 1,15,-1
 824 -14 l 1,16,-1
 824 697 l 1,17,-1
 664 697 l 2,18,19
 469 697 469 697 331 617 c 128,-1,20
 193 537 193 537 189 355 c 1,21,-1
 189 322 l 1,22,23
 207 430 207 430 289 484.5 c 128,-1,24
 371 539 371 539 482 537 c 0,25,26
 604 535 604 535 676 467.5 c 128,-1,27
 748 400 748 400 746 264 c 0,28,29
 742 131 742 131 642.5 55.5 c 128,-1,30
 543 -20 543 -20 408 -18 c 0,31,32
 229 -16 229 -16 145.5 82 c 128,-1,33
 62 180 62 180 62 344 c 0,34,35
 62 418 62 418 84.5 481.5 c 128,-1,36
 107 545 107 545 148 598 c 0,37,38
 232 699 232 699 368 740 c 128,-1,39
 504 781 504 781 660 781 c 2,40,-1
 1250 781 l 1,41,-1
 1250 697 l 1,42,-1
 1121 697 l 1,12,-1
EndSplineSet
EndChar

StartChar: tm_ai
Encoding: 2960 2960 58
Width: 1527
GlyphClass: 2
Flags: W
LayerCount: 2
Fore
SplineSet
336 299 m 0,0,1
 373 299 373 299 393.5 329 c 128,-1,2
 414 359 414 359 414 404 c 0,3,4
 416 447 416 447 394.5 478.5 c 128,-1,5
 373 510 373 510 334 508 c 0,6,7
 299 508 299 508 276.5 475.5 c 128,-1,8
 254 443 254 443 254 398 c 0,9,10
 254 357 254 357 275.5 328 c 128,-1,11
 297 299 297 299 336 299 c 0,0,1
1129 37 m 1,12,-1
 1230 39 l 2,13,14
 1330 39 1330 39 1396.5 -8 c 128,-1,15
 1463 -55 1463 -55 1463 -156 c 0,16,17
 1463 -299 1463 -299 1354.5 -344 c 128,-1,18
 1246 -389 1246 -389 1088 -389 c 0,19,20
 955 -391 955 -391 877 -359.5 c 128,-1,21
 799 -328 799 -328 768 -227 c 1,22,23
 727 -316 727 -316 644 -347.5 c 128,-1,24
 561 -379 561 -379 451 -379 c 0,25,26
 297 -379 297 -379 181.5 -308.5 c 128,-1,27
 66 -238 66 -238 66 -90 c 0,28,29
 68 47 68 47 163 100.5 c 128,-1,30
 258 154 258 154 400 154 c 2,31,-1
 1029 154 l 2,32,33
 1104 154 1104 154 1137 189.5 c 128,-1,34
 1170 225 1170 225 1170 281 c 2,35,-1
 1170 477 l 2,36,37
 1170 592 1170 592 1143.5 632 c 128,-1,38
 1117 672 1117 672 1062 672 c 1,39,40
 1010 668 1010 668 977.5 621 c 128,-1,41
 945 574 945 574 945 490 c 2,42,-1
 945 217 l 1,43,-1
 646 217 l 1,44,-1
 646 465 l 2,45,46
 646 588 646 588 611 643.5 c 128,-1,47
 576 699 576 699 457 701 c 0,48,49
 334 701 334 701 247 645.5 c 128,-1,50
 160 590 160 590 160 477 c 0,51,52
 160 455 160 455 165 433.5 c 128,-1,53
 170 412 170 412 178 396 c 1,54,55
 168 480 168 480 225.5 542.5 c 128,-1,56
 283 605 283 605 377 604 c 0,57,58
 457 604 457 604 511.5 549 c 128,-1,59
 566 494 566 494 566 412 c 0,60,61
 564 314 564 314 496 261.5 c 128,-1,62
 428 209 428 209 328 209 c 0,63,64
 205 209 205 209 130 273.5 c 128,-1,65
 55 338 55 338 59 467 c 0,66,67
 61 623 61 623 186 705 c 128,-1,68
 311 787 311 787 500 783 c 0,69,70
 617 779 617 779 708 740 c 128,-1,71
 799 701 799 701 850 625 c 1,72,73
 889 705 889 705 970 737.5 c 128,-1,74
 1051 770 1051 770 1160 766 c 0,75,76
 1301 762 1301 762 1383 671 c 128,-1,77
 1465 580 1465 580 1469 439 c 1,78,79
 1469 238 1469 238 1352.5 154 c 128,-1,80
 1236 70 1236 70 1029 70 c 2,81,-1
 623 70 l 2,82,83
 479 70 479 70 417 47.5 c 128,-1,84
 355 25 355 25 355 -80 c 2,85,-1
 355 -139 l 2,86,87
 355 -211 355 -211 394.5 -248 c 128,-1,88
 434 -285 434 -285 492 -285 c 0,89,90
 555 -285 555 -285 600 -248 c 128,-1,91
 645 -211 645 -211 645 -135 c 2,92,-1
 645 6 l 1,93,-1
 939 6 l 1,94,-1
 939 -146 l 2,95,96
 939 -242 939 -242 967.5 -270.5 c 128,-1,97
 996 -299 996 -299 1078 -303 c 0,98,99
 1146 -305 1146 -305 1182.5 -271.5 c 128,-1,100
 1219 -238 1219 -238 1219 -162 c 2,101,-1
 1219 -125 l 2,102,103
 1219 -121 1219 -121 1219 -82 c 128,-1,104
 1219 -43 1219 -43 1166 -43 c 2,105,-1
 1129 -43 l 1,106,-1
 1129 37 l 1,12,-1
EndSplineSet
EndChar

StartChar: tm_o
Encoding: 2962 2962 59
Width: 1533
GlyphClass: 2
Flags: W
LayerCount: 2
Fore
SplineSet
295 193 m 0,0,1
 297 111 297 111 322.5 70 c 128,-1,2
 348 29 348 29 387 31 c 0,3,4
 426 31 426 31 448.5 76 c 128,-1,5
 471 121 471 121 473 217 c 0,6,7
 473 293 473 293 449.5 328 c 128,-1,8
 426 363 426 363 389 359 c 0,9,10
 348 357 348 357 320.5 310.5 c 128,-1,11
 293 264 293 264 295 193 c 0,0,1
1326 -201 m 1,12,-1
 1236 -201 l 2,13,14
 1168 -201 1168 -201 1121 -271.5 c 128,-1,15
 1074 -342 1074 -342 1064 -355 c 0,16,17
 1010 -424 1010 -424 918 -448.5 c 128,-1,18
 826 -473 826 -473 707 -473 c 0,19,20
 523 -471 523 -471 413 -432 c 128,-1,21
 303 -393 303 -393 307 -244 c 1,22,-1
 307 -125 l 1,23,-1
 584 -125 l 1,24,-1
 584 -277 l 2,25,26
 584 -334 584 -334 621 -356.5 c 128,-1,27
 658 -379 658 -379 717 -375 c 0,28,29
 775 -375 775 -375 810.5 -359.5 c 128,-1,30
 846 -344 846 -344 875 -299 c 0,31,32
 902 -256 902 -256 939.5 -230.5 c 128,-1,33
 977 -205 977 -205 1061 -203 c 1,34,35
 926 -178 926 -178 864.5 -75.5 c 128,-1,36
 803 27 803 27 805 178 c 0,37,38
 805 285 805 285 864.5 369 c 128,-1,39
 924 453 924 453 1027 477 c 1,40,-1
 1066 385 l 1,41,42
 1002 373 1002 373 971.5 334 c 128,-1,43
 941 295 941 295 943 227 c 0,44,45
 943 174 943 174 976.5 143.5 c 128,-1,46
 1010 113 1010 113 1059 109 c 0,47,48
 1131 105 1131 105 1155.5 156 c 128,-1,49
 1180 207 1180 207 1182 291 c 0,50,51
 1193 486 1193 486 1056.5 579 c 128,-1,52
 920 672 920 672 687 676 c 0,53,54
 488 678 488 678 340.5 589 c 128,-1,55
 193 500 193 500 187 314 c 0,56,57
 187 303 187 303 188 295 c 128,-1,58
 189 287 189 287 191 279 c 1,59,60
 209 387 209 387 291 442.5 c 128,-1,61
 373 498 373 498 484 494 c 0,62,63
 604 492 604 492 677 425.5 c 128,-1,64
 750 359 750 359 748 223 c 0,65,66
 744 88 744 88 638.5 13.5 c 128,-1,67
 533 -61 533 -61 395 -61 c 0,68,69
 240 -61 240 -61 149.5 33 c 128,-1,70
 59 127 59 127 62 287 c 0,71,72
 68 562 68 562 277 675.5 c 128,-1,73
 486 789 486 789 785 781 c 0,74,75
 1053 775 1053 775 1264 663 c 128,-1,76
 1475 551 1475 551 1475 303 c 1,77,78
 1479 148 1479 148 1382 52.5 c 128,-1,79
 1285 -43 1285 -43 1121 -43 c 0,80,81
 1068 -43 1068 -43 1030 -34 c 128,-1,82
 992 -25 992 -25 951 4 c 1,83,84
 979 -78 979 -78 1033.5 -97.5 c 128,-1,85
 1088 -117 1088 -117 1195 -117 c 2,86,-1
 1326 -117 l 1,87,-1
 1326 -201 l 1,12,-1
EndSplineSet
EndChar

StartChar: tm_oo
Encoding: 2963 2963 60
Width: 1537
GlyphClass: 2
Flags: W
LayerCount: 2
Fore
SplineSet
295 193 m 0,0,1
 297 111 297 111 322.5 70 c 128,-1,2
 348 29 348 29 387 31 c 0,3,4
 426 31 426 31 449.5 77 c 128,-1,5
 473 123 473 123 473 217 c 0,6,7
 473 293 473 293 449.5 328 c 128,-1,8
 426 363 426 363 389 359 c 0,9,10
 348 357 348 357 320.5 310.5 c 128,-1,11
 293 264 293 264 295 193 c 0,0,1
527 -105 m 0,12,13
 588 -105 588 -105 647.5 -114 c 128,-1,14
 707 -123 707 -123 764 -143 c 1,15,-1
 730 -229 l 1,16,17
 703 -217 703 -217 676.5 -212 c 128,-1,18
 650 -207 650 -207 627 -207 c 0,19,20
 590 -209 590 -209 573.5 -230.5 c 128,-1,21
 557 -252 557 -252 553 -301 c 1,22,23
 553 -357 553 -357 583 -380.5 c 128,-1,24
 613 -404 613 -404 674 -404 c 0,25,26
 748 -404 748 -404 792 -381.5 c 128,-1,27
 836 -359 836 -359 875 -299 c 0,28,29
 906 -254 906 -254 942.5 -229.5 c 128,-1,30
 979 -205 979 -205 1064 -203 c 1,31,32
 928 -178 928 -178 867.5 -76.5 c 128,-1,33
 807 25 807 25 807 178 c 0,34,35
 807 285 807 285 865.5 369 c 128,-1,36
 924 453 924 453 1027 477 c 1,37,-1
 1066 385 l 1,38,39
 1002 373 1002 373 972.5 334 c 128,-1,40
 943 295 943 295 943 227 c 0,41,42
 945 174 945 174 977.5 143.5 c 128,-1,43
 1010 113 1010 113 1059 109 c 0,44,45
 1131 105 1131 105 1155.5 156 c 128,-1,46
 1180 207 1180 207 1182 291 c 0,47,48
 1193 486 1193 486 1056.5 579 c 128,-1,49
 920 672 920 672 687 676 c 0,50,51
 490 678 490 678 343.5 589 c 128,-1,52
 197 500 197 500 191 314 c 0,53,54
 189 307 189 307 190 295 c 128,-1,55
 191 283 191 283 191 279 c 1,56,57
 209 387 209 387 291 442.5 c 128,-1,58
 373 498 373 498 484 494 c 0,59,60
 604 492 604 492 677 425.5 c 128,-1,61
 750 359 750 359 748 223 c 0,62,63
 744 86 744 86 638.5 12.5 c 128,-1,64
 533 -61 533 -61 395 -61 c 0,65,66
 240 -61 240 -61 149.5 33 c 128,-1,67
 59 127 59 127 62 287 c 0,68,69
 70 562 70 562 279 675.5 c 128,-1,70
 488 789 488 789 785 781 c 0,71,72
 1053 775 1053 775 1265 663 c 128,-1,73
 1477 551 1477 551 1479 303 c 0,74,75
 1479 148 1479 148 1381 52.5 c 128,-1,76
 1283 -43 1283 -43 1121 -43 c 0,77,78
 1068 -43 1068 -43 1030 -34 c 128,-1,79
 992 -25 992 -25 953 4 c 1,80,81
 979 -78 979 -78 1033.5 -97.5 c 128,-1,82
 1088 -117 1088 -117 1197 -117 c 2,83,-1
 1326 -117 l 1,84,-1
 1326 -201 l 1,85,-1
 1258 -201 l 2,86,87
 1207 -201 1207 -201 1165 -236 c 128,-1,88
 1123 -271 1123 -271 1082 -330 c 0,89,90
 1012 -428 1012 -428 898.5 -465 c 128,-1,91
 785 -502 785 -502 645 -502 c 0,92,93
 492 -500 492 -500 381.5 -460 c 128,-1,94
 271 -420 271 -420 271 -299 c 0,95,96
 271 -205 271 -205 350.5 -155 c 128,-1,97
 430 -105 430 -105 527 -105 c 0,12,13
EndSplineSet
EndChar

StartChar: tm_ka
Encoding: 2965 2965 62
Width: 1273
GlyphClass: 2
Flags: W
LayerCount: 2
Fore
SplineSet
512 414 m 1,0,-1
 363 414 l 2,1,2
 266 414 266 414 216 376 c 128,-1,3
 166 338 166 338 168 264 c 0,4,5
 168 189 168 189 217 146.5 c 128,-1,6
 266 104 266 104 344 104 c 0,7,8
 424 104 424 104 468 150.5 c 128,-1,9
 512 197 512 197 512 293 c 2,10,-1
 512 414 l 1,0,-1
809 414 m 1,11,-1
 809 305 l 2,12,13
 809 125 809 125 694.5 58.5 c 128,-1,14
 580 -8 580 -8 387 -8 c 0,15,16
 225 -8 225 -8 135 56.5 c 128,-1,17
 45 121 45 121 45 250 c 0,18,19
 45 344 45 344 102.5 408.5 c 128,-1,20
 160 473 160 473 252 488 c 1,21,-1
 252 781 l 1,22,-1
 1047 781 l 1,23,-1
 1047 697 l 1,24,-1
 809 697 l 1,25,-1
 809 496 l 1,26,-1
 914 496 l 2,27,28
 1068 496 1068 496 1147.5 441.5 c 128,-1,29
 1227 387 1227 387 1225 244 c 0,30,31
 1221 105 1221 105 1130 43.5 c 128,-1,32
 1039 -18 1039 -18 912 -18 c 0,33,34
 861 -18 861 -18 814.5 -9 c 128,-1,35
 768 0 768 0 730 14 c 1,36,-1
 768 98 l 1,37,38
 787 88 787 88 807.5 84 c 128,-1,39
 828 80 828 80 846 80 c 0,40,41
 900 78 900 78 921.5 120 c 128,-1,42
 943 162 943 162 943 236 c 2,43,-1
 943 287 l 2,44,45
 943 354 943 354 920.5 384 c 128,-1,46
 898 414 898 414 844 414 c 2,47,-1
 809 414 l 1,11,-1
512 697 m 1,48,-1
 387 697 l 1,49,-1
 387 496 l 1,50,-1
 512 496 l 1,51,-1
 512 697 l 1,48,-1
EndSplineSet
EndChar

StartChar: tm_nga
Encoding: 2969 2969 63
Width: 1615
GlyphClass: 2
Flags: W
LayerCount: 2
Fore
SplineSet
826 207 m 2,0,-1
 826 328 l 2,1,2
 826 375 826 375 806.5 394.5 c 128,-1,3
 787 414 787 414 752 414 c 0,4,5
 713 412 713 412 694.5 393.5 c 128,-1,6
 676 375 676 375 676 344 c 2,7,-1
 676 189 l 1,8,-1
 381 189 l 1,9,-1
 381 697 l 1,10,-1
 252 697 l 1,11,-1
 252 2 l 1,12,-1
 117 2 l 1,13,-1
 117 781 l 1,14,-1
 906 781 l 1,15,-1
 906 697 l 1,16,-1
 676 697 l 1,17,-1
 676 490 l 1,18,19
 715 508 715 508 755 518.5 c 128,-1,20
 795 529 795 529 834 529 c 0,21,22
 945 529 945 529 1023.5 464.5 c 128,-1,23
 1102 400 1102 400 1102 281 c 0,24,25
 1102 225 1102 225 1083 172 c 128,-1,26
 1064 119 1064 119 1023 86 c 1,27,-1
 1201 86 l 1,28,-1
 1201 781 l 1,29,-1
 1498 781 l 1,30,-1
 1498 2 l 1,31,-1
 381 2 l 1,32,-1
 381 86 l 1,33,-1
 709 86 l 2,34,35
 773 86 773 86 799.5 111.5 c 128,-1,36
 826 137 826 137 826 207 c 2,0,-1
EndSplineSet
EndChar

StartChar: tm_ca
Encoding: 2970 2970 64
Width: 1070
GlyphClass: 2
Flags: W
LayerCount: 2
Fore
SplineSet
514 414 m 1,0,-1
 361 414 l 2,1,2
 268 414 268 414 217 376 c 128,-1,3
 166 338 166 338 166 264 c 0,4,5
 166 191 166 191 217 147.5 c 128,-1,6
 268 104 268 104 344 104 c 0,7,8
 426 104 426 104 470 150.5 c 128,-1,9
 514 197 514 197 514 293 c 2,10,-1
 514 414 l 1,0,-1
811 414 m 1,11,-1
 811 305 l 2,12,13
 811 125 811 125 695.5 58.5 c 128,-1,14
 580 -8 580 -8 385 -8 c 0,15,16
 225 -8 225 -8 135 56.5 c 128,-1,17
 45 121 45 121 45 250 c 0,18,19
 43 344 43 344 102.5 408.5 c 128,-1,20
 162 473 162 473 252 488 c 1,21,-1
 252 781 l 1,22,-1
 1049 781 l 1,23,-1
 1049 697 l 1,24,-1
 811 697 l 1,25,-1
 811 496 l 1,26,-1
 1018 496 l 1,27,-1
 1018 414 l 1,28,-1
 811 414 l 1,11,-1
514 697 m 1,29,-1
 387 697 l 1,30,-1
 387 496 l 1,31,-1
 514 496 l 1,32,-1
 514 697 l 1,29,-1
EndSplineSet
EndChar

StartChar: tm_ja
Encoding: 2972 2972 65
Width: 1525
GlyphClass: 2
Flags: W
LayerCount: 2
Fore
SplineSet
1184 -176 m 0,0,1
 1184 -127 1184 -127 1156.5 -102.5 c 128,-1,2
 1129 -78 1129 -78 1090 -82 c 1,3,4
 1039 -82 1039 -82 1009.5 -111.5 c 128,-1,5
 980 -141 980 -141 980 -191 c 0,6,7
 980 -240 980 -240 1008.5 -267.5 c 128,-1,8
 1037 -295 1037 -295 1076 -295 c 0,9,10
 1123 -295 1123 -295 1152.5 -261 c 128,-1,11
 1182 -227 1182 -227 1184 -176 c 0,0,1
338 301 m 0,12,13
 375 301 375 301 394.5 332 c 128,-1,14
 414 363 414 363 414 406 c 0,15,16
 414 451 414 451 393.5 481.5 c 128,-1,17
 373 512 373 512 334 510 c 0,18,19
 297 510 297 510 275.5 478.5 c 128,-1,20
 254 447 254 447 254 400 c 0,21,22
 254 359 254 359 275.5 330 c 128,-1,23
 297 301 297 301 338 301 c 0,12,13
418 -393 m 0,24,25
 270 -387 270 -387 168 -312.5 c 128,-1,26
 66 -238 66 -238 66 -88 c 0,27,28
 68 49 68 49 163 102.5 c 128,-1,29
 258 156 258 156 400 156 c 2,30,-1
 1027 156 l 2,31,32
 1105 156 1105 156 1137.5 191.5 c 128,-1,33
 1170 227 1170 227 1170 283 c 2,34,-1
 1170 479 l 2,35,36
 1170 594 1170 594 1142.5 634 c 128,-1,37
 1115 674 1115 674 1061 674 c 1,38,39
 1008 670 1008 670 975.5 624 c 128,-1,40
 943 578 943 578 943 492 c 2,41,-1
 943 221 l 1,42,-1
 646 221 l 1,43,-1
 646 467 l 2,44,45
 646 590 646 590 610 645.5 c 128,-1,46
 574 701 574 701 457 703 c 0,47,48
 336 703 336 703 249 647.5 c 128,-1,49
 162 592 162 592 162 479 c 0,50,51
 162 457 162 457 167 435.5 c 128,-1,52
 172 414 172 414 180 398 c 1,53,54
 168 482 168 482 225.5 544.5 c 128,-1,55
 283 607 283 607 377 605 c 0,56,57
 457 605 457 605 511.5 550.5 c 128,-1,58
 566 496 566 496 564 416 c 0,59,60
 564 318 564 318 496 264.5 c 128,-1,61
 428 211 428 211 328 211 c 0,62,63
 207 211 207 211 133 274.5 c 128,-1,64
 59 338 59 338 59 469 c 0,65,66
 57 625 57 625 183 707 c 128,-1,67
 309 789 309 789 498 785 c 0,68,69
 617 781 617 781 709 742 c 128,-1,70
 801 703 801 703 852 627 c 1,71,72
 891 707 891 707 972 739 c 128,-1,73
 1053 771 1053 771 1162 768 c 0,74,75
 1303 764 1303 764 1385 673 c 128,-1,76
 1467 582 1467 582 1467 441 c 0,77,78
 1469 240 1469 240 1350.5 157 c 128,-1,79
 1232 74 1232 74 1027 74 c 2,80,-1
 621 74 l 2,81,82
 479 74 479 74 418 50.5 c 128,-1,83
 357 27 357 27 357 -78 c 2,84,-1
 357 -150 l 2,85,86
 357 -221 357 -221 395.5 -258 c 128,-1,87
 434 -295 434 -295 492 -297 c 0,88,89
 590 -297 590 -297 632 -215 c 128,-1,90
 674 -133 674 -133 687 -113 c 0,91,92
 744 -31 744 -31 858.5 -5 c 128,-1,93
 973 21 973 21 1119 21 c 0,94,95
 1264 21 1264 21 1365.5 -18 c 128,-1,96
 1467 -57 1467 -57 1463 -182 c 0,97,98
 1461 -295 1461 -295 1378 -346.5 c 128,-1,99
 1295 -398 1295 -398 1162 -404 c 0,100,101
 1021 -408 1021 -408 941 -361 c 128,-1,102
 861 -314 861 -314 859 -199 c 0,103,104
 859 -174 859 -174 868 -145.5 c 128,-1,105
 877 -117 877 -117 891 -94 c 1,106,107
 840 -100 840 -100 805 -143 c 128,-1,108
 770 -186 770 -186 736 -260 c 0,109,110
 699 -342 699 -342 612 -370 c 128,-1,111
 525 -398 525 -398 418 -393 c 0,24,25
EndSplineSet
EndChar

StartChar: tm_nya
Encoding: 2974 2974 66
Width: 1857
GlyphClass: 2
Flags: W
LayerCount: 2
Fore
SplineSet
547 232 m 0,0,1
 549 148 549 148 576.5 108 c 128,-1,2
 604 68 604 68 643 72 c 0,3,4
 682 72 682 72 703.5 117 c 128,-1,5
 725 162 725 162 725 256 c 0,6,7
 725 330 725 330 702.5 366 c 128,-1,8
 680 402 680 402 643 398 c 0,9,10
 602 396 602 396 574.5 350.5 c 128,-1,11
 547 305 547 305 547 232 c 0,0,1
1375 422 m 1,12,13
 1416 439 1416 439 1460 449 c 128,-1,14
 1504 459 1504 459 1545 457 c 0,15,16
 1662 457 1662 457 1733.5 387.5 c 128,-1,17
 1805 318 1805 318 1805 182 c 0,18,19
 1807 -168 1807 -168 1545 -301 c 128,-1,20
 1283 -434 1283 -434 900 -426 c 0,21,22
 502 -416 502 -416 288 -257 c 128,-1,23
 74 -98 74 -98 76 273 c 0,24,25
 76 424 76 424 143.5 564.5 c 128,-1,26
 211 705 211 705 334 793 c 1,27,-1
 383 744 l 1,28,29
 283 666 283 666 241 543 c 128,-1,30
 199 420 199 420 199 270 c 0,31,32
 197 -53 197 -53 380.5 -191.5 c 128,-1,33
 564 -330 564 -330 916 -330 c 0,34,35
 1193 -328 1193 -328 1361 -228.5 c 128,-1,36
 1529 -129 1529 -129 1529 115 c 2,37,-1
 1529 244 l 2,38,39
 1531 295 1531 295 1508.5 321.5 c 128,-1,40
 1486 348 1486 348 1453 348 c 0,41,42
 1424 348 1424 348 1401.5 329.5 c 128,-1,43
 1379 311 1379 311 1375 279 c 1,44,-1
 1375 0 l 1,45,-1
 1078 0 l 1,46,-1
 1078 695 l 1,47,-1
 920 695 l 2,48,49
 725 695 725 695 587 615 c 128,-1,50
 449 535 449 535 443 354 c 1,51,-1
 443 318 l 1,52,53
 463 426 463 426 544 481.5 c 128,-1,54
 625 537 625 537 736 535 c 0,55,56
 857 531 857 531 931.5 464.5 c 128,-1,57
 1006 398 1006 398 1002 262 c 0,58,59
 998 127 998 127 898.5 52 c 128,-1,60
 799 -23 799 -23 662 -20 c 0,61,62
 482 -18 482 -18 401 80 c 128,-1,63
 320 178 320 178 320 342 c 0,64,65
 320 418 320 418 341.5 481.5 c 128,-1,66
 363 545 363 545 404 594 c 0,67,68
 488 695 488 695 624 737 c 128,-1,69
 760 779 760 779 916 779 c 2,70,-1
 1547 779 l 1,71,-1
 1547 695 l 1,72,-1
 1375 695 l 1,73,-1
 1375 422 l 1,12,13
EndSplineSet
EndChar

StartChar: tm_tta
Encoding: 2975 2975 67
Width: 1193
GlyphClass: 2
Flags: W
LayerCount: 2
Fore
SplineSet
412 781 m 1,0,-1
 412 86 l 1,1,-1
 1180 86 l 1,2,-1
 1180 2 l 1,3,-1
 117 2 l 1,4,-1
 117 781 l 1,5,-1
 412 781 l 1,0,-1
EndSplineSet
EndChar

StartChar: tm_nna
Encoding: 2979 2979 68
Width: 2402
GlyphClass: 2
Flags: W
LayerCount: 2
Fore
SplineSet
287 230 m 0,0,1
 291 148 291 148 316.5 108 c 128,-1,2
 342 68 342 68 379 66 c 0,3,4
 434 66 434 66 449.5 124 c 128,-1,5
 465 182 465 182 465 250 c 0,6,7
 465 324 465 324 443.5 360 c 128,-1,8
 422 396 422 396 387 396 c 0,9,10
 336 396 336 396 311.5 341.5 c 128,-1,11
 287 287 287 287 287 230 c 0,0,1
2229 697 m 1,12,-1
 2229 2 l 1,13,-1
 1934 2 l 1,14,-1
 1934 697 l 1,15,-1
 1861 697 l 2,16,17
 1799 697 1799 697 1739.5 686.5 c 128,-1,18
 1680 676 1680 676 1643 658 c 1,19,20
 1732 590 1732 590 1785 502 c 128,-1,21
 1838 414 1838 414 1838 311 c 0,22,23
 1836 164 1836 164 1742 69.5 c 128,-1,24
 1648 -25 1648 -25 1502 -25 c 0,25,26
 1402 -25 1402 -25 1333 34.5 c 128,-1,27
 1264 94 1264 94 1238 189 c 1,28,29
 1205 90 1205 90 1121 32.5 c 128,-1,30
 1037 -25 1037 -25 922 -25 c 0,31,32
 848 -25 848 -25 791 8 c 128,-1,33
 734 41 734 41 697 100 c 1,34,35
 652 35 652 35 575 0 c 128,-1,36
 498 -35 498 -35 410 -35 c 0,37,38
 240 -35 240 -35 151 61.5 c 128,-1,39
 62 158 62 158 62 328 c 0,40,41
 62 553 62 553 230 671 c 128,-1,42
 398 789 398 789 629 789 c 0,43,44
 717 789 717 789 804 773.5 c 128,-1,45
 891 758 891 758 961 725 c 1,46,47
 1029 758 1029 758 1101.5 775.5 c 128,-1,48
 1174 793 1174 793 1250 793 c 0,49,50
 1324 793 1324 793 1397.5 775.5 c 128,-1,51
 1471 758 1471 758 1539 725 c 1,52,53
 1611 758 1611 758 1687.5 769.5 c 128,-1,54
 1764 781 1764 781 1861 781 c 2,55,-1
 2389 781 l 1,56,-1
 2389 697 l 1,57,-1
 2229 697 l 1,12,-1
1398 633 m 1,58,59
 1357 662 1357 662 1309.5 676.5 c 128,-1,60
 1262 691 1262 691 1211 695 c 0,61,62
 1172 695 1172 695 1134 686.5 c 128,-1,63
 1096 678 1096 678 1062 658 c 1,64,65
 1137 604 1137 604 1183 539.5 c 128,-1,66
 1229 475 1229 475 1246 404 c 1,67,68
 1264 469 1264 469 1303 525.5 c 128,-1,69
 1342 582 1342 582 1398 633 c 1,58,59
680 445 m 1,70,71
 703 498 703 498 740 546 c 128,-1,72
 777 594 777 594 818 633 c 1,73,74
 766 664 766 664 708 677.5 c 128,-1,75
 650 691 650 691 586 691 c 0,76,77
 428 691 428 691 308.5 595.5 c 128,-1,78
 189 500 189 500 186 340 c 2,79,-1
 186 305 l 1,80,81
 199 406 199 406 276.5 467.5 c 128,-1,82
 354 529 354 529 459 529 c 0,83,84
 523 529 523 529 582 508.5 c 128,-1,85
 641 488 641 488 680 445 c 1,70,71
891 572 m 1,86,87
 826 510 826 510 794 435.5 c 128,-1,88
 762 361 762 361 762 275 c 0,89,90
 762 213 762 213 788 159 c 128,-1,91
 814 105 814 105 873 105 c 0,92,93
 939 107 939 107 969.5 168 c 128,-1,94
 1000 229 1000 229 1000 301 c 0,95,96
 1000 381 1000 381 972.5 450.5 c 128,-1,97
 945 520 945 520 891 572 c 1,86,87
1471 572 m 1,98,99
 1406 510 1406 510 1374 435.5 c 128,-1,100
 1342 361 1342 361 1342 275 c 0,101,102
 1342 211 1342 211 1366.5 158 c 128,-1,103
 1391 105 1391 105 1449 105 c 0,104,105
 1518 107 1518 107 1547 168 c 128,-1,106
 1576 229 1576 229 1576 301 c 0,107,108
 1576 381 1576 381 1550.5 450.5 c 128,-1,109
 1525 520 1525 520 1471 572 c 1,98,99
EndSplineSet
EndChar

StartChar: tm_ta
Encoding: 2980 2980 69
Width: 1270
GlyphClass: 2
Flags: W
LayerCount: 2
Fore
SplineSet
514 414 m 1,0,-1
 361 414 l 2,1,2
 266 414 266 414 216 377 c 128,-1,3
 166 340 166 340 166 264 c 0,4,5
 166 189 166 189 216 146.5 c 128,-1,6
 266 104 266 104 344 104 c 0,7,8
 424 104 424 104 469 151.5 c 128,-1,9
 514 199 514 199 514 293 c 2,10,-1
 514 414 l 1,0,-1
809 414 m 1,11,-1
 809 305 l 2,12,13
 809 125 809 125 694.5 58.5 c 128,-1,14
 580 -8 580 -8 387 -8 c 0,15,16
 225 -8 225 -8 135 56.5 c 128,-1,17
 45 121 45 121 45 250 c 0,18,19
 45 344 45 344 103.5 408.5 c 128,-1,20
 162 473 162 473 252 488 c 1,21,-1
 252 781 l 1,22,-1
 1047 781 l 1,23,-1
 1047 697 l 1,24,-1
 809 697 l 1,25,-1
 809 496 l 1,26,-1
 916 496 l 2,27,28
 1057 496 1057 496 1138 429.5 c 128,-1,29
 1219 363 1219 363 1217 238 c 0,30,31
 1215 14 1215 14 1065.5 -70 c 128,-1,32
 916 -154 916 -154 676 -154 c 2,33,-1
 434 -154 l 2,34,35
 348 -154 348 -154 317.5 -185.5 c 128,-1,36
 287 -217 287 -217 287 -293 c 2,37,-1
 287 -340 l 1,38,-1
 -8 -340 l 1,39,-1
 -8 -273 l 2,40,41
 -8 -166 -8 -166 57.5 -119 c 128,-1,42
 123 -72 123 -72 256 -72 c 2,43,-1
 666 -72 l 2,44,45
 809 -72 809 -72 876 -4 c 128,-1,46
 943 64 943 64 943 160 c 2,47,-1
 943 287 l 2,48,49
 943 354 943 354 919.5 384 c 128,-1,50
 896 414 896 414 840 414 c 2,51,-1
 809 414 l 1,11,-1
514 697 m 1,52,-1
 387 697 l 1,53,-1
 387 496 l 1,54,-1
 514 496 l 1,55,-1
 514 697 l 1,52,-1
EndSplineSet
EndChar

StartChar: tm_na
Encoding: 2984 2984 70
Width: 1160
GlyphClass: 2
Flags: W
LayerCount: 2
Fore
SplineSet
676 697 m 1,0,-1
 676 475 l 1,1,2
 711 490 711 490 750 498 c 128,-1,3
 789 506 789 506 830 506 c 0,4,5
 961 508 961 508 1035 425 c 128,-1,6
 1109 342 1109 342 1105 209 c 0,7,8
 1102 -8 1102 -8 968 -81 c 128,-1,9
 834 -154 834 -154 598 -154 c 2,10,-1
 430 -154 l 2,11,12
 346 -154 346 -154 324.5 -179.5 c 128,-1,13
 303 -205 303 -205 303 -279 c 2,14,-1
 303 -340 l 1,15,-1
 6 -340 l 1,16,-1
 6 -273 l 2,17,18
 6 -164 6 -164 60.5 -118 c 128,-1,19
 115 -72 115 -72 246 -72 c 2,20,-1
 555 -72 l 2,21,22
 701 -72 701 -72 765.5 -22.5 c 128,-1,23
 830 27 830 27 830 127 c 2,24,-1
 830 307 l 2,25,26
 830 357 830 357 812.5 382.5 c 128,-1,27
 795 408 795 408 752 408 c 0,28,29
 713 408 713 408 694.5 381 c 128,-1,30
 676 354 676 354 676 311 c 2,31,-1
 676 2 l 1,32,-1
 379 2 l 1,33,-1
 379 697 l 1,34,-1
 250 697 l 1,35,-1
 250 2 l 1,36,-1
 117 2 l 1,37,-1
 117 781 l 1,38,-1
 939 781 l 1,39,-1
 939 697 l 1,40,-1
 676 697 l 1,0,-1
EndSplineSet
EndChar

StartChar: tm_nnna
Encoding: 2985 2985 71
Width: 1826
GlyphClass: 2
Flags: W
LayerCount: 2
Fore
SplineSet
289 230 m 0,0,1
 291 148 291 148 316.5 107 c 128,-1,2
 342 66 342 66 379 66 c 0,3,4
 434 66 434 66 449.5 124 c 128,-1,5
 465 182 465 182 465 250 c 0,6,7
 465 324 465 324 443.5 360 c 128,-1,8
 422 396 422 396 387 396 c 0,9,10
 336 395 336 395 311.5 340 c 128,-1,11
 287 285 287 285 289 230 c 0,0,1
684 445 m 1,12,13
 707 498 707 498 742 547 c 128,-1,14
 777 596 777 596 820 633 c 1,15,16
 768 664 768 664 709 677.5 c 128,-1,17
 650 691 650 691 586 691 c 0,18,19
 428 691 428 691 308.5 595.5 c 128,-1,20
 189 500 189 500 186 340 c 2,21,-1
 186 305 l 1,22,23
 199 406 199 406 276.5 467.5 c 128,-1,24
 354 529 354 529 459 529 c 0,25,26
 523 529 523 529 583 508.5 c 128,-1,27
 643 488 643 488 684 445 c 1,12,13
891 572 m 1,28,29
 828 510 828 510 796 435.5 c 128,-1,30
 764 361 764 361 764 275 c 0,31,32
 764 211 764 211 789 158 c 128,-1,33
 814 105 814 105 873 105 c 0,34,35
 939 107 939 107 969.5 168 c 128,-1,36
 1000 229 1000 229 1000 301 c 0,37,38
 1000 381 1000 381 972.5 450.5 c 128,-1,39
 945 520 945 520 891 572 c 1,28,29
1650 697 m 1,40,-1
 1650 2 l 1,41,-1
 1352 2 l 1,42,-1
 1352 697 l 1,43,-1
 1283 697 l 2,44,45
 1221 697 1221 697 1160.5 686.5 c 128,-1,46
 1100 676 1100 676 1062 658 c 1,47,48
 1162 584 1162 584 1210 495 c 128,-1,49
 1258 406 1258 406 1258 311 c 0,50,51
 1258 164 1258 164 1164 68.5 c 128,-1,52
 1070 -27 1070 -27 924 -25 c 0,53,54
 850 -25 850 -25 793 8 c 128,-1,55
 736 41 736 41 697 100 c 1,56,57
 652 35 652 35 575 0 c 128,-1,58
 498 -35 498 -35 410 -35 c 0,59,60
 240 -35 240 -35 151 61.5 c 128,-1,61
 62 158 62 158 62 328 c 0,62,63
 62 553 62 553 230 671 c 128,-1,64
 398 789 398 789 629 789 c 0,65,66
 717 789 717 789 804 773.5 c 128,-1,67
 891 758 891 758 961 725 c 1,68,69
 1041 762 1041 762 1110.5 771.5 c 128,-1,70
 1180 781 1180 781 1283 781 c 2,71,-1
 1812 781 l 1,72,-1
 1812 697 l 1,73,-1
 1650 697 l 1,40,-1
EndSplineSet
EndChar

StartChar: tm_pa
Encoding: 2986 2986 72
Width: 1361
GlyphClass: 2
Flags: W
LayerCount: 2
Fore
SplineSet
1244 781 m 1,0,-1
 1244 2 l 1,1,-1
 117 2 l 1,2,-1
 117 781 l 1,3,-1
 414 781 l 1,4,-1
 414 86 l 1,5,-1
 947 86 l 1,6,-1
 947 781 l 1,7,-1
 1244 781 l 1,0,-1
EndSplineSet
EndChar

StartChar: tm_ma
Encoding: 2990 2990 73
Width: 1322
GlyphClass: 2
Flags: W
LayerCount: 2
Fore
SplineSet
412 781 m 1,0,-1
 412 86 l 1,1,-1
 586 86 l 1,2,-1
 586 555 l 2,3,4
 586 680 586 680 656.5 736.5 c 128,-1,5
 727 793 727 793 857 793 c 0,6,7
 1045 791 1045 791 1151.5 676.5 c 128,-1,8
 1258 562 1258 562 1258 383 c 0,9,10
 1258 193 1258 193 1149.5 96.5 c 128,-1,11
 1041 0 1041 0 848 2 c 2,12,-1
 117 2 l 1,13,-1
 117 781 l 1,14,-1
 412 781 l 1,0,-1
881 86 m 1,15,16
 1014 94 1014 94 1074.5 182 c 128,-1,17
 1135 270 1135 270 1135 408 c 0,18,19
 1135 506 1135 506 1092 591 c 128,-1,20
 1049 676 1049 676 961 676 c 0,21,22
 916 678 916 678 898.5 646.5 c 128,-1,23
 881 615 881 615 881 566 c 2,24,-1
 881 86 l 1,15,16
EndSplineSet
EndChar

StartChar: tm_ya
Encoding: 2991 2991 74
Width: 1473
GlyphClass: 2
Flags: W
LayerCount: 2
Fore
SplineSet
1355 781 m 1,0,-1
 1355 2 l 1,1,-1
 469 2 l 1,2,-1
 469 135 l 1,3,4
 426 68 426 68 380 30 c 128,-1,5
 334 -8 334 -8 270 -8 c 0,6,7
 174 -8 174 -8 142.5 49.5 c 128,-1,8
 111 107 111 107 111 176 c 2,9,-1
 111 781 l 1,10,-1
 248 781 l 1,11,-1
 248 176 l 2,12,13
 248 141 248 141 256 115.5 c 128,-1,14
 264 90 264 90 291 90 c 0,15,16
 322 86 322 86 368 137.5 c 128,-1,17
 414 189 414 189 469 305 c 1,18,-1
 469 781 l 1,19,-1
 764 781 l 1,20,-1
 764 86 l 1,21,-1
 1061 86 l 1,22,-1
 1061 781 l 1,23,-1
 1355 781 l 1,0,-1
EndSplineSet
EndChar

StartChar: tm_ra
Encoding: 2992 2992 75
Width: 867
GlyphClass: 2
Flags: W
LayerCount: 2
Fore
SplineSet
693 697 m 1,0,-1
 693 -6 l 1,1,-1
 109 -340 l 1,2,-1
 41 -221 l 1,3,-1
 396 -14 l 1,4,-1
 396 697 l 1,5,-1
 250 697 l 1,6,-1
 250 2 l 1,7,-1
 117 2 l 1,8,-1
 117 781 l 1,9,-1
 854 781 l 1,10,-1
 854 697 l 1,11,-1
 693 697 l 1,0,-1
EndSplineSet
EndChar

StartChar: tm_rra
Encoding: 2993 2993 76
Width: 1326
GlyphClass: 2
Flags: W
LayerCount: 2
Fore
SplineSet
672 -158 m 2,0,-1
 441 -158 l 2,1,2
 355 -158 355 -158 325 -188.5 c 128,-1,3
 295 -219 295 -219 295 -295 c 2,4,-1
 295 -342 l 1,5,-1
 2 -342 l 1,6,-1
 2 -275 l 2,7,8
 2 -168 2 -168 66.5 -121 c 128,-1,9
 131 -74 131 -74 264 -74 c 2,10,-1
 660 -74 l 2,11,12
 855 -74 855 -74 905 41 c 128,-1,13
 955 156 955 156 955 383 c 0,14,15
 955 389 955 389 956 521.5 c 128,-1,16
 957 654 957 654 844 664 c 0,17,18
 799 666 799 666 758 637.5 c 128,-1,19
 717 609 717 609 717 537 c 2,20,-1
 717 0 l 1,21,-1
 422 0 l 1,22,-1
 422 531 l 2,23,24
 422 615 422 615 396.5 643.5 c 128,-1,25
 371 672 371 672 330 670 c 0,26,27
 289 666 289 666 263.5 634 c 128,-1,28
 238 602 238 602 238 518 c 2,29,-1
 238 0 l 1,30,-1
 104 0 l 1,31,-1
 104 518 l 2,32,33
 104 662 104 662 189.5 727.5 c 128,-1,34
 275 793 275 793 404 793 c 0,35,36
 490 795 490 795 555.5 774.5 c 128,-1,37
 621 754 621 754 662 707 c 1,38,39
 713 752 713 752 780.5 773.5 c 128,-1,40
 848 795 848 795 918 793 c 0,41,42
 1098 791 1098 791 1173 678.5 c 128,-1,43
 1248 566 1248 566 1248 383 c 0,44,45
 1252 115 1252 115 1101.5 -21.5 c 128,-1,46
 951 -158 951 -158 672 -158 c 2,0,-1
EndSplineSet
EndChar

StartChar: tm_la
Encoding: 2994 2994 77
Width: 1602
GlyphClass: 2
Flags: W
LayerCount: 2
Fore
SplineSet
295 227 m 0,0,1
 297 145 297 145 323.5 103.5 c 128,-1,2
 350 62 350 62 387 66 c 1,3,4
 428 66 428 66 449.5 111 c 128,-1,5
 471 156 471 156 471 250 c 0,6,7
 473 324 473 324 450.5 360 c 128,-1,8
 428 396 428 396 391 393 c 0,9,10
 350 391 350 391 321.5 344 c 128,-1,11
 293 297 293 297 295 227 c 0,0,1
1111 355 m 0,12,13
 1111 221 1111 221 1131.5 169 c 128,-1,14
 1152 117 1152 117 1229 117 c 0,15,16
 1324 115 1324 115 1367 195 c 128,-1,17
 1410 275 1410 275 1410 377 c 0,18,19
 1406 510 1406 510 1356.5 613.5 c 128,-1,20
 1307 717 1307 717 1197 783 c 1,21,-1
 1246 844 l 1,22,23
 1385 771 1385 771 1461 641.5 c 128,-1,24
 1537 512 1537 512 1533 367 c 0,25,26
 1525 178 1525 178 1435.5 80 c 128,-1,27
 1346 -18 1346 -18 1148 -18 c 0,28,29
 1016 -20 1016 -20 919 45.5 c 128,-1,30
 822 111 822 111 818 264 c 2,31,-1
 814 379 l 2,32,33
 809 518 809 518 752 601 c 128,-1,34
 695 684 695 684 562 682 c 0,35,36
 369 682 369 682 282 575.5 c 128,-1,37
 195 469 195 469 189 348 c 0,38,39
 189 336 189 336 189 328 c 128,-1,40
 189 320 189 320 191 312 c 1,41,42
 209 420 209 420 290 475.5 c 128,-1,43
 371 531 371 531 484 529 c 0,44,45
 604 525 604 525 676 457 c 128,-1,46
 748 389 748 389 746 256 c 0,47,48
 746 123 746 123 646.5 47 c 128,-1,49
 547 -29 547 -29 410 -25 c 0,50,51
 230 -23 230 -23 147 74.5 c 128,-1,52
 64 172 64 172 64 336 c 0,53,54
 64 549 64 549 214.5 667 c 128,-1,55
 365 785 365 785 586 795 c 0,56,57
 822 803 822 803 966.5 697.5 c 128,-1,58
 1111 592 1111 592 1111 355 c 0,12,13
EndSplineSet
EndChar

StartChar: tm_lla
Encoding: 2995 2995 78
Width: 1734
GlyphClass: 2
Flags: W
LayerCount: 2
Fore
SplineSet
293 236 m 0,0,1
 295 152 295 152 321.5 112 c 128,-1,2
 348 72 348 72 385 74 c 0,3,4
 426 74 426 74 447.5 119 c 128,-1,5
 469 164 469 164 471 258 c 0,6,7
 471 334 471 334 448.5 369 c 128,-1,8
 426 404 426 404 389 402 c 0,9,10
 348 398 348 398 319.5 351.5 c 128,-1,11
 291 305 291 305 293 236 c 0,0,1
1574 697 m 1,12,-1
 1574 2 l 1,13,-1
 1277 2 l 1,14,-1
 1277 697 l 1,15,-1
 1117 697 l 1,16,-1
 1117 2 l 1,17,-1
 822 2 l 1,18,-1
 822 328 l 2,19,20
 822 498 822 498 775.5 591 c 128,-1,21
 729 684 729 684 574 689 c 0,22,23
 371 693 371 693 282 586.5 c 128,-1,24
 193 480 193 480 187 355 c 0,25,26
 187 344 187 344 187 337 c 128,-1,27
 187 330 187 330 189 322 c 1,28,29
 207 430 207 430 289 484.5 c 128,-1,30
 371 539 371 539 482 537 c 0,31,32
 604 535 604 535 676 467.5 c 128,-1,33
 748 400 748 400 746 264 c 0,34,35
 742 131 742 131 642.5 55.5 c 128,-1,36
 543 -20 543 -20 408 -18 c 0,37,38
 229 -16 229 -16 145.5 82 c 128,-1,39
 62 180 62 180 62 344 c 0,40,41
 64 566 64 566 226.5 685.5 c 128,-1,42
 389 805 389 805 615 805 c 1,43,44
 734 801 734 801 827 772.5 c 128,-1,45
 920 744 920 744 982 689 c 1,46,-1
 982 781 l 1,47,-1
 1721 781 l 1,48,-1
 1721 697 l 1,49,-1
 1574 697 l 1,12,-1
EndSplineSet
EndChar

StartChar: tm_llla
Encoding: 2996 2996 79
Width: 1322
GlyphClass: 2
Flags: W
LayerCount: 2
Fore
SplineSet
588 2 m 1,0,-1
 117 2 l 1,1,-1
 117 781 l 1,2,-1
 412 781 l 1,3,-1
 412 86 l 1,4,-1
 588 86 l 1,5,-1
 588 555 l 2,6,7
 588 680 588 680 658.5 736.5 c 128,-1,8
 729 793 729 793 859 793 c 0,9,10
 1045 791 1045 791 1150.5 676.5 c 128,-1,11
 1256 562 1256 562 1260 383 c 1,12,13
 1260 203 1260 203 1160.5 106.5 c 128,-1,14
 1061 10 1061 10 883 2 c 1,15,-1
 883 -49 l 2,16,17
 883 -86 883 -86 910 -104.5 c 128,-1,18
 937 -123 937 -123 969 -123 c 2,19,-1
 1152 -123 l 1,20,-1
 1152 -207 l 1,21,-1
 967 -207 l 2,22,23
 865 -207 865 -207 697 -305.5 c 128,-1,24
 529 -404 529 -404 418 -402 c 0,25,26
 277 -402 277 -402 192 -323 c 128,-1,27
 107 -244 107 -244 113 -86 c 1,28,-1
 234 -86 l 1,29,30
 234 -92 234 -92 234 -177 c 128,-1,31
 234 -262 234 -262 326 -264 c 0,32,33
 393 -266 393 -266 453.5 -221 c 128,-1,34
 514 -176 514 -176 535 -164 c 0,35,36
 570 -145 570 -145 615 -133 c 128,-1,37
 660 -121 660 -121 723 -123 c 1,38,-1
 723 -109 l 1,39,40
 660 -105 660 -105 625 -83 c 128,-1,41
 590 -61 590 -61 588 2 c 1,0,-1
883 86 m 1,42,43
 1016 94 1016 94 1076.5 182 c 128,-1,44
 1137 270 1137 270 1137 408 c 0,45,46
 1137 504 1137 504 1093 590 c 128,-1,47
 1049 676 1049 676 963 676 c 0,48,49
 916 678 916 678 899.5 647.5 c 128,-1,50
 883 617 883 617 883 566 c 2,51,-1
 883 86 l 1,42,43
EndSplineSet
EndChar

StartChar: tm_va
Encoding: 2997 2997 80
Width: 1678
GlyphClass: 2
Flags: W
LayerCount: 2
Fore
SplineSet
295 236 m 0,0,1
 295 152 295 152 321.5 112 c 128,-1,2
 348 72 348 72 387 74 c 0,3,4
 426 74 426 74 447.5 119 c 128,-1,5
 469 164 469 164 469 258 c 0,6,7
 469 334 469 334 446.5 369 c 128,-1,8
 424 404 424 404 387 402 c 0,9,10
 346 398 346 398 319.5 351.5 c 128,-1,11
 293 305 293 305 295 236 c 0,0,1
1561 781 m 1,12,-1
 1561 2 l 1,13,-1
 742 2 l 1,14,-1
 742 86 l 1,15,-1
 760 86 l 2,16,17
 824 86 824 86 840.5 158 c 128,-1,18
 857 230 857 230 857 324 c 0,19,20
 857 496 857 496 794.5 590 c 128,-1,21
 732 684 732 684 572 689 c 0,22,23
 369 693 369 693 280 586 c 128,-1,24
 191 479 191 479 187 355 c 1,25,-1
 187 322 l 1,26,27
 205 430 205 430 287 484.5 c 128,-1,28
 369 539 369 539 480 537 c 0,29,30
 602 535 602 535 675 467.5 c 128,-1,31
 748 400 748 400 746 264 c 0,32,33
 742 131 742 131 642.5 55.5 c 128,-1,34
 543 -20 543 -20 406 -18 c 0,35,36
 227 -16 227 -16 145.5 82 c 128,-1,37
 64 180 64 180 64 344 c 0,38,39
 64 566 64 566 225.5 685.5 c 128,-1,40
 387 805 387 805 615 805 c 0,41,42
 854 801 854 801 1002 692.5 c 128,-1,43
 1150 584 1150 584 1152 385 c 0,44,45
 1152 283 1152 283 1121 209 c 128,-1,46
 1090 135 1090 135 1012 86 c 1,47,-1
 1266 86 l 1,48,-1
 1266 781 l 1,49,-1
 1561 781 l 1,12,-1
EndSplineSet
EndChar

StartChar: tm_ssa
Encoding: 2999 2999 81
Width: 2125
GlyphClass: 2
Flags: W
LayerCount: 2
Fore
SplineSet
295 232 m 0,0,1
 297 148 297 148 323.5 108 c 128,-1,2
 350 68 350 68 387 70 c 0,3,4
 428 70 428 70 449.5 115 c 128,-1,5
 471 160 471 160 471 254 c 0,6,7
 473 330 473 330 450.5 365 c 128,-1,8
 428 400 428 400 391 398 c 0,9,10
 350 395 350 395 321.5 348 c 128,-1,11
 293 301 293 301 295 232 c 0,0,1
1625 781 m 0,12,13
 1777 777 1777 777 1860 692 c 128,-1,14
 1943 607 1943 607 1943 455 c 2,15,-1
 1943 82 l 1,16,-1
 2113 82 l 1,17,-1
 2113 0 l 1,18,-1
 1943 0 l 1,19,-1
 1943 -316 l 1,20,-1
 1648 -316 l 1,21,-1
 1648 0 l 1,22,-1
 742 0 l 1,23,-1
 742 82 l 1,24,-1
 760 82 l 2,25,26
 824 82 824 82 840.5 153.5 c 128,-1,27
 857 225 857 225 857 320 c 0,28,29
 857 492 857 492 795.5 586 c 128,-1,30
 734 680 734 680 576 686 c 0,31,32
 373 689 373 689 284 583 c 128,-1,33
 195 477 195 477 189 352 c 0,34,35
 189 342 189 342 189 334 c 128,-1,36
 189 326 189 326 191 318 c 1,37,38
 209 426 209 426 291 481.5 c 128,-1,39
 373 537 373 537 484 533 c 0,40,41
 605 531 605 531 677.5 463.5 c 128,-1,42
 750 396 750 396 748 260 c 0,43,44
 744 127 744 127 644.5 52 c 128,-1,45
 545 -23 545 -23 410 -21 c 0,46,47
 230 -20 230 -20 147 78 c 128,-1,48
 64 176 64 176 64 342 c 0,49,50
 64 562 64 562 226.5 681.5 c 128,-1,51
 389 801 389 801 617 801 c 0,52,53
 857 797 857 797 1005.5 688.5 c 128,-1,54
 1154 580 1154 580 1154 381 c 0,55,56
 1154 279 1154 279 1123 205 c 128,-1,57
 1092 131 1092 131 1016 82 c 1,58,-1
 1441 82 l 1,59,60
 1361 133 1361 133 1312.5 216 c 128,-1,61
 1264 299 1264 299 1260 404 c 1,62,63
 1260 561 1260 561 1367.5 671 c 128,-1,64
 1475 781 1475 781 1625 781 c 0,12,13
1648 82 m 1,65,-1
 1648 484 l 2,66,67
 1648 566 1648 566 1629.5 612 c 128,-1,68
 1611 658 1611 658 1541 654 c 0,69,70
 1475 650 1475 650 1426 585 c 128,-1,71
 1377 520 1377 520 1381 410 c 0,72,73
 1385 285 1385 285 1456 194.5 c 128,-1,74
 1527 104 1527 104 1648 82 c 1,65,-1
EndSplineSet
EndChar

StartChar: tm_sa
Encoding: 3000 3000 82
Width: 2104
GlyphClass: 2
Flags: W
LayerCount: 2
Fore
SplineSet
291 232 m 0,0,1
 293 148 293 148 320.5 108 c 128,-1,2
 348 68 348 68 387 72 c 0,3,4
 426 72 426 72 447.5 117 c 128,-1,5
 469 162 469 162 469 256 c 0,6,7
 469 330 469 330 446.5 366 c 128,-1,8
 424 402 424 402 387 398 c 0,9,10
 346 396 346 396 318.5 350.5 c 128,-1,11
 291 305 291 305 291 232 c 0,0,1
1734 123 m 0,12,13
 1830 121 1830 121 1871 201 c 128,-1,14
 1912 281 1912 281 1912 383 c 0,15,16
 1912 514 1912 514 1861.5 618.5 c 128,-1,17
 1811 723 1811 723 1699 789 c 1,18,-1
 1748 850 l 1,19,20
 1889 777 1889 777 1965 647.5 c 128,-1,21
 2041 518 2041 518 2035 373 c 0,22,23
 2029 184 2029 184 1938.5 86 c 128,-1,24
 1848 -12 1848 -12 1650 -12 c 0,25,26
 1504 -14 1504 -14 1412 63.5 c 128,-1,27
 1320 141 1320 141 1320 287 c 0,28,29
 1320 314 1320 314 1333 475.5 c 128,-1,30
 1346 637 1346 637 1219 641 c 0,31,32
 1102 641 1102 641 1104.5 506 c 128,-1,33
 1107 371 1107 371 1107 361 c 2,34,-1
 1107 0 l 1,35,-1
 811 0 l 1,36,-1
 811 350 l 2,37,38
 811 500 811 500 755 593.5 c 128,-1,39
 699 687 699 687 559 686 c 0,40,41
 363 686 363 686 277 580.5 c 128,-1,42
 191 475 191 475 187 354 c 1,43,-1
 187 318 l 1,44,45
 207 426 207 426 288 481.5 c 128,-1,46
 369 537 369 537 480 535 c 0,47,48
 600 531 600 531 673 463 c 128,-1,49
 746 395 746 395 746 262 c 0,50,51
 744 127 744 127 643.5 52 c 128,-1,52
 543 -23 543 -23 406 -20 c 0,53,54
 227 -18 227 -18 144.5 80 c 128,-1,55
 62 178 62 178 64 342 c 0,56,57
 64 555 64 555 214.5 673 c 128,-1,58
 365 791 365 791 582 801 c 0,59,60
 727 805 727 805 842 764 c 128,-1,61
 957 723 957 723 1027 635 c 1,62,63
 1057 711 1057 711 1124 753 c 128,-1,64
 1191 795 1191 795 1303 795 c 0,65,66
 1396 795 1396 795 1457 775.5 c 128,-1,67
 1518 756 1518 756 1555 709 c 0,68,69
 1621 625 1621 625 1618 492 c 128,-1,70
 1615 359 1615 359 1615 342 c 0,71,72
 1613 242 1613 242 1632.5 183.5 c 128,-1,73
 1652 125 1652 125 1734 123 c 0,12,13
EndSplineSet
EndChar

StartChar: tm_ha
Encoding: 3001 3001 83
Width: 2484
GlyphClass: 2
Flags: W
LayerCount: 2
Fore
SplineSet
295 232 m 0,0,1
 297 150 297 150 322.5 109 c 128,-1,2
 348 68 348 68 387 72 c 0,3,4
 426 72 426 72 449.5 117 c 128,-1,5
 473 162 473 162 473 256 c 0,6,7
 473 332 473 332 449.5 367 c 128,-1,8
 426 402 426 402 389 398 c 0,9,10
 348 396 348 396 320.5 349.5 c 128,-1,11
 293 303 293 303 295 232 c 0,0,1
1826 -158 m 2,12,-1
 455 -158 l 2,13,14
 369 -158 369 -158 339 -188.5 c 128,-1,15
 309 -219 309 -219 309 -295 c 2,16,-1
 309 -342 l 1,17,-1
 14 -342 l 1,18,-1
 14 -275 l 2,19,20
 14 -168 14 -168 79.5 -121 c 128,-1,21
 145 -74 145 -74 277 -74 c 2,22,-1
 1814 -74 l 2,23,24
 2014 -74 2014 -74 2063.5 41 c 128,-1,25
 2113 156 2113 156 2113 383 c 0,26,27
 2113 500 2113 500 2094.5 579 c 128,-1,28
 2076 658 2076 658 2000 664 c 0,29,30
 1955 666 1955 666 1915 637.5 c 128,-1,31
 1875 609 1875 609 1875 537 c 2,32,-1
 1875 0 l 1,33,-1
 1578 0 l 1,34,-1
 1578 531 l 2,35,36
 1578 615 1578 615 1552.5 643.5 c 128,-1,37
 1527 672 1527 672 1486 670 c 0,38,39
 1445 666 1445 666 1420 634 c 128,-1,40
 1395 602 1395 602 1395 518 c 2,41,-1
 1395 0 l 1,42,-1
 742 0 l 1,43,-1
 742 84 l 1,44,-1
 760 84 l 2,45,46
 824 84 824 84 840.5 155.5 c 128,-1,47
 857 227 857 227 857 322 c 0,48,49
 857 494 857 494 795.5 587 c 128,-1,50
 734 680 734 680 576 686 c 0,51,52
 373 689 373 689 283 583 c 128,-1,53
 193 477 193 477 191 354 c 0,54,55
 189 346 189 346 190 334 c 128,-1,56
 191 322 191 322 191 318 c 1,57,58
 209 426 209 426 291 481.5 c 128,-1,59
 373 537 373 537 484 535 c 0,60,61
 604 531 604 531 677 464.5 c 128,-1,62
 750 398 750 398 748 262 c 0,63,64
 744 127 744 127 644.5 52 c 128,-1,65
 545 -23 545 -23 410 -20 c 0,66,67
 230 -18 230 -18 147 80 c 128,-1,68
 64 178 64 178 64 342 c 0,69,70
 64 562 64 562 226.5 681.5 c 128,-1,71
 389 801 389 801 617 801 c 0,72,73
 857 799 857 799 1005.5 690.5 c 128,-1,74
 1154 582 1154 582 1154 383 c 0,75,76
 1156 281 1156 281 1125 207 c 128,-1,77
 1094 133 1094 133 1016 84 c 1,78,-1
 1260 84 l 1,79,-1
 1260 518 l 2,80,81
 1260 662 1260 662 1346 727.5 c 128,-1,82
 1432 793 1432 793 1559 793 c 0,83,84
 1645 795 1645 795 1712 774.5 c 128,-1,85
 1779 754 1779 754 1820 707 c 1,86,87
 1867 752 1867 752 1935.5 773.5 c 128,-1,88
 2004 795 2004 795 2076 793 c 0,89,90
 2256 791 2256 791 2329 679.5 c 128,-1,91
 2402 568 2402 568 2406 383 c 0,92,93
 2410 115 2410 115 2258.5 -21.5 c 128,-1,94
 2107 -158 2107 -158 1826 -158 c 2,12,-1
EndSplineSet
EndChar

StartChar: tm_aakaar
Encoding: 3006 3006 84
Width: 865
GlyphClass: 2
Flags: W
LayerCount: 2
Fore
SplineSet
691 697 m 1,0,-1
 691 2 l 1,1,-1
 395 2 l 1,2,-1
 395 697 l 1,3,-1
 248 697 l 1,4,-1
 248 2 l 1,5,-1
 117 2 l 1,6,-1
 117 781 l 1,7,-1
 852 781 l 1,8,-1
 852 697 l 1,9,-1
 691 697 l 1,0,-1
EndSplineSet
EndChar

StartChar: tm_ikaar
Encoding: 3007 3007 85
Width: 854
GlyphClass: 2
Flags: W
LayerCount: 2
Fore
SplineSet
645 578 m 1,0,-1
 645 787 l 1,1,2
 641 900 641 900 589 939.5 c 128,-1,3
 537 979 537 979 449 979 c 0,4,5
 352 980 352 980 302 947 c 128,-1,6
 252 914 252 914 248 867 c 0,7,8
 248 846 248 846 259 826.5 c 128,-1,9
 270 807 270 807 285 795 c 1,10,-1
 283 781 l 1,11,-1
 186 781 l 1,12,13
 152 816 152 816 135.5 857 c 128,-1,14
 119 898 119 898 117 941 c 0,15,16
 113 1051 113 1051 200 1129 c 128,-1,17
 287 1207 287 1207 430 1207 c 0,18,19
 574 1207 574 1207 655 1136.5 c 128,-1,20
 736 1066 736 1066 736 926 c 2,21,-1
 736 578 l 1,22,-1
 645 578 l 1,0,-1
EndSplineSet
EndChar

StartChar: tm_iikaar
Encoding: 3008 3008 86
Width: 881
GlyphClass: 4
Flags: W
LayerCount: 2
Fore
SplineSet
365 1014 m 1,0,1
 316 1006 316 1006 289 960 c 128,-1,2
 262 914 262 914 262 855 c 0,3,4
 262 783 262 783 300 728.5 c 128,-1,5
 338 674 338 674 404 682 c 1,6,-1
 404 586 l 1,7,8
 273 586 273 586 194 677 c 128,-1,9
 115 768 115 768 117 902 c 0,10,11
 117 1059 117 1059 224.5 1160.5 c 128,-1,12
 332 1262 332 1262 500 1262 c 1,13,14
 607 1258 607 1258 685.5 1204 c 128,-1,15
 764 1150 764 1150 764 1045 c 0,16,17
 762 947 762 947 694.5 894.5 c 128,-1,18
 627 842 627 842 529 842 c 1,19,20
 463 838 463 838 412 869 c 128,-1,21
 361 900 361 900 359 965 c 0,22,23
 357 977 357 977 358 989.5 c 128,-1,24
 359 1002 359 1002 365 1014 c 1,0,1
459 984 m 0,25,26
 459 961 459 961 477.5 948.5 c 128,-1,27
 496 936 496 936 520 936 c 0,28,29
 551 934 551 934 574.5 950.5 c 128,-1,30
 598 967 598 967 598 996 c 0,31,32
 598 1021 598 1021 577.5 1035 c 128,-1,33
 557 1049 557 1049 531 1049 c 0,34,35
 502 1049 502 1049 480.5 1032.5 c 128,-1,36
 459 1016 459 1016 459 984 c 0,25,26
EndSplineSet
EndChar

StartChar: tm_ukaar
Encoding: 3009 3009 87
Width: 816
GlyphClass: 4
Flags: W
LayerCount: 2
Fore
SplineSet
479 697 m 0,0,1
 437 697 437 697 413 675.5 c 128,-1,2
 389 654 389 654 387 607 c 0,3,4
 387 559 387 559 410.5 537.5 c 128,-1,5
 434 516 434 516 479 516 c 0,6,7
 520 516 520 516 542 543 c 128,-1,8
 564 570 564 570 564 605 c 0,9,10
 564 643 564 643 542 670 c 128,-1,11
 520 697 520 697 479 697 c 0,0,1
293 697 m 1,12,-1
 -299 697 l 1,13,-1
 -299 781 l 1,14,-1
 557 781 l 2,15,16
 660 781 660 781 721.5 745 c 128,-1,17
 783 709 783 709 781 613 c 0,18,19
 781 516 781 516 697 466 c 128,-1,20
 613 416 613 416 508 416 c 0,21,22
 393 412 393 412 327.5 460 c 128,-1,23
 262 508 262 508 262 600 c 0,24,25
 262 627 262 627 268.5 651.5 c 128,-1,26
 275 676 275 676 293 697 c 1,12,-1
EndSplineSet
EndChar

StartChar: tm_uukaar
Encoding: 3010 3010 88
Width: 1051
GlyphClass: 4
Flags: W
LayerCount: 2
Fore
SplineSet
480 701 m 0,0,1
 443 701 443 701 416 678.5 c 128,-1,2
 389 656 389 656 389 611 c 0,3,4
 389 562 389 562 412.5 541 c 128,-1,5
 436 520 436 520 479 520 c 0,6,7
 521 520 521 520 542.5 546 c 128,-1,8
 564 572 564 572 564 609 c 256,9,10
 564 646 564 646 543.5 673.5 c 128,-1,11
 523 701 523 701 480 701 c 0,0,1
611 818 m 1,12,-1
 687 822 l 1,13,14
 848 824 848 824 925 762.5 c 128,-1,15
 1002 701 1002 701 1002 572 c 0,16,17
 1002 402 1002 402 868 330 c 128,-1,18
 734 258 734 258 553 258 c 2,19,-1
 455 258 l 1,20,-1
 455 342 l 1,21,22
 463 342 463 342 490.5 339 c 128,-1,23
 518 336 518 336 535 336 c 0,24,25
 650 336 650 336 722.5 384 c 128,-1,26
 795 432 795 432 795 549 c 0,27,28
 795 639 795 639 770.5 685.5 c 128,-1,29
 746 732 746 732 664 734 c 1,30,31
 687 715 687 715 699 685.5 c 128,-1,32
 711 656 711 656 711 617 c 0,33,34
 711 529 711 529 645.5 483 c 128,-1,35
 580 437 580 437 490 434 c 0,36,37
 396 432 396 432 328 474 c 128,-1,38
 260 516 260 516 260 605 c 0,39,40
 260 633 260 633 267.5 656.5 c 128,-1,41
 275 680 275 680 291 701 c 1,42,-1
 -301 701 l 1,43,-1
 -301 783 l 1,44,-1
 453 783 l 2,45,46
 502 783 502 783 541 779 c 128,-1,47
 580 775 580 775 611 764 c 1,48,-1
 611 818 l 1,12,-1
EndSplineSet
EndChar

StartChar: tm_ekaar
Encoding: 3014 3014 89
Width: 1312
GlyphClass: 2
Flags: W
LayerCount: 2
Fore
SplineSet
689 1189 m 0,0,1
 914 1191 914 1191 1054.5 1055.5 c 128,-1,2
 1195 920 1195 920 1195 707 c 2,3,-1
 1195 0 l 1,4,-1
 898 0 l 1,5,-1
 898 707 l 2,6,7
 898 863 898 863 836.5 962 c 128,-1,8
 775 1061 775 1061 629 1062 c 0,9,10
 412 1062 412 1062 302.5 908 c 128,-1,11
 193 754 193 754 193 523 c 0,12,13
 193 410 193 410 220.5 310.5 c 128,-1,14
 248 211 248 211 303 178 c 1,15,16
 289 201 289 201 282 228.5 c 128,-1,17
 275 256 275 256 275 287 c 0,18,19
 275 406 275 406 357 477.5 c 128,-1,20
 439 549 439 549 557 549 c 0,21,22
 672 549 672 549 745 477.5 c 128,-1,23
 818 406 818 406 816 293 c 0,24,25
 814 152 814 152 727.5 72 c 128,-1,26
 641 -8 641 -8 504 -8 c 0,27,28
 295 -8 295 -8 184.5 144.5 c 128,-1,29
 74 297 74 297 74 508 c 0,30,31
 78 793 78 793 238 991 c 128,-1,32
 398 1189 398 1189 689 1189 c 0,0,1
500 422 m 0,33,34
 449 422 449 422 422 379 c 128,-1,35
 395 336 395 336 395 285 c 0,36,37
 391 215 391 215 422 164 c 128,-1,38
 453 113 453 113 506 115 c 0,39,40
 553 117 553 117 574.5 162 c 128,-1,41
 596 207 596 207 598 268 c 0,42,43
 598 328 598 328 575.5 375 c 128,-1,44
 553 422 553 422 500 422 c 0,33,34
EndSplineSet
EndChar

StartChar: tm_eekaar
Encoding: 3015 3015 90
Width: 1115
GlyphClass: 2
Flags: W
LayerCount: 2
Fore
SplineSet
658 1209 m 0,0,1
 826 1209 826 1209 943.5 1136.5 c 128,-1,2
 1061 1064 1061 1064 1061 904 c 0,3,4
 1061 791 1061 791 984.5 721.5 c 128,-1,5
 908 652 908 652 791 648 c 0,6,7
 658 645 658 645 588 716 c 128,-1,8
 518 787 518 787 518 893 c 0,9,10
 518 965 518 965 552 1026.5 c 128,-1,11
 586 1088 586 1088 646 1123 c 1,12,13
 479 1090 479 1090 409.5 947.5 c 128,-1,14
 340 805 340 805 340 611 c 0,15,16
 340 410 340 410 407.5 265.5 c 128,-1,17
 475 121 475 121 646 86 c 1,18,19
 584 119 584 119 552.5 174.5 c 128,-1,20
 521 230 521 230 521 301 c 0,21,22
 521 422 521 422 604 493 c 128,-1,23
 687 564 687 564 811 562 c 0,24,25
 916 562 916 562 989 492 c 128,-1,26
 1062 422 1062 422 1061 307 c 0,27,28
 1059 146 1059 146 942.5 74 c 128,-1,29
 826 2 826 2 658 2 c 0,30,31
 387 2 387 2 226.5 169 c 128,-1,32
 66 336 66 336 64 604 c 0,33,34
 64 871 64 871 225.5 1040 c 128,-1,35
 387 1209 387 1209 658 1209 c 0,0,1
740 775 m 0,36,37
 785 775 785 775 812.5 814.5 c 128,-1,38
 840 854 840 854 842 928 c 0,39,40
 842 979 842 979 819.5 1018 c 128,-1,41
 797 1057 797 1057 750 1059 c 0,42,43
 707 1059 707 1059 672 1017 c 128,-1,44
 637 975 637 975 639 912 c 0,45,46
 639 863 639 863 665 820 c 128,-1,47
 691 777 691 777 740 775 c 0,36,37
740 436 m 0,48,49
 691 434 691 434 665 391 c 128,-1,50
 639 348 639 348 639 299 c 0,51,52
 637 236 637 236 672 194 c 128,-1,53
 707 152 707 152 750 152 c 0,54,55
 799 154 799 154 818.5 199 c 128,-1,56
 838 244 838 244 838 299 c 0,57,58
 838 365 838 365 809.5 400.5 c 128,-1,59
 781 436 781 436 740 436 c 0,48,49
EndSplineSet
EndChar

StartChar: tm_aikaar
Encoding: 3016 3016 91
Width: 1873
GlyphClass: 2
Flags: W
LayerCount: 2
Fore
SplineSet
289 221 m 0,0,1
 291 139 291 139 315.5 98 c 128,-1,2
 340 57 340 57 377 57 c 0,3,4
 434 57 434 57 449.5 114.5 c 128,-1,5
 465 172 465 172 465 242 c 0,6,7
 467 316 467 316 444.5 352.5 c 128,-1,8
 422 389 422 389 387 389 c 0,9,10
 334 387 334 387 309.5 331 c 128,-1,11
 285 275 285 275 289 221 c 0,0,1
961 715 m 1,12,13
 1035 750 1035 750 1121 769.5 c 128,-1,14
 1207 789 1207 789 1295 789 c 0,15,16
 1506 789 1506 789 1657.5 682.5 c 128,-1,17
 1809 576 1809 576 1811 371 c 0,18,19
 1811 162 1811 162 1679 58.5 c 128,-1,20
 1547 -45 1547 -45 1242 -23 c 1,21,-1
 1242 61 l 1,22,23
 1379 49 1379 49 1448.5 136 c 128,-1,24
 1518 223 1518 223 1516 355 c 0,25,26
 1514 514 1514 514 1429 593 c 128,-1,27
 1344 672 1344 672 1205 672 c 0,28,29
 1166 670 1166 670 1131 665 c 128,-1,30
 1096 660 1096 660 1061 648 c 1,31,32
 1162 576 1162 576 1211 487 c 128,-1,33
 1260 398 1260 398 1260 301 c 0,34,35
 1256 152 1256 152 1163 57.5 c 128,-1,36
 1070 -37 1070 -37 924 -35 c 0,37,38
 848 -35 848 -35 791 -2 c 128,-1,39
 734 31 734 31 697 92 c 1,40,41
 652 25 652 25 576 -9 c 128,-1,42
 500 -43 500 -43 410 -43 c 0,43,44
 240 -43 240 -43 151 52.5 c 128,-1,45
 62 148 62 148 62 318 c 0,46,47
 62 545 62 545 229 663 c 128,-1,48
 396 781 396 781 627 781 c 0,49,50
 719 781 719 781 806 764.5 c 128,-1,51
 893 748 893 748 961 715 c 1,12,13
682 437 m 1,52,53
 707 490 707 490 743 538 c 128,-1,54
 779 586 779 586 820 623 c 1,55,56
 766 654 766 654 707 669 c 128,-1,57
 648 684 648 684 584 684 c 0,58,59
 428 684 428 684 309.5 587 c 128,-1,60
 191 490 191 490 186 330 c 0,61,62
 186 318 186 318 186 310.5 c 128,-1,63
 186 303 186 303 187 295 c 1,64,65
 201 398 201 398 278 459 c 128,-1,66
 355 520 355 520 461 520 c 0,67,68
 523 520 523 520 582 499.5 c 128,-1,69
 641 479 641 479 682 437 c 1,52,53
893 562 m 1,70,71
 830 502 830 502 797 428 c 128,-1,72
 764 354 764 354 764 268 c 0,73,74
 764 203 764 203 788 150.5 c 128,-1,75
 812 98 812 98 871 98 c 0,76,77
 939 100 939 100 968.5 159.5 c 128,-1,78
 998 219 998 219 998 293 c 0,79,80
 998 373 998 373 972.5 441.5 c 128,-1,81
 947 510 947 510 893 562 c 1,70,71
EndSplineSet
EndChar

StartChar: tm_halant
Encoding: 3021 3021 95
Width: 572
GlyphClass: 4
Flags: W
LayerCount: 2
Fore
SplineSet
285 1125 m 0,0,1
 365 1125 365 1125 422 1069.5 c 128,-1,2
 479 1014 479 1014 479 934 c 2,3,-1
 479 914 l 1,4,-1
 94 914 l 1,5,-1
 94 934 l 2,6,7
 94 1012 94 1012 150.5 1068.5 c 128,-1,8
 207 1125 207 1125 285 1125 c 0,0,1
EndSplineSet
EndChar

StartChar: tm_two
Encoding: 3048 3048 98
Width: 1425
GlyphClass: 2
Flags: W
LayerCount: 2
Fore
SplineSet
1244 70 m 1,0,-1
 1226 0 l 1,1,-1
 586 0 l 2,2,3
 429 0 429 0 429 106 c 0,4,5
 429 153 429 153 478 181.5 c 128,-1,6
 527 210 527 210 586 210 c 2,7,-1
 779 210 l 2,8,9
 867 210 867 210 928 271.5 c 128,-1,10
 989 333 989 333 989 420 c 0,11,12
 989 500 989 500 945 560.5 c 128,-1,13
 901 621 901 621 831 621 c 0,14,15
 793 621 793 621 744 595 c 1,16,17
 814 555 814 555 814 437 c 0,18,19
 814 382 814 382 772.5 344.5 c 128,-1,20
 731 307 731 307 675 307 c 0,21,22
 618 307 618 307 580 351 c 128,-1,23
 542 395 542 395 542 455 c 0,24,25
 542 565 542 565 646.5 632.5 c 128,-1,26
 751 700 751 700 884 700 c 0,27,28
 987 700 987 700 1058 629 c 128,-1,29
 1129 558 1129 558 1129 455 c 0,30,31
 1129 321 1129 321 1025.5 230.5 c 128,-1,32
 922 140 922 140 779 140 c 2,33,-1
 595 140 l 2,34,35
 551 140 551 140 551 106 c 0,36,37
 551 70 551 70 604 70 c 2,38,-1
 1244 70 l 1,0,-1
675 560 m 1,39,40
 621 516 621 516 621 473 c 0,41,42
 621 386 621 386 666 386 c 0,43,44
 709 386 709 386 709 473 c 0,45,46
 709 518 709 518 675 560 c 1,39,40
EndSplineSet
EndChar

StartChar: tm_three
Encoding: 3049 3049 99
Width: 1424
GlyphClass: 2
Flags: W
LayerCount: 2
Fore
SplineSet
1270 70 m 1,0,-1
 1252 0 l 1,1,-1
 640 0 l 1,2,-1
 657 70 l 1,3,-1
 780 70 l 2,4,5
 874 70 874 70 941 130.5 c 128,-1,6
 1008 191 1008 191 1008 280 c 0,7,8
 1008 317 1008 317 982.5 342.5 c 128,-1,9
 957 368 957 368 920 368 c 0,10,11
 890 368 890 368 865 341 c 128,-1,12
 840 314 840 314 833 280 c 2,13,-1
 815 193 l 1,14,-1
 675 193 l 1,15,-1
 764 630 l 1,16,-1
 571 630 l 1,17,-1
 444 0 l 1,18,-1
 378 0 l 1,19,-1
 517 700 l 1,20,-1
 1095 700 l 1,21,-1
 1077 630 l 1,22,-1
 902 630 l 1,23,-1
 859 403 l 1,24,25
 918 455 918 455 990 455 c 0,26,27
 1057 455 1057 455 1102.5 403.5 c 128,-1,28
 1148 352 1148 352 1148 280 c 0,29,30
 1148 209 1148 209 1090 151 c 128,-1,31
 1032 93 1032 93 947 70 c 1,32,-1
 1270 70 l 1,0,-1
EndSplineSet
EndChar

StartChar: tm_four
Encoding: 3050 3050 100
Width: 1070
GlyphClass: 2
Flags: W
LayerCount: 2
Fore
SplineSet
514 414 m 1,0,-1
 361 414 l 2,1,2
 268 414 268 414 217 376 c 128,-1,3
 166 338 166 338 166 264 c 0,4,5
 166 191 166 191 217 147.5 c 128,-1,6
 268 104 268 104 344 104 c 0,7,8
 426 104 426 104 470 150.5 c 128,-1,9
 514 197 514 197 514 293 c 2,10,-1
 514 414 l 1,0,-1
811 414 m 1,11,-1
 811 305 l 2,12,13
 811 125 811 125 695.5 58.5 c 128,-1,14
 580 -8 580 -8 385 -8 c 0,15,16
 225 -8 225 -8 135 56.5 c 128,-1,17
 45 121 45 121 45 250 c 0,18,19
 43 344 43 344 102.5 408.5 c 128,-1,20
 162 473 162 473 252 488 c 1,21,-1
 252 781 l 1,22,-1
 1049 781 l 1,23,-1
 1049 697 l 1,24,-1
 811 697 l 1,25,-1
 811 496 l 1,26,-1
 1018 496 l 1,27,-1
 1018 414 l 1,28,-1
 811 414 l 1,11,-1
514 697 m 1,29,-1
 387 697 l 1,30,-1
 387 496 l 1,31,-1
 514 496 l 1,32,-1
 514 697 l 1,29,-1
EndSplineSet
EndChar

StartChar: tm_five
Encoding: 3051 3051 101
Width: 1424
GlyphClass: 2
Flags: W
LayerCount: 2
Fore
SplineSet
1412 517 m 1,0,-1
 1359 526 l 1,1,2
 1369 563 1369 563 1369 598 c 0,3,4
 1369 723 1369 723 1253.5 825.5 c 128,-1,5
 1138 928 1138 928 965 928 c 0,6,7
 728 928 728 928 575.5 716 c 128,-1,8
 423 504 423 504 423 228 c 0,9,10
 423 -43 423 -43 515 -179.5 c 128,-1,11
 607 -316 607 -316 790 -316 c 0,12,13
 979 -316 979 -316 1103.5 -163.5 c 128,-1,14
 1228 -11 1228 -11 1228 193 c 0,15,16
 1228 257 1228 257 1200 304.5 c 128,-1,17
 1172 352 1172 352 1126 352 c 0,18,19
 1099 352 1099 352 1072.5 336.5 c 128,-1,20
 1046 321 1046 321 1039 298 c 2,21,-1
 980 0 l 1,22,-1
 840 0 l 1,23,-1
 965 630 l 1,24,-1
 759 630 l 1,25,-1
 634 0 l 1,26,-1
 566 0 l 1,27,-1
 706 700 l 1,28,-1
 1237 700 l 1,29,-1
 1219 630 l 1,30,-1
 1105 630 l 1,31,-1
 1057 386 l 1,32,33
 1101 437 1101 437 1171 437 c 0,34,35
 1261 437 1261 437 1314.5 368.5 c 128,-1,36
 1368 300 1368 300 1368 193 c 0,37,38
 1368 -47 1368 -47 1202.5 -216 c 128,-1,39
 1037 -385 1037 -385 799 -385 c 0,40,41
 589 -385 589 -385 471.5 -223 c 128,-1,42
 354 -61 354 -61 354 193 c 0,43,44
 354 513 354 513 519 764 c 128,-1,45
 684 1015 684 1015 948 1015 c 0,46,47
 1152 1015 1152 1015 1288.5 889.5 c 128,-1,48
 1425 764 1425 764 1425 613 c 0,49,50
 1425 566 1425 566 1412 517 c 1,0,-1
EndSplineSet
EndChar

StartChar: tm_six
Encoding: 3052 3052 102
Width: 1424
GlyphClass: 2
Flags: W
LayerCount: 2
Fore
SplineSet
784 316 m 1,0,-1
 513 316 l 2,1,2
 469 316 469 316 438 291 c 128,-1,3
 407 266 407 266 407 228 c 0,4,5
 407 158 407 158 477 114 c 128,-1,6
 547 70 547 70 635 70 c 0,7,8
 680 70 680 70 713 99.5 c 128,-1,9
 746 129 746 129 756 175 c 2,10,-1
 784 316 l 1,0,-1
846 630 m 1,11,-1
 653 630 l 1,12,-1
 603 386 l 1,13,-1
 798 386 l 1,14,-1
 846 630 l 1,11,-1
910 245 m 2,15,16
 884 125 884 125 808 62.5 c 128,-1,17
 732 0 732 0 635 0 c 0,18,19
 518 0 518 0 428 64 c 128,-1,20
 338 128 338 128 338 228 c 0,21,22
 338 294 338 294 389.5 340 c 128,-1,23
 441 386 441 386 513 386 c 2,24,-1
 537 386 l 1,25,-1
 600 700 l 1,26,-1
 1229 700 l 1,27,-1
 1213 630 l 1,28,-1
 988 630 l 1,29,-1
 938 386 l 1,30,-1
 1422 386 l 1,31,-1
 1410 316 l 1,32,-1
 1353 316 l 1,33,-1
 1291 0 l 1,34,-1
 1151 0 l 1,35,-1
 1213 316 l 1,36,-1
 1116 316 l 1,37,-1
 1055 0 l 1,38,-1
 967 0 l 1,39,-1
 1028 316 l 1,40,-1
 924 316 l 1,41,-1
 910 245 l 2,15,16
EndSplineSet
EndChar

StartChar: tm_seven
Encoding: 3053 3053 103
Width: 1425
GlyphClass: 2
Flags: W
LayerCount: 2
Fore
SplineSet
643 88 m 1,0,1
 706 88 706 88 753 128 c 128,-1,2
 800 168 800 168 800 228 c 0,3,4
 800 269 800 269 781 301 c 128,-1,5
 762 333 762 333 729 333 c 0,6,7
 684 333 684 333 654.5 296.5 c 128,-1,8
 625 260 625 260 625 210 c 0,9,10
 625 135 625 135 643 88 c 1,0,1
1042 0 m 1,11,-1
 1167 630 l 1,12,-1
 852 630 l 2,13,14
 704 630 704 630 594.5 540.5 c 128,-1,15
 485 451 485 451 485 316 c 0,16,17
 485 247 485 247 507 194.5 c 128,-1,18
 529 142 529 142 572 106 c 1,19,20
 555 135 555 135 555 228 c 256,21,22
 555 321 555 321 614.5 388 c 128,-1,23
 674 455 674 455 765 455 c 0,24,25
 837 455 837 455 884 398 c 128,-1,26
 931 341 931 341 931 263 c 0,27,28
 931 155 931 155 863 77.5 c 128,-1,29
 795 0 795 0 695 0 c 0,30,31
 576 0 576 0 495.5 94 c 128,-1,32
 415 188 415 188 415 316 c 0,33,34
 415 481 415 481 545.5 590.5 c 128,-1,35
 676 700 676 700 852 700 c 2,36,-1
 1430 700 l 1,37,-1
 1412 630 l 1,38,-1
 1307 630 l 1,39,-1
 1181 0 l 1,40,-1
 1042 0 l 1,11,-1
EndSplineSet
EndChar

StartChar: tm_eight
Encoding: 3054 3054 104
Width: 1427
GlyphClass: 2
Flags: W
LayerCount: 2
Fore
SplineSet
849 629 m 1,0,1
 745 611 745 611 670 548.5 c 128,-1,2
 595 486 595 486 595 402 c 0,3,4
 595 338 595 338 638.5 291 c 128,-1,5
 682 244 682 244 744 244 c 0,6,7
 817 244 817 244 864 307.5 c 128,-1,8
 911 371 911 371 911 454 c 0,9,10
 911 580 911 580 849 629 c 1,0,1
1024 140 m 1,11,-1
 411 140 l 2,12,13
 381 140 381 140 357 125 c 128,-1,14
 333 110 333 110 333 87 c 0,15,16
 333 43 333 43 412 -13.5 c 128,-1,17
 491 -70 491 -70 639 -70 c 0,18,19
 743 -70 743 -70 839.5 -18 c 128,-1,20
 936 34 936 34 1024 140 c 1,11,-1
1414 -245 m 1,21,-1
 1269 -245 l 1,22,-1
 1348 140 l 1,23,-1
 1164 140 l 1,24,25
 1051 4 1051 4 915 -63.5 c 128,-1,26
 779 -131 779 -131 621 -131 c 0,27,28
 421 -131 421 -131 311.5 -52.5 c 128,-1,29
 202 26 202 26 202 123 c 0,30,31
 202 160 202 160 233 184.5 c 128,-1,32
 264 209 264 209 307 209 c 2,33,-1
 666 209 l 1,34,35
 604 231 604 231 565 284.5 c 128,-1,36
 526 338 526 338 526 402 c 0,37,38
 526 534 526 534 652 617 c 128,-1,39
 778 700 778 700 937 700 c 0,40,41
 1069 700 1069 700 1169 620.5 c 128,-1,42
 1269 541 1269 541 1269 420 c 0,43,44
 1269 306 1269 306 1213 209 c 1,45,-1
 1364 209 l 1,46,-1
 1463 700 l 1,47,-1
 1603 700 l 1,48,-1
 1414 -245 l 1,21,-1
989 620 m 1,49,50
 1042 530 1042 530 1042 411 c 0,51,52
 1042 267 1042 267 919 209 c 1,53,-1
 1077 209 l 1,54,55
 1146 308 1146 308 1146 402 c 0,56,57
 1146 486 1146 486 1103 553 c 128,-1,58
 1060 620 1060 620 989 620 c 1,49,50
EndSplineSet
EndChar

StartChar: tm_nine
Encoding: 3055 3055 105
Width: 1427
GlyphClass: 2
Flags: W
LayerCount: 2
Fore
SplineSet
692 316 m 1,0,-1
 422 316 l 2,1,2
 379 316 379 316 348 291 c 128,-1,3
 317 266 317 266 317 228 c 0,4,5
 317 158 317 158 387 114 c 128,-1,6
 457 70 457 70 544 70 c 0,7,8
 589 70 589 70 622 99.5 c 128,-1,9
 655 129 655 129 665 175 c 2,10,-1
 692 316 l 1,0,-1
756 630 m 1,11,-1
 562 630 l 1,12,-1
 513 386 l 1,13,-1
 707 386 l 1,14,-1
 756 630 l 1,11,-1
1157 175 m 0,15,16
 1157 259 1157 259 1052 298 c 1,17,18
 982 240 982 240 982 158 c 0,19,20
 982 121 982 121 1007.5 95.5 c 128,-1,21
 1033 70 1033 70 1068 70 c 0,22,23
 1107 70 1107 70 1132 101.5 c 128,-1,24
 1157 133 1157 133 1157 175 c 0,15,16
1297 0 m 1,25,26
 1375 93 1375 93 1375 193 c 0,27,28
 1375 263 1375 263 1332.5 315.5 c 128,-1,29
 1290 368 1290 368 1226 368 c 0,30,31
 1163 368 1163 368 1113 342 c 1,32,33
 1167 322 1167 322 1201 276.5 c 128,-1,34
 1235 231 1235 231 1235 175 c 0,35,36
 1235 104 1235 104 1187 52 c 128,-1,37
 1139 0 1139 0 1068 0 c 0,38,39
 1005 0 1005 0 958.5 46.5 c 128,-1,40
 912 93 912 93 912 158 c 0,41,42
 912 257 912 257 982 316 c 1,43,-1
 833 316 l 1,44,-1
 819 245 l 2,45,46
 795 125 795 125 718.5 62.5 c 128,-1,47
 642 0 642 0 544 0 c 0,48,49
 428 0 428 0 337 64 c 128,-1,50
 246 128 246 128 246 228 c 0,51,52
 246 294 246 294 299 340 c 128,-1,53
 352 386 352 386 422 386 c 2,54,-1
 446 386 l 1,55,-1
 508 700 l 1,56,-1
 1122 700 l 1,57,-1
 1104 630 l 1,58,-1
 896 630 l 1,59,-1
 847 386 l 1,60,-1
 947 386 l 2,61,62
 1014 386 1014 386 1052 368 c 1,63,64
 1111 420 1111 420 1226 420 c 0,65,66
 1327 420 1327 420 1399.5 354.5 c 128,-1,67
 1472 289 1472 289 1472 193 c 0,68,69
 1472 109 1472 109 1410 0 c 1,70,-1
 1297 0 l 1,25,26
EndSplineSet
EndChar

StartChar: tm_ten
Encoding: 3056 3056 106
Width: 1475
GlyphClass: 2
Flags: W
LayerCount: 2
Fore
SplineSet
770 947 m 2,0,-1
 398 947 l 1,1,-1
 398 1027 l 1,2,-1
 770 1027 l 2,3,4
 1078 1027 1078 1027 1238 898.5 c 128,-1,5
 1398 770 1398 770 1398 475 c 0,6,7
 1398 254 1398 254 1277 120 c 128,-1,8
 1156 -14 1156 -14 934 -14 c 0,9,10
 832 -12 832 -12 761.5 13.5 c 128,-1,11
 691 39 691 39 646 111 c 1,12,13
 611 33 611 33 543 10.5 c 128,-1,14
 475 -12 475 -12 373 -12 c 0,15,16
 246 -8 246 -8 175.5 56.5 c 128,-1,17
 105 121 105 121 105 250 c 2,18,-1
 105 781 l 1,19,-1
 242 781 l 1,20,-1
 242 232 l 2,21,22
 242 154 242 154 280 120 c 128,-1,23
 318 86 318 86 383 86 c 0,24,25
 457 86 457 86 491 126 c 128,-1,26
 525 166 525 166 525 242 c 2,27,-1
 525 781 l 1,28,-1
 822 781 l 1,29,-1
 822 295 l 2,30,31
 822 197 822 197 845.5 141.5 c 128,-1,32
 869 86 869 86 951 86 c 0,33,34
 1113 86 1113 86 1108.5 284 c 128,-1,35
 1104 482 1104 482 1104 488 c 0,36,37
 1098 719 1098 719 1037.5 833 c 128,-1,38
 977 947 977 947 770 947 c 2,0,-1
EndSplineSet
EndChar

StartChar: tm_hundred
Encoding: 3057 3057 107
Width: 1375
GlyphClass: 2
Flags: W
LayerCount: 2
Fore
SplineSet
1229 695 m 1,0,-1
 1229 0 l 1,1,-1
 932 0 l 1,2,-1
 932 695 l 1,3,4
 826 686 826 686 773.5 619.5 c 128,-1,5
 721 553 721 553 721 432 c 2,6,-1
 721 0 l 1,7,-1
 455 0 l 1,8,-1
 455 588 l 2,9,10
 455 646 455 646 435.5 680.5 c 128,-1,11
 416 715 416 715 361 713 c 0,12,13
 240 709 240 709 241 596.5 c 128,-1,14
 242 484 242 484 242 477 c 2,15,-1
 242 0 l 1,16,-1
 107 0 l 1,17,-1
 107 506 l 2,18,19
 107 670 107 670 171.5 733.5 c 128,-1,20
 236 797 236 797 422 795 c 0,21,22
 527 795 527 795 593.5 770.5 c 128,-1,23
 660 746 660 746 682 666 c 1,24,25
 725 727 725 727 798 754 c 128,-1,26
 871 781 871 781 959 779 c 2,27,-1
 1361 779 l 1,28,-1
 1361 695 l 1,29,-1
 1229 695 l 1,0,-1
EndSplineSet
EndChar

StartChar: tm_thousand
Encoding: 3058 3058 108
Width: 1621
GlyphClass: 2
Flags: W
LayerCount: 2
Fore
SplineSet
514 414 m 1,0,-1
 363 414 l 2,1,2
 268 414 268 414 217 376 c 128,-1,3
 166 338 166 338 166 264 c 0,4,5
 168 189 168 189 218 146.5 c 128,-1,6
 268 104 268 104 344 104 c 0,7,8
 426 104 426 104 470 150.5 c 128,-1,9
 514 197 514 197 514 293 c 2,10,-1
 514 414 l 1,0,-1
1180 311 m 1,11,12
 1215 322 1215 322 1250 328 c 128,-1,13
 1285 334 1285 334 1318 334 c 0,14,15
 1447 334 1447 334 1515.5 267.5 c 128,-1,16
 1584 201 1584 201 1584 74 c 0,17,18
 1582 -98 1582 -98 1471.5 -161.5 c 128,-1,19
 1361 -225 1361 -225 1238 -225 c 2,20,-1
 996 -225 l 2,21,22
 912 -225 912 -225 890.5 -250 c 128,-1,23
 869 -275 869 -275 869 -348 c 2,24,-1
 869 -377 l 1,25,-1
 574 -377 l 1,26,-1
 574 -342 l 2,27,28
 574 -232 574 -232 629 -186.5 c 128,-1,29
 684 -141 684 -141 812 -141 c 2,30,-1
 1033 -141 l 2,31,32
 1182 -141 1182 -141 1245.5 -93 c 128,-1,33
 1309 -45 1309 -45 1309 55 c 2,34,-1
 1309 133 l 2,35,36
 1309 182 1309 182 1295 206 c 128,-1,37
 1281 230 1281 230 1246 230 c 256,38,39
 1211 230 1211 230 1195.5 209.5 c 128,-1,40
 1180 189 1180 189 1180 152 c 2,41,-1
 1180 2 l 1,42,-1
 910 2 l 1,43,-1
 910 414 l 1,44,-1
 809 414 l 1,45,-1
 809 305 l 2,46,47
 809 125 809 125 694.5 58.5 c 128,-1,48
 580 -8 580 -8 387 -8 c 0,49,50
 225 -8 225 -8 135 56.5 c 128,-1,51
 45 121 45 121 45 250 c 0,52,53
 45 344 45 344 103.5 408.5 c 128,-1,54
 162 473 162 473 252 488 c 1,55,-1
 252 781 l 1,56,-1
 1047 781 l 1,57,-1
 1047 697 l 1,58,-1
 809 697 l 1,59,-1
 809 496 l 1,60,-1
 1295 496 l 1,61,-1
 1295 414 l 1,62,-1
 1180 414 l 1,63,-1
 1180 311 l 1,11,12
514 697 m 1,64,-1
 387 697 l 1,65,-1
 387 496 l 1,66,-1
 514 496 l 1,67,-1
 514 697 l 1,64,-1
EndSplineSet
EndChar

StartChar: zerowidthnonjoiner
Encoding: 8204 8204 109
Width: 0
GlyphClass: 2
Flags: W
LayerCount: 2
Fore
SplineSet
315 1225 m 1,0,-1
 -34 -516 l 1,1,-1
 -103 -516 l 1,2,-1
 244 1225 l 1,3,-1
 315 1225 l 1,0,-1
EndSplineSet
EndChar

StartChar: zerowidthjoiner
Encoding: 8205 8205 110
Width: 0
GlyphClass: 2
Flags: W
LayerCount: 2
Fore
SplineSet
415 997 m 1,0,-1
 363 953 l 1,1,-1
 270 1073 l 1,2,-1
 -24 -441 l 1,3,-1
 -87 -441 l 1,4,-1
 206 1073 l 1,5,-1
 65 953 l 1,6,-1
 32 997 l 1,7,-1
 210 1145 l 1,8,-1
 89 1292 l 1,9,-1
 140 1334 l 1,10,-1
 260 1185 l 1,11,-1
 437 1334 l 1,12,-1
 472 1292 l 1,13,-1
 294 1145 l 1,14,-1
 415 997 l 1,0,-1
EndSplineSet
EndChar

StartChar: u2013
Encoding: 8211 8211 111
Width: 722
GlyphClass: 2
Flags: W
LayerCount: 2
Fore
SplineSet
733 319 m 1,0,-1
 -12 319 l 1,1,-1
 -12 370 l 1,2,-1
 733 370 l 1,3,-1
 733 319 l 1,0,-1
EndSplineSet
EndChar

StartChar: u2014
Encoding: 8212 8212 112
Width: 1284
GlyphClass: 2
Flags: W
LayerCount: 2
Fore
SplineSet
1296 318 m 1,0,-1
 -13 319 l 1,1,-1
 -13 371 l 1,2,-1
 1296 370 l 1,3,-1
 1296 318 l 1,0,-1
EndSplineSet
EndChar

StartChar: u2018
Encoding: 65539 -1 113
Width: 564
GlyphClass: 2
Flags: W
LayerCount: 2
Fore
SplineSet
293 986 m 1,0,-1
 344 922 l 1,1,2
 303 898 303 898 270.5 862 c 128,-1,3
 238 826 238 826 223 785 c 1,4,5
 238 791 238 791 254 794 c 128,-1,6
 270 797 270 797 287 797 c 0,7,8
 354 797 354 797 400.5 751 c 128,-1,9
 447 705 447 705 447 639 c 0,10,11
 447 572 447 572 400.5 526 c 128,-1,12
 354 480 354 480 287 480 c 0,13,14
 205 480 205 480 161 540 c 128,-1,15
 117 600 117 600 117 684 c 0,16,17
 117 775 117 775 164 855.5 c 128,-1,18
 211 936 211 936 293 986 c 1,0,-1
EndSplineSet
EndChar

StartChar: u2019
Encoding: 65540 -1 114
Width: 564
GlyphClass: 2
Flags: W
LayerCount: 2
Fore
SplineSet
271 605 m 1,0,-1
 221 666 l 1,1,2
 262 689 262 689 294 725.5 c 128,-1,3
 326 762 326 762 342 803 c 1,4,5
 324 797 324 797 307.5 793 c 128,-1,6
 291 789 291 789 275 789 c 0,7,8
 211 789 211 789 164 836 c 128,-1,9
 117 883 117 883 117 949 c 0,10,11
 117 1016 117 1016 164 1063.5 c 128,-1,12
 211 1111 211 1111 275 1111 c 0,13,14
 359 1111 359 1111 403 1050.5 c 128,-1,15
 447 990 447 990 447 904 c 0,16,17
 447 812 447 812 399.5 732 c 128,-1,18
 352 652 352 652 271 605 c 1,0,-1
EndSplineSet
EndChar

StartChar: u201C
Encoding: 65541 -1 115
Width: 680
GlyphClass: 2
Flags: W
LayerCount: 2
Fore
SplineSet
8 968 m 1,0,1
 38 1064 38 1064 118 1150 c 128,-1,2
 198 1236 198 1236 290 1266 c 1,3,-1
 286 1234 l 1,4,5
 200 1172 200 1172 166 1136 c 1,6,7
 106 1060 106 1060 106 1000 c 1,8,-1
 110 968 l 1,9,-1
 144 966 l 1,10,-1
 198 956 l 1,11,12
 230 942 230 942 230 910 c 1,13,-1
 226 882 l 1,14,15
 202 786 202 786 122 786 c 0,16,17
 4 786 4 786 4 926 c 1,18,-1
 8 968 l 1,0,1
328 968 m 1,19,20
 358 1064 358 1064 438 1150 c 128,-1,21
 518 1236 518 1236 610 1266 c 1,22,-1
 606 1234 l 1,23,24
 520 1172 520 1172 486 1136 c 1,25,26
 426 1060 426 1060 426 1000 c 1,27,-1
 430 968 l 1,28,-1
 464 966 l 1,29,-1
 518 956 l 1,30,31
 550 942 550 942 550 910 c 1,32,-1
 546 882 l 1,33,34
 522 786 522 786 442 786 c 0,35,36
 324 786 324 786 324 926 c 1,37,-1
 328 968 l 1,19,20
EndSplineSet
EndChar

StartChar: u201D
Encoding: 65542 -1 116
Width: 696
GlyphClass: 2
Flags: W
LayerCount: 2
Fore
SplineSet
304 1074 m 1,0,1
 276 972 276 972 198 888 c 128,-1,2
 120 804 120 804 20 778 c 1,3,-1
 28 808 l 1,4,5
 120 880 120 880 142 904 c 0,6,7
 208 978 208 978 208 1034 c 1,8,-1
 206 1054 l 1,9,-1
 200 1074 l 1,10,-1
 108 1082 l 1,11,12
 82 1096 82 1096 82 1126 c 2,13,-1
 86 1156 l 1,14,15
 122 1258 122 1258 192 1258 c 0,16,17
 308 1258 308 1258 308 1114 c 1,18,-1
 304 1074 l 1,0,1
624 1074 m 1,19,20
 596 972 596 972 518 888 c 128,-1,21
 440 804 440 804 340 778 c 1,22,-1
 348 808 l 1,23,24
 440 880 440 880 462 904 c 0,25,26
 528 978 528 978 528 1034 c 1,27,-1
 526 1054 l 1,28,-1
 520 1074 l 1,29,-1
 428 1082 l 1,30,31
 402 1096 402 1096 402 1126 c 2,32,-1
 406 1156 l 1,33,34
 442 1258 442 1258 512 1258 c 0,35,36
 628 1258 628 1258 628 1114 c 1,37,-1
 624 1074 l 1,19,20
EndSplineSet
EndChar

StartChar: u2026
Encoding: 8230 8230 117
Width: 1283
GlyphClass: 2
Flags: W
LayerCount: 2
Fore
SplineSet
265 136 m 0,0,1
 298 136 298 136 320.5 114 c 128,-1,2
 343 92 343 92 343 58 c 0,3,4
 343 26 343 26 320.5 3 c 128,-1,5
 298 -20 298 -20 265 -20 c 0,6,7
 233 -20 233 -20 210 3 c 128,-1,8
 187 26 187 26 187 58 c 0,9,10
 187 92 187 92 210 114 c 128,-1,11
 233 136 233 136 265 136 c 0,0,1
638 136 m 256,12,13
 670 136 670 136 693 114 c 128,-1,14
 716 92 716 92 716 58 c 0,15,16
 716 26 716 26 692.5 3 c 128,-1,17
 669 -20 669 -20 638 -20 c 0,18,19
 606 -20 606 -20 583 3 c 128,-1,20
 560 26 560 26 560 58 c 0,21,22
 560 92 560 92 583 114 c 128,-1,23
 606 136 606 136 638 136 c 256,12,13
1010 136 m 0,24,25
 1043 136 1043 136 1066 114 c 128,-1,26
 1089 92 1089 92 1089 58 c 0,27,28
 1089 26 1089 26 1065.5 3 c 128,-1,29
 1042 -20 1042 -20 1010 -20 c 256,30,31
 978 -20 978 -20 955.5 3 c 128,-1,32
 933 26 933 26 933 58 c 0,33,34
 933 92 933 92 955.5 114 c 128,-1,35
 978 136 978 136 1010 136 c 0,24,25
EndSplineSet
EndChar

StartChar: u2212
Encoding: 8722 8722 118
Width: 974
GlyphClass: 2
Flags: W
LayerCount: 2
Fore
SplineSet
133 450 m 1,0,-1
 133 508 l 1,1,-1
 894 508 l 1,2,-1
 894 450 l 1,3,-1
 133 450 l 1,0,-1
EndSplineSet
EndChar

StartChar: u25CC
Encoding: 9676 9676 119
Width: 1167
GlyphClass: 2
Flags: W
LayerCount: 2
Fore
SplineSet
654 665 m 0,0,1
 626 665 626 665 612 679 c 128,-1,2
 598 693 598 693 598 724 c 0,3,4
 598 746 598 746 615 762.5 c 128,-1,5
 632 779 632 779 654 779 c 0,6,7
 683 779 683 779 697.5 765 c 128,-1,8
 712 751 712 751 712 724 c 0,9,10
 712 693 712 693 697.5 679 c 128,-1,11
 683 665 683 665 654 665 c 0,0,1
840 616 m 0,12,13
 811 616 811 616 796.5 630.5 c 128,-1,14
 782 645 782 645 782 674 c 0,15,16
 782 701 782 701 796.5 715 c 128,-1,17
 811 729 811 729 840 729 c 0,18,19
 862 729 862 729 879 713 c 128,-1,20
 896 697 896 697 896 674 c 0,21,22
 896 645 896 645 882 630.5 c 128,-1,23
 868 616 868 616 840 616 c 0,12,13
470 616 m 0,24,25
 442 616 442 616 428 630.5 c 128,-1,26
 414 645 414 645 414 674 c 0,27,28
 414 697 414 697 431 713 c 128,-1,29
 448 729 448 729 470 729 c 0,30,31
 494 729 494 729 510 713 c 128,-1,32
 526 697 526 697 526 674 c 0,33,34
 526 645 526 645 512.5 630.5 c 128,-1,35
 499 616 499 616 470 616 c 0,24,25
973 482 m 0,36,37
 951 482 951 482 933.5 498 c 128,-1,38
 916 514 916 514 916 538 c 0,39,40
 916 567 916 567 930.5 581 c 128,-1,41
 945 595 945 595 973 595 c 256,42,43
 1001 595 1001 595 1014.5 581 c 128,-1,44
 1028 567 1028 567 1028 538 c 0,45,46
 1028 514 1028 514 1012 498 c 128,-1,47
 996 482 996 482 973 482 c 0,36,37
336 482 m 0,48,49
 307 482 307 482 293 495.5 c 128,-1,50
 279 509 279 509 279 538 c 256,51,52
 279 567 279 567 293 581 c 128,-1,53
 307 595 307 595 336 595 c 0,54,55
 364 595 364 595 378 581 c 128,-1,56
 392 567 392 567 392 538 c 0,57,58
 392 514 392 514 375 498 c 128,-1,59
 358 482 358 482 336 482 c 0,48,49
1024 298 m 0,60,61
 994 298 994 298 979.5 311.5 c 128,-1,62
 965 325 965 325 965 354 c 0,63,64
 965 382 965 382 979.5 396 c 128,-1,65
 994 410 994 410 1024 410 c 0,66,67
 1046 410 1046 410 1063 393 c 128,-1,68
 1080 376 1080 376 1080 354 c 0,69,70
 1080 331 1080 331 1063 314.5 c 128,-1,71
 1046 298 1046 298 1024 298 c 0,60,61
287 298 m 0,72,73
 257 298 257 298 243 311.5 c 128,-1,74
 229 325 229 325 229 354 c 0,75,76
 229 382 229 382 243 396 c 128,-1,77
 257 410 257 410 287 410 c 0,78,79
 310 410 310 410 326.5 393 c 128,-1,80
 343 376 343 376 343 354 c 0,81,82
 343 331 343 331 326.5 314.5 c 128,-1,83
 310 298 310 298 287 298 c 0,72,73
973 112 m 256,84,85
 945 112 945 112 930.5 126.5 c 128,-1,86
 916 141 916 141 916 169 c 0,87,88
 916 193 916 193 933.5 209.5 c 128,-1,89
 951 226 951 226 973 226 c 0,90,91
 996 226 996 226 1012 209.5 c 128,-1,92
 1028 193 1028 193 1028 169 c 0,93,94
 1028 141 1028 141 1014.5 126.5 c 128,-1,95
 1001 112 1001 112 973 112 c 256,84,85
336 112 m 0,96,97
 307 112 307 112 293 126.5 c 128,-1,98
 279 141 279 141 279 169 c 0,99,100
 279 198 279 198 293 212 c 128,-1,101
 307 226 307 226 336 226 c 0,102,103
 358 226 358 226 375 209.5 c 128,-1,104
 392 193 392 193 392 169 c 0,105,106
 392 141 392 141 378 126.5 c 128,-1,107
 364 112 364 112 336 112 c 0,96,97
840 -22 m 0,108,109
 811 -22 811 -22 796.5 -8 c 128,-1,110
 782 6 782 6 782 34 c 0,111,112
 782 63 782 63 796.5 78 c 128,-1,113
 811 93 811 93 840 93 c 0,114,115
 863 93 863 93 879.5 75 c 128,-1,116
 896 57 896 57 896 34 c 256,117,118
 896 11 896 11 879 -5.5 c 128,-1,119
 862 -22 862 -22 840 -22 c 0,108,109
470 -22 m 0,120,121
 448 -22 448 -22 431 -5.5 c 128,-1,122
 414 11 414 11 414 34 c 256,123,124
 414 57 414 57 430.5 75 c 128,-1,125
 447 93 447 93 470 93 c 0,126,127
 495 93 495 93 510.5 75 c 128,-1,128
 526 57 526 57 526 34 c 256,129,130
 526 11 526 11 510 -5.5 c 128,-1,131
 494 -22 494 -22 470 -22 c 0,120,121
654 -72 m 0,132,133
 632 -72 632 -72 615 -55 c 128,-1,134
 598 -38 598 -38 598 -16 c 0,135,136
 598 14 598 14 612 28.5 c 128,-1,137
 626 43 626 43 654 43 c 0,138,139
 683 43 683 43 697.5 28.5 c 128,-1,140
 712 14 712 14 712 -16 c 0,141,142
 712 -44 712 -44 697.5 -58 c 128,-1,143
 683 -72 683 -72 654 -72 c 0,132,133
EndSplineSet
EndChar

StartChar: tm_k_ikaar
Encoding: 65543 -1 120
Width: 1303
GlyphClass: 2
Flags: W
LayerCount: 2
Fore
SplineSet
514 414 m 1,0,-1
 363 414 l 2,1,2
 268 414 268 414 218 377 c 128,-1,3
 168 340 168 340 168 264 c 0,4,5
 168 191 168 191 218 147.5 c 128,-1,6
 268 104 268 104 344 104 c 0,7,8
 426 104 426 104 470 150.5 c 128,-1,9
 514 197 514 197 514 293 c 2,10,-1
 514 414 l 1,0,-1
1119 578 m 1,11,-1
 1119 787 l 2,12,13
 1117 900 1117 900 1066.5 939.5 c 128,-1,14
 1016 979 1016 979 928 979 c 0,15,16
 826 980 826 980 776.5 947 c 128,-1,17
 727 914 727 914 727 867 c 0,18,19
 725 838 725 838 743.5 812.5 c 128,-1,20
 762 787 762 787 789 781 c 1,21,-1
 1016 781 l 1,22,-1
 1016 697 l 1,23,-1
 809 697 l 1,24,-1
 809 496 l 1,25,-1
 916 496 l 2,26,27
 1068 496 1068 496 1148.5 441.5 c 128,-1,28
 1229 387 1229 387 1227 244 c 0,29,30
 1223 105 1223 105 1132 43.5 c 128,-1,31
 1041 -18 1041 -18 912 -18 c 0,32,33
 865 -18 865 -18 816.5 -9 c 128,-1,34
 768 0 768 0 732 14 c 1,35,-1
 770 98 l 1,36,37
 791 88 791 88 810.5 84 c 128,-1,38
 830 80 830 80 846 80 c 0,39,40
 900 78 900 78 923.5 120 c 128,-1,41
 947 162 947 162 947 236 c 2,42,-1
 947 287 l 2,43,44
 947 354 947 354 923.5 384 c 128,-1,45
 900 414 900 414 844 414 c 2,46,-1
 809 414 l 1,47,-1
 809 305 l 2,48,49
 809 123 809 123 695.5 57.5 c 128,-1,50
 582 -8 582 -8 387 -8 c 0,51,52
 225 -8 225 -8 135 56.5 c 128,-1,53
 45 121 45 121 45 250 c 0,54,55
 45 344 45 344 104.5 408.5 c 128,-1,56
 164 473 164 473 256 488 c 1,57,-1
 256 781 l 1,58,-1
 662 781 l 1,59,60
 627 816 627 816 610.5 857 c 128,-1,61
 594 898 594 898 594 941 c 0,62,63
 592 1051 592 1051 678 1129 c 128,-1,64
 764 1207 764 1207 906 1207 c 0,65,66
 1051 1207 1051 1207 1133 1136.5 c 128,-1,67
 1215 1066 1215 1066 1215 926 c 2,68,-1
 1215 578 l 1,69,-1
 1119 578 l 1,11,-1
514 697 m 1,70,-1
 387 697 l 1,71,-1
 387 496 l 1,72,-1
 514 496 l 1,73,-1
 514 697 l 1,70,-1
EndSplineSet
Ligature2: "'psts' Post Base Substitutions lookup 8 subtable" tm_ka tm_ikaar
EndChar

StartChar: tm_ng_ikaar
Encoding: 65544 -1 121
Width: 1705
GlyphClass: 2
Flags: W
LayerCount: 2
Fore
SplineSet
826 205 m 2,0,-1
 826 326 l 2,1,2
 826 373 826 373 807.5 392.5 c 128,-1,3
 789 412 789 412 752 412 c 0,4,5
 713 410 713 410 694.5 391.5 c 128,-1,6
 676 373 676 373 676 344 c 2,7,-1
 676 189 l 1,8,-1
 381 189 l 1,9,-1
 381 697 l 1,10,-1
 252 697 l 1,11,-1
 252 2 l 1,12,-1
 117 2 l 1,13,-1
 117 781 l 1,14,-1
 906 781 l 1,15,-1
 906 697 l 1,16,-1
 676 697 l 1,17,-1
 676 490 l 1,18,19
 713 508 713 508 753 517.5 c 128,-1,20
 793 527 793 527 834 527 c 0,21,22
 945 527 945 527 1023.5 462.5 c 128,-1,23
 1102 398 1102 398 1102 281 c 0,24,25
 1102 225 1102 225 1083 172 c 128,-1,26
 1064 119 1064 119 1023 86 c 1,27,-1
 1201 86 l 1,28,-1
 1201 607 l 1,29,30
 1072 617 1072 617 1025.5 701 c 128,-1,31
 979 785 979 785 975 881 c 0,32,33
 973 1033 973 1033 1081 1127 c 128,-1,34
 1189 1221 1189 1221 1344 1221 c 0,35,36
 1510 1219 1510 1219 1592 1126 c 128,-1,37
 1674 1033 1674 1033 1674 867 c 2,38,-1
 1674 576 l 1,39,-1
 1582 576 l 1,40,-1
 1582 758 l 2,41,42
 1582 875 1582 875 1522.5 935.5 c 128,-1,43
 1463 996 1463 996 1346 996 c 0,44,45
 1256 998 1256 998 1183.5 955 c 128,-1,46
 1111 912 1111 912 1109 826 c 0,47,48
 1109 773 1109 773 1134.5 741 c 128,-1,49
 1160 709 1160 709 1201 699 c 1,50,-1
 1201 781 l 1,51,-1
 1498 781 l 1,52,-1
 1498 2 l 1,53,-1
 381 2 l 1,54,-1
 381 86 l 1,55,-1
 709 86 l 2,56,57
 773 86 773 86 799.5 110.5 c 128,-1,58
 826 135 826 135 826 205 c 2,0,-1
EndSplineSet
Ligature2: "'psts' Post Base Substitutions lookup 8 subtable" tm_nga tm_ikaar
EndChar

StartChar: tm_c_ikaar
Encoding: 65545 -1 122
Width: 1246
GlyphClass: 2
Flags: W
LayerCount: 2
Fore
SplineSet
514 414 m 1,0,-1
 363 414 l 2,1,2
 268 414 268 414 218 377 c 128,-1,3
 168 340 168 340 168 264 c 0,4,5
 168 191 168 191 218 147.5 c 128,-1,6
 268 104 268 104 344 104 c 0,7,8
 426 104 426 104 470 150.5 c 128,-1,9
 514 197 514 197 514 293 c 2,10,-1
 514 414 l 1,0,-1
1119 578 m 1,11,-1
 1119 787 l 2,12,13
 1117 900 1117 900 1066.5 939.5 c 128,-1,14
 1016 979 1016 979 928 979 c 0,15,16
 826 980 826 980 776.5 947 c 128,-1,17
 727 914 727 914 727 867 c 0,18,19
 725 838 725 838 743.5 812.5 c 128,-1,20
 762 787 762 787 789 781 c 1,21,-1
 1016 781 l 1,22,-1
 1016 697 l 1,23,-1
 809 697 l 1,24,-1
 809 496 l 1,25,-1
 1018 496 l 1,26,-1
 1018 414 l 1,27,-1
 809 414 l 1,28,-1
 809 305 l 2,29,30
 809 123 809 123 695.5 57.5 c 128,-1,31
 582 -8 582 -8 387 -8 c 0,32,33
 225 -8 225 -8 135 56.5 c 128,-1,34
 45 121 45 121 45 250 c 0,35,36
 45 344 45 344 104.5 408.5 c 128,-1,37
 164 473 164 473 256 488 c 1,38,-1
 256 781 l 1,39,-1
 662 781 l 1,40,41
 627 816 627 816 610.5 857 c 128,-1,42
 594 898 594 898 594 941 c 0,43,44
 592 1051 592 1051 678 1129 c 128,-1,45
 764 1207 764 1207 906 1207 c 0,46,47
 1051 1207 1051 1207 1133 1136.5 c 128,-1,48
 1215 1066 1215 1066 1215 926 c 2,49,-1
 1215 578 l 1,50,-1
 1119 578 l 1,11,-1
514 697 m 1,51,-1
 387 697 l 1,52,-1
 387 496 l 1,53,-1
 514 496 l 1,54,-1
 514 697 l 1,51,-1
EndSplineSet
Ligature2: "'psts' Post Base Substitutions lookup 8 subtable" tm_ca tm_ikaar
EndChar

StartChar: tm_j_ikaar
Encoding: 65546 -1 123
Width: 1730
GlyphClass: 2
Flags: W
LayerCount: 2
Fore
SplineSet
1184 -176 m 0,0,1
 1184 -127 1184 -127 1156.5 -102.5 c 128,-1,2
 1129 -78 1129 -78 1090 -82 c 1,3,4
 1039 -82 1039 -82 1009.5 -111.5 c 128,-1,5
 980 -141 980 -141 980 -191 c 0,6,7
 980 -240 980 -240 1008.5 -267.5 c 128,-1,8
 1037 -295 1037 -295 1076 -295 c 0,9,10
 1123 -295 1123 -295 1152.5 -261 c 128,-1,11
 1182 -227 1182 -227 1184 -176 c 0,0,1
338 301 m 0,12,13
 375 301 375 301 394.5 332 c 128,-1,14
 414 363 414 363 414 406 c 0,15,16
 414 451 414 451 393.5 481.5 c 128,-1,17
 373 512 373 512 334 510 c 0,18,19
 297 510 297 510 275.5 478.5 c 128,-1,20
 254 447 254 447 254 400 c 0,21,22
 254 359 254 359 275.5 330 c 128,-1,23
 297 301 297 301 338 301 c 0,12,13
418 -393 m 0,24,25
 270 -387 270 -387 168 -312.5 c 128,-1,26
 66 -238 66 -238 66 -88 c 0,27,28
 68 49 68 49 163 102.5 c 128,-1,29
 258 156 258 156 400 156 c 2,30,-1
 1027 156 l 2,31,32
 1105 156 1105 156 1137.5 191.5 c 128,-1,33
 1170 227 1170 227 1170 283 c 2,34,-1
 1170 479 l 2,35,36
 1170 594 1170 594 1142.5 634 c 128,-1,37
 1115 674 1115 674 1061 674 c 1,38,39
 1008 670 1008 670 975.5 624 c 128,-1,40
 943 578 943 578 943 492 c 2,41,-1
 943 221 l 1,42,-1
 646 221 l 1,43,-1
 646 467 l 2,44,45
 646 590 646 590 610 645.5 c 128,-1,46
 574 701 574 701 457 703 c 0,47,48
 336 703 336 703 249 647.5 c 128,-1,49
 162 592 162 592 162 479 c 0,50,51
 162 457 162 457 167 435.5 c 128,-1,52
 172 414 172 414 180 398 c 1,53,54
 168 482 168 482 225.5 544.5 c 128,-1,55
 283 607 283 607 377 605 c 0,56,57
 457 605 457 605 511.5 550.5 c 128,-1,58
 566 496 566 496 564 416 c 0,59,60
 564 318 564 318 496 264.5 c 128,-1,61
 428 211 428 211 328 211 c 0,62,63
 207 211 207 211 133 274.5 c 128,-1,64
 59 338 59 338 59 469 c 0,65,66
 57 625 57 625 183 707 c 128,-1,67
 309 789 309 789 498 785 c 0,68,69
 617 781 617 781 709 742 c 128,-1,70
 801 703 801 703 852 627 c 1,71,72
 881 689 881 689 960 725.5 c 128,-1,73
 1039 762 1039 762 1141 762 c 1,74,75
 1105 799 1105 799 1089.5 830 c 128,-1,76
 1074 861 1074 861 1072 902 c 0,77,78
 1070 1012 1070 1012 1156 1089 c 128,-1,79
 1242 1166 1242 1166 1385 1166 c 0,80,81
 1529 1166 1529 1166 1611 1095.5 c 128,-1,82
 1693 1025 1693 1025 1693 885 c 2,83,-1
 1693 537 l 1,84,-1
 1602 537 l 1,85,-1
 1602 746 l 1,86,87
 1598 861 1598 861 1546 900 c 128,-1,88
 1494 939 1494 939 1406 939 c 0,89,90
 1330 939 1330 939 1267.5 914 c 128,-1,91
 1205 889 1205 889 1205 822 c 0,92,93
 1205 783 1205 783 1224.5 762.5 c 128,-1,94
 1244 742 1244 742 1275 742 c 1,95,96
 1359 729 1359 729 1413 643 c 128,-1,97
 1467 557 1467 557 1467 441 c 0,98,99
 1469 240 1469 240 1350.5 157 c 128,-1,100
 1232 74 1232 74 1027 74 c 2,101,-1
 621 74 l 2,102,103
 479 74 479 74 418 50.5 c 128,-1,104
 357 27 357 27 357 -78 c 2,105,-1
 357 -150 l 2,106,107
 357 -221 357 -221 395.5 -258 c 128,-1,108
 434 -295 434 -295 492 -297 c 0,109,110
 590 -297 590 -297 632 -215 c 128,-1,111
 674 -133 674 -133 687 -113 c 0,112,113
 744 -31 744 -31 858.5 -5 c 128,-1,114
 973 21 973 21 1119 21 c 0,115,116
 1264 21 1264 21 1365.5 -18 c 128,-1,117
 1467 -57 1467 -57 1463 -182 c 0,118,119
 1461 -295 1461 -295 1378 -346.5 c 128,-1,120
 1295 -398 1295 -398 1162 -404 c 0,121,122
 1021 -408 1021 -408 941 -361 c 128,-1,123
 861 -314 861 -314 859 -199 c 0,124,125
 859 -174 859 -174 868 -145.5 c 128,-1,126
 877 -117 877 -117 891 -94 c 1,127,128
 840 -100 840 -100 805 -143 c 128,-1,129
 770 -186 770 -186 736 -260 c 0,130,131
 699 -342 699 -342 612 -370 c 128,-1,132
 525 -398 525 -398 418 -393 c 0,24,25
EndSplineSet
Ligature2: "'psts' Post Base Substitutions lookup 8 subtable" tm_ja tm_ikaar
EndChar

StartChar: tm_ny_ikaar
Encoding: 65547 -1 124
Width: 1883
GlyphClass: 2
Flags: W
LayerCount: 2
Fore
SplineSet
547 234 m 0,0,1
 549 150 549 150 575.5 110 c 128,-1,2
 602 70 602 70 641 74 c 0,3,4
 680 74 680 74 702.5 119 c 128,-1,5
 725 164 725 164 725 258 c 0,6,7
 725 334 725 334 701.5 369 c 128,-1,8
 678 404 678 404 641 400 c 0,9,10
 600 398 600 398 572.5 351.5 c 128,-1,11
 545 305 545 305 547 234 c 0,0,1
1693 576 m 1,12,-1
 1693 785 l 1,13,14
 1689 900 1689 900 1637.5 939.5 c 128,-1,15
 1586 979 1586 979 1498 979 c 0,16,17
 1422 979 1422 979 1359.5 953.5 c 128,-1,18
 1297 928 1297 928 1297 861 c 0,19,20
 1297 822 1297 822 1316.5 801.5 c 128,-1,21
 1336 781 1336 781 1367 781 c 2,22,-1
 1547 781 l 1,23,-1
 1547 697 l 1,24,-1
 1373 697 l 1,25,-1
 1373 424 l 1,26,27
 1414 441 1414 441 1458 451 c 128,-1,28
 1502 461 1502 461 1543 459 c 0,29,30
 1660 459 1660 459 1731.5 389.5 c 128,-1,31
 1803 320 1803 320 1805 184 c 0,32,33
 1805 -166 1805 -166 1542 -299 c 128,-1,34
 1279 -432 1279 -432 900 -424 c 0,35,36
 502 -414 502 -414 288 -255 c 128,-1,37
 74 -96 74 -96 76 275 c 0,38,39
 76 428 76 428 142.5 567.5 c 128,-1,40
 209 707 209 707 334 795 c 1,41,-1
 383 746 l 1,42,43
 281 670 281 670 240 547 c 128,-1,44
 199 424 199 424 199 271 c 0,45,46
 197 -49 197 -49 380.5 -188.5 c 128,-1,47
 564 -328 564 -328 914 -328 c 0,48,49
 1193 -326 1193 -326 1360 -226.5 c 128,-1,50
 1527 -127 1527 -127 1529 117 c 2,51,-1
 1529 246 l 2,52,53
 1529 297 1529 297 1506.5 323.5 c 128,-1,54
 1484 350 1484 350 1449 350 c 0,55,56
 1422 350 1422 350 1399.5 331 c 128,-1,57
 1377 312 1377 312 1373 281 c 1,58,-1
 1373 2 l 1,59,-1
 1078 2 l 1,60,-1
 1078 697 l 1,61,-1
 920 697 l 2,62,63
 723 697 723 697 585 617 c 128,-1,64
 447 537 447 537 443 355 c 1,65,-1
 443 320 l 1,66,67
 461 428 461 428 543 483.5 c 128,-1,68
 625 539 625 539 736 537 c 0,69,70
 857 533 857 533 930.5 465.5 c 128,-1,71
 1004 398 1004 398 1000 264 c 0,72,73
 996 129 996 129 896.5 54 c 128,-1,74
 797 -21 797 -21 662 -18 c 0,75,76
 482 -16 482 -16 399 82 c 128,-1,77
 316 180 316 180 320 344 c 0,78,79
 320 420 320 420 341.5 482.5 c 128,-1,80
 363 545 363 545 402 596 c 0,81,82
 486 697 486 697 622 739 c 128,-1,83
 758 781 758 781 914 781 c 2,84,-1
 1232 781 l 1,85,86
 1201 816 1201 816 1184.5 857 c 128,-1,87
 1168 898 1168 898 1164 941 c 0,88,89
 1162 1051 1162 1051 1248 1128 c 128,-1,90
 1334 1205 1334 1205 1477 1205 c 0,91,92
 1621 1205 1621 1205 1703 1134.5 c 128,-1,93
 1785 1064 1785 1064 1785 924 c 2,94,-1
 1785 576 l 1,95,-1
 1693 576 l 1,12,-1
EndSplineSet
Ligature2: "'psts' Post Base Substitutions lookup 8 subtable" tm_nya tm_ikaar
EndChar

StartChar: tm_tt_ikaar
Encoding: 65548 -1 125
Width: 1348
GlyphClass: 2
Flags: W
LayerCount: 2
Fore
SplineSet
414 779 m 1,0,-1
 414 84 l 1,1,-1
 717 84 l 1,2,3
 637 133 637 133 589 216 c 128,-1,4
 541 299 541 299 533 404 c 0,5,6
 525 582 525 582 645.5 681.5 c 128,-1,7
 766 781 766 781 947 781 c 0,8,9
 1105 779 1105 779 1163 703 c 128,-1,10
 1221 627 1221 627 1221 457 c 2,11,-1
 1221 84 l 1,12,-1
 1332 84 l 1,13,-1
 1332 0 l 1,14,-1
 1221 0 l 1,15,-1
 1221 -316 l 1,16,-1
 924 -316 l 1,17,-1
 924 0 l 1,18,-1
 117 0 l 1,19,-1
 117 779 l 1,20,-1
 414 779 l 1,0,-1
924 84 m 1,21,-1
 924 486 l 2,22,23
 924 568 924 568 906.5 613 c 128,-1,24
 889 658 889 658 818 654 c 0,25,26
 752 652 752 652 703 586 c 128,-1,27
 654 520 654 520 658 410 c 0,28,29
 662 285 662 285 732.5 194.5 c 128,-1,30
 803 104 803 104 924 84 c 1,21,-1
EndSplineSet
Ligature2: "'psts' Post Base Substitutions lookup 8 subtable" tm_tta tm_ikaar
EndChar

StartChar: tm_nn_ikaar
Encoding: 65549 -1 126
Width: 2611
GlyphClass: 2
Flags: W
LayerCount: 2
Fore
SplineSet
287 230 m 0,0,1
 291 148 291 148 316.5 108 c 128,-1,2
 342 68 342 68 379 66 c 0,3,4
 434 66 434 66 449.5 124 c 128,-1,5
 465 182 465 182 465 250 c 0,6,7
 465 324 465 324 443.5 360 c 128,-1,8
 422 396 422 396 387 396 c 0,9,10
 336 396 336 396 311.5 341.5 c 128,-1,11
 287 287 287 287 287 230 c 0,0,1
2229 697 m 1,12,-1
 2229 2 l 1,13,-1
 1934 2 l 1,14,-1
 1934 697 l 1,15,-1
 1861 697 l 2,16,17
 1799 697 1799 697 1739.5 686.5 c 128,-1,18
 1680 676 1680 676 1643 658 c 1,19,20
 1732 590 1732 590 1785 502 c 128,-1,21
 1838 414 1838 414 1838 311 c 0,22,23
 1836 164 1836 164 1742 69.5 c 128,-1,24
 1648 -25 1648 -25 1502 -25 c 0,25,26
 1402 -25 1402 -25 1333 34.5 c 128,-1,27
 1264 94 1264 94 1238 189 c 1,28,29
 1205 90 1205 90 1121 32.5 c 128,-1,30
 1037 -25 1037 -25 922 -25 c 0,31,32
 848 -25 848 -25 791 8 c 128,-1,33
 734 41 734 41 697 100 c 1,34,35
 652 35 652 35 575 0 c 128,-1,36
 498 -35 498 -35 410 -35 c 0,37,38
 240 -35 240 -35 151 61.5 c 128,-1,39
 62 158 62 158 62 328 c 0,40,41
 62 553 62 553 230 671 c 128,-1,42
 398 789 398 789 629 789 c 0,43,44
 717 789 717 789 804 773.5 c 128,-1,45
 891 758 891 758 961 725 c 1,46,47
 1029 758 1029 758 1101.5 775.5 c 128,-1,48
 1174 793 1174 793 1250 793 c 0,49,50
 1324 793 1324 793 1397.5 775.5 c 128,-1,51
 1471 758 1471 758 1539 725 c 1,52,53
 1611 758 1611 758 1687.5 769.5 c 128,-1,54
 1764 781 1764 781 1861 781 c 2,55,-1
 2027 781 l 1,56,57
 1996 816 1996 816 1979.5 857 c 128,-1,58
 1963 898 1963 898 1959 941 c 0,59,60
 1957 1051 1957 1051 2043 1128 c 128,-1,61
 2129 1205 2129 1205 2271 1205 c 0,62,63
 2416 1205 2416 1205 2498 1134.5 c 128,-1,64
 2580 1064 2580 1064 2580 924 c 2,65,-1
 2580 576 l 1,66,-1
 2488 576 l 1,67,-1
 2488 785 l 1,68,69
 2484 900 2484 900 2432.5 939.5 c 128,-1,70
 2381 979 2381 979 2293 979 c 0,71,72
 2217 979 2217 979 2154.5 953.5 c 128,-1,73
 2092 928 2092 928 2092 861 c 0,74,75
 2092 822 2092 822 2111.5 801.5 c 128,-1,76
 2131 781 2131 781 2162 781 c 2,77,-1
 2389 781 l 1,78,-1
 2389 697 l 1,79,-1
 2229 697 l 1,12,-1
1398 633 m 1,80,81
 1357 662 1357 662 1309.5 676.5 c 128,-1,82
 1262 691 1262 691 1211 695 c 0,83,84
 1172 695 1172 695 1134 686.5 c 128,-1,85
 1096 678 1096 678 1062 658 c 1,86,87
 1137 604 1137 604 1183 539.5 c 128,-1,88
 1229 475 1229 475 1246 404 c 1,89,90
 1264 469 1264 469 1303 525.5 c 128,-1,91
 1342 582 1342 582 1398 633 c 1,80,81
680 445 m 1,92,93
 703 498 703 498 740 546 c 128,-1,94
 777 594 777 594 818 633 c 1,95,96
 766 664 766 664 708 677.5 c 128,-1,97
 650 691 650 691 586 691 c 0,98,99
 428 691 428 691 308.5 595.5 c 128,-1,100
 189 500 189 500 186 340 c 2,101,-1
 186 305 l 1,102,103
 199 406 199 406 276.5 467.5 c 128,-1,104
 354 529 354 529 459 529 c 0,105,106
 523 529 523 529 582 508.5 c 128,-1,107
 641 488 641 488 680 445 c 1,92,93
891 572 m 1,108,109
 826 510 826 510 794 435.5 c 128,-1,110
 762 361 762 361 762 275 c 0,111,112
 762 213 762 213 788 159 c 128,-1,113
 814 105 814 105 873 105 c 0,114,115
 939 107 939 107 969.5 168 c 128,-1,116
 1000 229 1000 229 1000 301 c 0,117,118
 1000 381 1000 381 972.5 450.5 c 128,-1,119
 945 520 945 520 891 572 c 1,108,109
1471 572 m 1,120,121
 1406 510 1406 510 1374 435.5 c 128,-1,122
 1342 361 1342 361 1342 275 c 0,123,124
 1342 211 1342 211 1366.5 158 c 128,-1,125
 1391 105 1391 105 1449 105 c 0,126,127
 1518 107 1518 107 1547 168 c 128,-1,128
 1576 229 1576 229 1576 301 c 0,129,130
 1576 381 1576 381 1550.5 450.5 c 128,-1,131
 1525 520 1525 520 1471 572 c 1,120,121
EndSplineSet
Ligature2: "'psts' Post Base Substitutions lookup 8 subtable" tm_nna tm_ikaar
EndChar

StartChar: tm_t_ikaar
Encoding: 65550 -1 127
Width: 1301
GlyphClass: 2
Flags: W
LayerCount: 2
Fore
SplineSet
514 414 m 1,0,-1
 363 414 l 2,1,2
 268 414 268 414 218 377 c 128,-1,3
 168 340 168 340 168 264 c 0,4,5
 168 191 168 191 218 147.5 c 128,-1,6
 268 104 268 104 344 104 c 0,7,8
 426 104 426 104 470 150.5 c 128,-1,9
 514 197 514 197 514 293 c 2,10,-1
 514 414 l 1,0,-1
1119 578 m 1,11,-1
 1119 787 l 2,12,13
 1117 900 1117 900 1066.5 939.5 c 128,-1,14
 1016 979 1016 979 928 979 c 0,15,16
 826 980 826 980 776.5 947 c 128,-1,17
 727 914 727 914 727 867 c 0,18,19
 725 838 725 838 743.5 812.5 c 128,-1,20
 762 787 762 787 789 781 c 1,21,-1
 1016 781 l 1,22,-1
 1016 697 l 1,23,-1
 809 697 l 1,24,-1
 809 496 l 1,25,-1
 916 496 l 2,26,27
 1057 496 1057 496 1138 429.5 c 128,-1,28
 1219 363 1219 363 1217 238 c 0,29,30
 1215 14 1215 14 1065.5 -70 c 128,-1,31
 916 -154 916 -154 676 -154 c 2,32,-1
 434 -154 l 2,33,34
 348 -154 348 -154 317.5 -185.5 c 128,-1,35
 287 -217 287 -217 287 -293 c 2,36,-1
 287 -340 l 1,37,-1
 -8 -340 l 1,38,-1
 -8 -273 l 2,39,40
 -8 -166 -8 -166 57.5 -119 c 128,-1,41
 123 -72 123 -72 256 -72 c 2,42,-1
 666 -72 l 2,43,44
 809 -72 809 -72 876 -4 c 128,-1,45
 943 64 943 64 943 160 c 2,46,-1
 943 287 l 2,47,48
 943 354 943 354 919.5 384 c 128,-1,49
 896 414 896 414 840 414 c 2,50,-1
 809 414 l 1,51,-1
 809 305 l 2,52,53
 809 123 809 123 695.5 57.5 c 128,-1,54
 582 -8 582 -8 387 -8 c 0,55,56
 225 -8 225 -8 135 56.5 c 128,-1,57
 45 121 45 121 45 250 c 0,58,59
 45 344 45 344 104.5 408.5 c 128,-1,60
 164 473 164 473 256 488 c 1,61,-1
 256 781 l 1,62,-1
 662 781 l 1,63,64
 627 816 627 816 610.5 857 c 128,-1,65
 594 898 594 898 594 941 c 0,66,67
 592 1051 592 1051 678 1129 c 128,-1,68
 764 1207 764 1207 906 1207 c 0,69,70
 1051 1207 1051 1207 1133 1136.5 c 128,-1,71
 1215 1066 1215 1066 1215 926 c 2,72,-1
 1215 578 l 1,73,-1
 1119 578 l 1,11,-1
514 697 m 1,74,-1
 387 697 l 1,75,-1
 387 496 l 1,76,-1
 514 496 l 1,77,-1
 514 697 l 1,74,-1
EndSplineSet
Ligature2: "'psts' Post Base Substitutions lookup 8 subtable" tm_ta tm_ikaar
EndChar

StartChar: tm_n_ikaar
Encoding: 65551 -1 128
Width: 1187
GlyphClass: 2
Flags: W
LayerCount: 2
Fore
SplineSet
676 697 m 1,0,-1
 676 475 l 1,1,2
 711 490 711 490 750 498 c 128,-1,3
 789 506 789 506 830 506 c 0,4,5
 961 508 961 508 1035 425 c 128,-1,6
 1109 342 1109 342 1105 209 c 0,7,8
 1102 -8 1102 -8 968 -81 c 128,-1,9
 834 -154 834 -154 598 -154 c 2,10,-1
 420 -154 l 2,11,12
 336 -154 336 -154 314.5 -179.5 c 128,-1,13
 293 -205 293 -205 293 -279 c 2,14,-1
 293 -340 l 1,15,-1
 -4 -340 l 1,16,-1
 -4 -273 l 2,17,18
 -4 -164 -4 -164 50.5 -118 c 128,-1,19
 105 -72 105 -72 236 -72 c 2,20,-1
 555 -72 l 2,21,22
 701 -72 701 -72 765.5 -22.5 c 128,-1,23
 830 27 830 27 830 127 c 2,24,-1
 830 307 l 2,25,26
 830 357 830 357 812.5 382.5 c 128,-1,27
 795 408 795 408 752 408 c 0,28,29
 713 408 713 408 694.5 381 c 128,-1,30
 676 354 676 354 676 311 c 2,31,-1
 676 2 l 1,32,-1
 379 2 l 1,33,-1
 379 697 l 1,34,-1
 250 697 l 1,35,-1
 250 2 l 1,36,-1
 117 2 l 1,37,-1
 117 781 l 1,38,-1
 535 781 l 1,39,40
 504 816 504 816 487.5 857 c 128,-1,41
 471 898 471 898 467 941 c 0,42,43
 465 1051 465 1051 551 1128 c 128,-1,44
 637 1205 637 1205 779 1205 c 0,45,46
 924 1205 924 1205 1006 1134.5 c 128,-1,47
 1088 1064 1088 1064 1088 924 c 2,48,-1
 1088 576 l 1,49,-1
 996 576 l 1,50,-1
 996 785 l 1,51,52
 992 900 992 900 940.5 939.5 c 128,-1,53
 889 979 889 979 801 979 c 0,54,55
 725 979 725 979 662.5 953.5 c 128,-1,56
 600 928 600 928 600 861 c 0,57,58
 600 822 600 822 619.5 801.5 c 128,-1,59
 639 781 639 781 670 781 c 2,60,-1
 939 781 l 1,61,-1
 939 697 l 1,62,-1
 676 697 l 1,0,-1
EndSplineSet
Ligature2: "'psts' Post Base Substitutions lookup 8 subtable" tm_na tm_ikaar
EndChar

StartChar: tm_nnn_ikaar
Encoding: 65552 -1 129
Width: 2035
GlyphClass: 2
Flags: W
LayerCount: 2
Fore
SplineSet
289 230 m 0,0,1
 291 148 291 148 316.5 107 c 128,-1,2
 342 66 342 66 379 66 c 0,3,4
 434 66 434 66 449.5 124 c 128,-1,5
 465 182 465 182 465 250 c 0,6,7
 465 324 465 324 443.5 360 c 128,-1,8
 422 396 422 396 387 396 c 0,9,10
 336 395 336 395 311.5 340 c 128,-1,11
 287 285 287 285 289 230 c 0,0,1
684 445 m 1,12,13
 707 498 707 498 742 547 c 128,-1,14
 777 596 777 596 820 633 c 1,15,16
 768 664 768 664 709 677.5 c 128,-1,17
 650 691 650 691 586 691 c 0,18,19
 428 691 428 691 308.5 595.5 c 128,-1,20
 189 500 189 500 186 340 c 2,21,-1
 186 305 l 1,22,23
 199 406 199 406 276.5 467.5 c 128,-1,24
 354 529 354 529 459 529 c 0,25,26
 523 529 523 529 583 508.5 c 128,-1,27
 643 488 643 488 684 445 c 1,12,13
891 572 m 1,28,29
 828 510 828 510 796 435.5 c 128,-1,30
 764 361 764 361 764 275 c 0,31,32
 764 211 764 211 789 158 c 128,-1,33
 814 105 814 105 873 105 c 0,34,35
 939 107 939 107 969.5 168 c 128,-1,36
 1000 229 1000 229 1000 301 c 0,37,38
 1000 381 1000 381 972.5 450.5 c 128,-1,39
 945 520 945 520 891 572 c 1,28,29
1650 697 m 1,40,-1
 1650 2 l 1,41,-1
 1352 2 l 1,42,-1
 1352 697 l 1,43,-1
 1283 697 l 2,44,45
 1221 697 1221 697 1160.5 686.5 c 128,-1,46
 1100 676 1100 676 1062 658 c 1,47,48
 1162 584 1162 584 1210 495 c 128,-1,49
 1258 406 1258 406 1258 311 c 0,50,51
 1258 164 1258 164 1164 68.5 c 128,-1,52
 1070 -27 1070 -27 924 -25 c 0,53,54
 850 -25 850 -25 793 8 c 128,-1,55
 736 41 736 41 697 100 c 1,56,57
 652 35 652 35 575 0 c 128,-1,58
 498 -35 498 -35 410 -35 c 0,59,60
 240 -35 240 -35 151 61.5 c 128,-1,61
 62 158 62 158 62 328 c 0,62,63
 62 553 62 553 230 671 c 128,-1,64
 398 789 398 789 629 789 c 0,65,66
 717 789 717 789 804 773.5 c 128,-1,67
 891 758 891 758 961 725 c 1,68,69
 1041 762 1041 762 1110.5 771.5 c 128,-1,70
 1180 781 1180 781 1283 781 c 2,71,-1
 1451 781 l 1,72,73
 1420 816 1420 816 1403.5 857 c 128,-1,74
 1387 898 1387 898 1383 941 c 0,75,76
 1381 1051 1381 1051 1467 1128 c 128,-1,77
 1553 1205 1553 1205 1695 1205 c 0,78,79
 1840 1205 1840 1205 1922 1134.5 c 128,-1,80
 2004 1064 2004 1064 2004 924 c 2,81,-1
 2004 576 l 1,82,-1
 1912 576 l 1,83,-1
 1912 785 l 1,84,85
 1908 900 1908 900 1856.5 939.5 c 128,-1,86
 1805 979 1805 979 1717 979 c 0,87,88
 1641 979 1641 979 1578.5 953.5 c 128,-1,89
 1516 928 1516 928 1516 861 c 0,90,91
 1516 822 1516 822 1535.5 801.5 c 128,-1,92
 1555 781 1555 781 1586 781 c 2,93,-1
 1812 781 l 1,94,-1
 1812 697 l 1,95,-1
 1650 697 l 1,40,-1
EndSplineSet
Ligature2: "'psts' Post Base Substitutions lookup 8 subtable" tm_nnna tm_ikaar
EndChar

StartChar: tm_p_ikaar
Encoding: 65553 -1 130
Width: 1451
GlyphClass: 2
Flags: W
LayerCount: 2
Fore
SplineSet
1242 779 m 1,0,-1
 1242 0 l 1,1,-1
 117 0 l 1,2,-1
 117 779 l 1,3,-1
 412 779 l 1,4,-1
 412 84 l 1,5,-1
 947 84 l 1,6,-1
 947 605 l 1,7,8
 816 617 816 617 769.5 702 c 128,-1,9
 723 787 723 787 723 879 c 0,10,11
 721 1031 721 1031 828.5 1125 c 128,-1,12
 936 1219 936 1219 1088 1219 c 0,13,14
 1256 1217 1256 1217 1338 1124 c 128,-1,15
 1420 1031 1420 1031 1420 865 c 2,16,-1
 1420 574 l 1,17,-1
 1328 574 l 1,18,-1
 1328 756 l 2,19,20
 1328 871 1328 871 1268.5 932.5 c 128,-1,21
 1209 994 1209 994 1094 994 c 0,22,23
 1002 996 1002 996 930.5 953 c 128,-1,24
 859 910 859 910 857 824 c 0,25,26
 855 771 855 771 879.5 739 c 128,-1,27
 904 707 904 707 947 697 c 1,28,-1
 947 779 l 1,29,-1
 1242 779 l 1,0,-1
EndSplineSet
Ligature2: "'psts' Post Base Substitutions lookup 8 subtable" tm_pa tm_ikaar
EndChar

StartChar: tm_m_ikaar
Encoding: 65554 -1 131
Width: 1424
GlyphClass: 2
Flags: W
LayerCount: 2
Fore
SplineSet
1301 574 m 1,0,-1
 1301 783 l 1,1,2
 1297 898 1297 898 1245 937.5 c 128,-1,3
 1193 977 1193 977 1105 977 c 0,4,5
 1004 979 1004 979 955 945.5 c 128,-1,6
 906 912 906 912 904 865 c 0,7,8
 900 799 900 799 951 782.5 c 128,-1,9
 1002 766 1002 766 1010 764 c 0,10,11
 1127 721 1127 721 1192.5 618.5 c 128,-1,12
 1258 516 1258 516 1258 379 c 0,13,14
 1258 191 1258 191 1149.5 94.5 c 128,-1,15
 1041 -2 1041 -2 846 0 c 2,16,-1
 117 0 l 1,17,-1
 117 779 l 1,18,-1
 410 779 l 1,19,-1
 410 84 l 1,20,-1
 586 84 l 1,21,-1
 586 551 l 2,22,23
 586 670 586 670 649.5 726.5 c 128,-1,24
 713 783 713 783 832 789 c 1,25,26
 801 824 801 824 786 862 c 128,-1,27
 771 900 771 900 771 939 c 0,28,29
 770 1049 770 1049 855.5 1126 c 128,-1,30
 941 1203 941 1203 1084 1203 c 0,31,32
 1229 1203 1229 1203 1311 1132.5 c 128,-1,33
 1393 1062 1393 1062 1393 922 c 2,34,-1
 1393 574 l 1,35,-1
 1301 574 l 1,0,-1
881 84 m 1,36,37
 1014 92 1014 92 1073.5 179 c 128,-1,38
 1133 266 1133 266 1133 404 c 0,39,40
 1133 500 1133 500 1090 586 c 128,-1,41
 1047 672 1047 672 961 672 c 0,42,43
 914 674 914 674 897.5 644.5 c 128,-1,44
 881 615 881 615 881 562 c 2,45,-1
 881 84 l 1,36,37
EndSplineSet
Ligature2: "'psts' Post Base Substitutions lookup 8 subtable" tm_ma tm_ikaar
EndChar

StartChar: tm_y_ikaar
Encoding: 65555 -1 132
Width: 1564
GlyphClass: 2
Flags: W
LayerCount: 2
Fore
SplineSet
1355 781 m 1,0,-1
 1355 2 l 1,1,-1
 469 2 l 1,2,-1
 469 135 l 1,3,4
 426 68 426 68 380 30 c 128,-1,5
 334 -8 334 -8 270 -8 c 0,6,7
 174 -8 174 -8 142.5 49.5 c 128,-1,8
 111 107 111 107 111 176 c 2,9,-1
 111 781 l 1,10,-1
 248 781 l 1,11,-1
 248 176 l 2,12,13
 248 141 248 141 256 115.5 c 128,-1,14
 264 90 264 90 291 90 c 0,15,16
 322 86 322 86 368 137.5 c 128,-1,17
 414 189 414 189 469 305 c 1,18,-1
 469 781 l 1,19,-1
 764 781 l 1,20,-1
 764 86 l 1,21,-1
 1061 86 l 1,22,-1
 1061 607 l 1,23,24
 932 617 932 617 885 701 c 128,-1,25
 838 785 838 785 834 881 c 0,26,27
 832 1033 832 1033 940.5 1127 c 128,-1,28
 1049 1221 1049 1221 1203 1221 c 0,29,30
 1369 1219 1369 1219 1451 1126 c 128,-1,31
 1533 1033 1533 1033 1533 867 c 2,32,-1
 1533 576 l 1,33,-1
 1441 576 l 1,34,-1
 1441 758 l 2,35,36
 1441 875 1441 875 1381.5 935.5 c 128,-1,37
 1322 996 1322 996 1205 996 c 0,38,39
 1115 998 1115 998 1043 955 c 128,-1,40
 971 912 971 912 969 826 c 0,41,42
 969 773 969 773 994.5 741 c 128,-1,43
 1020 709 1020 709 1061 699 c 1,44,-1
 1061 781 l 1,45,-1
 1355 781 l 1,0,-1
EndSplineSet
Ligature2: "'psts' Post Base Substitutions lookup 8 subtable" tm_ya tm_ikaar
EndChar

StartChar: tm_r_ikaar
Encoding: 65556 -1 133
Width: 1086
GlyphClass: 2
Flags: W
LayerCount: 2
Fore
SplineSet
693 697 m 1,0,-1
 693 -6 l 1,1,-1
 109 -340 l 1,2,-1
 41 -221 l 1,3,-1
 396 -14 l 1,4,-1
 396 2 l 1,5,-1
 395 2 l 1,6,-1
 395 697 l 1,7,-1
 250 697 l 1,8,-1
 250 2 l 1,9,-1
 117 2 l 1,10,-1
 117 781 l 1,11,-1
 502 781 l 1,12,13
 469 816 469 816 453 857 c 128,-1,14
 437 898 437 898 437 941 c 0,15,16
 434 1051 434 1051 519 1128 c 128,-1,17
 604 1205 604 1205 746 1205 c 0,18,19
 891 1205 891 1205 973 1134.5 c 128,-1,20
 1055 1064 1055 1064 1055 924 c 2,21,-1
 1055 576 l 1,22,-1
 963 576 l 1,23,-1
 963 785 l 2,24,25
 961 900 961 900 908 939.5 c 128,-1,26
 855 979 855 979 770 979 c 0,27,28
 668 980 668 980 618 947 c 128,-1,29
 568 914 568 914 568 867 c 0,30,31
 566 836 566 836 585 811.5 c 128,-1,32
 604 787 604 787 633 781 c 1,33,-1
 854 781 l 1,34,-1
 854 697 l 1,35,-1
 693 697 l 1,0,-1
EndSplineSet
Ligature2: "'psts' Post Base Substitutions lookup 8 subtable" tm_ra tm_ikaar
EndChar

StartChar: tm_rr_ikaar
Encoding: 65557 -1 134
Width: 1473
GlyphClass: 2
Flags: W
LayerCount: 2
Fore
SplineSet
672 -158 m 2,0,-1
 441 -158 l 2,1,2
 355 -158 355 -158 325 -188.5 c 128,-1,3
 295 -219 295 -219 295 -295 c 2,4,-1
 295 -342 l 1,5,-1
 2 -342 l 1,6,-1
 2 -275 l 2,7,8
 2 -168 2 -168 66.5 -121 c 128,-1,9
 131 -74 131 -74 264 -74 c 2,10,-1
 660 -74 l 2,11,12
 855 -74 855 -74 905 41 c 128,-1,13
 955 156 955 156 955 383 c 0,14,15
 955 389 955 389 956 521.5 c 128,-1,16
 957 654 957 654 844 664 c 0,17,18
 799 666 799 666 758 637.5 c 128,-1,19
 717 609 717 609 717 537 c 2,20,-1
 717 0 l 1,21,-1
 422 0 l 1,22,-1
 422 531 l 2,23,24
 422 615 422 615 396.5 643.5 c 128,-1,25
 371 672 371 672 330 670 c 0,26,27
 289 666 289 666 263.5 634 c 128,-1,28
 238 602 238 602 238 518 c 2,29,-1
 238 0 l 1,30,-1
 104 0 l 1,31,-1
 104 518 l 2,32,33
 104 662 104 662 189.5 727.5 c 128,-1,34
 275 793 275 793 404 793 c 0,35,36
 490 795 490 795 555.5 774.5 c 128,-1,37
 621 754 621 754 662 707 c 1,38,39
 701 742 701 742 759.5 761.5 c 128,-1,40
 818 781 818 781 889 781 c 1,41,42
 857 816 857 816 840.5 857 c 128,-1,43
 824 898 824 898 820 941 c 0,44,45
 818 1051 818 1051 904 1128 c 128,-1,46
 990 1205 990 1205 1133 1205 c 0,47,48
 1277 1205 1277 1205 1359 1134.5 c 128,-1,49
 1441 1064 1441 1064 1441 924 c 2,50,-1
 1441 576 l 1,51,-1
 1350 576 l 1,52,-1
 1350 785 l 1,53,54
 1346 900 1346 900 1294 939.5 c 128,-1,55
 1242 979 1242 979 1154 979 c 0,56,57
 1078 979 1078 979 1015.5 953.5 c 128,-1,58
 953 928 953 928 953 861 c 0,59,60
 953 822 953 822 972.5 801.5 c 128,-1,61
 992 781 992 781 1023 781 c 1,62,63
 1121 764 1121 764 1184.5 651.5 c 128,-1,64
 1248 539 1248 539 1248 383 c 0,65,66
 1252 115 1252 115 1101.5 -21.5 c 128,-1,67
 951 -158 951 -158 672 -158 c 2,0,-1
EndSplineSet
Ligature2: "'psts' Post Base Substitutions lookup 8 subtable" tm_rra tm_ikaar
EndChar

StartChar: tm_l_ikaar
Encoding: 65558 -1 135
Width: 1697
GlyphClass: 2
Flags: W
LayerCount: 2
Fore
SplineSet
291 242 m 0,0,1
 293 158 293 158 320.5 118 c 128,-1,2
 348 78 348 78 387 80 c 0,3,4
 426 80 426 80 447.5 125 c 128,-1,5
 469 170 469 170 469 264 c 0,6,7
 469 340 469 340 446.5 375 c 128,-1,8
 424 410 424 410 387 408 c 0,9,10
 346 404 346 404 317.5 357.5 c 128,-1,11
 289 311 289 311 291 242 c 0,0,1
1576 584 m 1,12,-1
 1576 768 l 2,13,14
 1576 885 1576 885 1526.5 944.5 c 128,-1,15
 1477 1004 1477 1004 1363 1006 c 0,16,17
 1273 1006 1273 1006 1201 962 c 128,-1,18
 1129 918 1129 918 1127 832 c 0,19,20
 1125 754 1125 754 1178.5 722.5 c 128,-1,21
 1232 691 1232 691 1309 701 c 1,22,23
 1289 725 1289 725 1266.5 744.5 c 128,-1,24
 1244 764 1244 764 1219 781 c 1,25,-1
 1271 844 l 1,26,27
 1398 768 1398 768 1466.5 642 c 128,-1,28
 1535 516 1535 516 1529 383 c 0,29,30
 1523 193 1523 193 1432.5 95.5 c 128,-1,31
 1342 -2 1342 -2 1145 -2 c 1,32,33
 1014 -6 1014 -6 916 59.5 c 128,-1,34
 818 125 818 125 814 279 c 2,35,-1
 811 393 l 2,36,37
 805 531 805 531 748 614 c 128,-1,38
 691 697 691 697 559 695 c 0,39,40
 363 695 363 695 277 588.5 c 128,-1,41
 191 482 191 482 187 361 c 1,42,-1
 187 328 l 1,43,44
 205 436 205 436 287 490.5 c 128,-1,45
 369 545 369 545 480 543 c 0,46,47
 600 539 600 539 673 470.5 c 128,-1,48
 746 402 746 402 746 270 c 0,49,50
 744 137 744 137 643.5 61.5 c 128,-1,51
 543 -14 543 -14 406 -12 c 0,52,53
 227 -10 227 -10 145.5 88 c 128,-1,54
 64 186 64 186 64 350 c 0,55,56
 64 564 64 564 213.5 682.5 c 128,-1,57
 363 801 363 801 582 811 c 1,58,59
 820 816 820 816 964.5 710.5 c 128,-1,60
 1109 605 1109 605 1107 371 c 0,61,62
 1107 238 1107 238 1129.5 185.5 c 128,-1,63
 1152 133 1152 133 1229 133 c 0,64,65
 1320 131 1320 131 1363 210 c 128,-1,66
 1406 289 1406 289 1406 391 c 0,67,68
 1406 451 1406 451 1394.5 506.5 c 128,-1,69
 1383 562 1383 562 1359 615 c 1,70,71
 1209 578 1209 578 1101.5 653.5 c 128,-1,72
 994 729 994 729 992 887 c 0,73,74
 992 1041 992 1041 1098.5 1134 c 128,-1,75
 1205 1227 1205 1227 1359 1227 c 0,76,77
 1523 1225 1523 1225 1595.5 1134 c 128,-1,78
 1668 1043 1668 1043 1668 877 c 2,79,-1
 1668 584 l 1,80,-1
 1576 584 l 1,12,-1
EndSplineSet
Ligature2: "'psts' Post Base Substitutions lookup 8 subtable" tm_la tm_ikaar
EndChar

StartChar: tm_ll_ikaar
Encoding: 65559 -1 136
Width: 1941
GlyphClass: 2
Flags: W
LayerCount: 2
Fore
SplineSet
293 236 m 0,0,1
 295 152 295 152 321.5 112 c 128,-1,2
 348 72 348 72 385 74 c 0,3,4
 426 74 426 74 447.5 119 c 128,-1,5
 469 164 469 164 471 258 c 0,6,7
 471 334 471 334 448.5 369 c 128,-1,8
 426 404 426 404 389 402 c 0,9,10
 348 398 348 398 319.5 351.5 c 128,-1,11
 291 305 291 305 293 236 c 0,0,1
1574 697 m 1,12,-1
 1574 2 l 1,13,-1
 1277 2 l 1,14,-1
 1277 697 l 1,15,-1
 1117 697 l 1,16,-1
 1117 2 l 1,17,-1
 822 2 l 1,18,-1
 822 328 l 2,19,20
 822 498 822 498 775.5 591 c 128,-1,21
 729 684 729 684 574 689 c 0,22,23
 371 693 371 693 282 586.5 c 128,-1,24
 193 480 193 480 187 355 c 0,25,26
 187 344 187 344 187 337 c 128,-1,27
 187 330 187 330 189 322 c 1,28,29
 207 430 207 430 289 484.5 c 128,-1,30
 371 539 371 539 482 537 c 0,31,32
 604 535 604 535 676 467.5 c 128,-1,33
 748 400 748 400 746 264 c 0,34,35
 742 131 742 131 642.5 55.5 c 128,-1,36
 543 -20 543 -20 408 -18 c 0,37,38
 229 -16 229 -16 145.5 82 c 128,-1,39
 62 180 62 180 62 344 c 0,40,41
 64 566 64 566 226.5 685.5 c 128,-1,42
 389 805 389 805 615 805 c 1,43,44
 734 801 734 801 827 772.5 c 128,-1,45
 920 744 920 744 982 689 c 1,46,-1
 982 781 l 1,47,-1
 1357 781 l 1,48,49
 1326 816 1326 816 1309.5 857 c 128,-1,50
 1293 898 1293 898 1289 941 c 0,51,52
 1287 1051 1287 1051 1373 1128 c 128,-1,53
 1459 1205 1459 1205 1602 1205 c 0,54,55
 1746 1205 1746 1205 1828 1134.5 c 128,-1,56
 1910 1064 1910 1064 1910 924 c 2,57,-1
 1910 576 l 1,58,-1
 1818 576 l 1,59,-1
 1818 785 l 1,60,61
 1814 900 1814 900 1762.5 939.5 c 128,-1,62
 1711 979 1711 979 1623 979 c 0,63,64
 1547 979 1547 979 1484.5 953.5 c 128,-1,65
 1422 928 1422 928 1422 861 c 0,66,67
 1422 822 1422 822 1441.5 801.5 c 128,-1,68
 1461 781 1461 781 1492 781 c 2,69,-1
 1721 781 l 1,70,-1
 1721 697 l 1,71,-1
 1574 697 l 1,12,-1
EndSplineSet
Ligature2: "'psts' Post Base Substitutions lookup 8 subtable" tm_lla tm_ikaar
EndChar

StartChar: tm_lll_ikaar
Encoding: 65560 -1 137
Width: 1402
GlyphClass: 2
Flags: W
LayerCount: 2
Fore
SplineSet
588 2 m 1,0,-1
 117 2 l 1,1,-1
 117 781 l 1,2,-1
 412 781 l 1,3,-1
 412 86 l 1,4,-1
 588 86 l 1,5,-1
 588 555 l 2,6,7
 588 648 588 648 655.5 714.5 c 128,-1,8
 723 781 723 781 816 781 c 1,9,10
 785 816 785 816 768.5 857 c 128,-1,11
 752 898 752 898 748 941 c 0,12,13
 746 1051 746 1051 832 1128 c 128,-1,14
 918 1205 918 1205 1061 1205 c 0,15,16
 1205 1205 1205 1205 1287 1134.5 c 128,-1,17
 1369 1064 1369 1064 1369 924 c 2,18,-1
 1369 576 l 1,19,-1
 1277 576 l 1,20,-1
 1277 785 l 1,21,22
 1273 900 1273 900 1221.5 939.5 c 128,-1,23
 1170 979 1170 979 1082 979 c 0,24,25
 1006 979 1006 979 943.5 953.5 c 128,-1,26
 881 928 881 928 881 861 c 0,27,28
 881 822 881 822 900.5 801.5 c 128,-1,29
 920 781 920 781 951 781 c 0,30,31
 1078 781 1078 781 1169 664 c 128,-1,32
 1260 547 1260 547 1260 383 c 0,33,34
 1260 203 1260 203 1160.5 106.5 c 128,-1,35
 1061 10 1061 10 883 2 c 1,36,-1
 883 -49 l 2,37,38
 883 -86 883 -86 910 -104.5 c 128,-1,39
 937 -123 937 -123 969 -123 c 2,40,-1
 1152 -123 l 1,41,-1
 1152 -207 l 1,42,-1
 967 -207 l 2,43,44
 865 -207 865 -207 697 -305.5 c 128,-1,45
 529 -404 529 -404 418 -402 c 0,46,47
 277 -402 277 -402 192 -323 c 128,-1,48
 107 -244 107 -244 113 -86 c 1,49,-1
 234 -86 l 1,50,51
 234 -92 234 -92 234 -177 c 128,-1,52
 234 -262 234 -262 326 -264 c 0,53,54
 393 -266 393 -266 453.5 -221 c 128,-1,55
 514 -176 514 -176 535 -164 c 0,56,57
 570 -145 570 -145 615 -133 c 128,-1,58
 660 -121 660 -121 723 -123 c 1,59,-1
 723 -109 l 1,60,61
 660 -105 660 -105 625 -83 c 128,-1,62
 590 -61 590 -61 588 2 c 1,0,-1
883 86 m 1,63,64
 1016 94 1016 94 1076.5 182 c 128,-1,65
 1137 270 1137 270 1137 408 c 0,66,67
 1137 504 1137 504 1093 590 c 128,-1,68
 1049 676 1049 676 963 676 c 0,69,70
 916 678 916 678 899.5 647.5 c 128,-1,71
 883 617 883 617 883 566 c 2,72,-1
 883 86 l 1,63,64
EndSplineSet
Ligature2: "'psts' Post Base Substitutions lookup 8 subtable" tm_llla tm_ikaar
EndChar

StartChar: tm_v_ikaar
Encoding: 65561 -1 138
Width: 1770
GlyphClass: 2
Flags: W
LayerCount: 2
Fore
SplineSet
291 232 m 0,0,1
 293 148 293 148 320.5 108 c 128,-1,2
 348 68 348 68 387 72 c 0,3,4
 424 72 424 72 445.5 117 c 128,-1,5
 467 162 467 162 469 256 c 0,6,7
 469 330 469 330 446.5 366 c 128,-1,8
 424 402 424 402 387 398 c 0,9,10
 346 396 346 396 317.5 349.5 c 128,-1,11
 289 303 289 303 291 232 c 0,0,1
1646 574 m 1,12,-1
 1646 758 l 2,13,14
 1646 873 1646 873 1586.5 933.5 c 128,-1,15
 1527 994 1527 994 1412 996 c 0,16,17
 1322 996 1322 996 1250 952 c 128,-1,18
 1178 908 1178 908 1176 824 c 0,19,20
 1174 777 1174 777 1199.5 743 c 128,-1,21
 1225 709 1225 709 1266 697 c 1,22,-1
 1266 779 l 1,23,-1
 1561 779 l 1,24,-1
 1561 0 l 1,25,-1
 740 0 l 1,26,-1
 740 84 l 1,27,-1
 756 84 l 2,28,29
 822 84 822 84 838 154.5 c 128,-1,30
 854 225 854 225 854 322 c 0,31,32
 854 494 854 494 792 587 c 128,-1,33
 730 680 730 680 572 686 c 0,34,35
 369 689 369 689 280 583 c 128,-1,36
 191 477 191 477 187 354 c 0,37,38
 186 346 186 346 186.5 334 c 128,-1,39
 187 322 187 322 187 318 c 1,40,41
 205 426 205 426 287 481.5 c 128,-1,42
 369 537 369 537 480 535 c 0,43,44
 602 531 602 531 675 464.5 c 128,-1,45
 748 398 748 398 746 262 c 0,46,47
 742 127 742 127 641.5 52 c 128,-1,48
 541 -23 541 -23 406 -20 c 0,49,50
 227 -18 227 -18 144.5 80 c 128,-1,51
 62 178 62 178 64 342 c 0,52,53
 64 562 64 562 225.5 681.5 c 128,-1,54
 387 801 387 801 613 801 c 0,55,56
 854 799 854 799 1002 690.5 c 128,-1,57
 1150 582 1150 582 1150 383 c 0,58,59
 1152 281 1152 281 1121 207 c 128,-1,60
 1090 133 1090 133 1012 84 c 1,61,-1
 1266 84 l 1,62,-1
 1266 605 l 1,63,64
 1137 617 1137 617 1090 702 c 128,-1,65
 1043 787 1043 787 1041 879 c 0,66,67
 1039 1031 1039 1031 1146.5 1125 c 128,-1,68
 1254 1219 1254 1219 1406 1219 c 0,69,70
 1574 1217 1574 1217 1656 1124 c 128,-1,71
 1738 1031 1738 1031 1738 867 c 2,72,-1
 1738 574 l 1,73,-1
 1646 574 l 1,12,-1
EndSplineSet
Ligature2: "'psts' Post Base Substitutions lookup 8 subtable" tm_va tm_ikaar
EndChar

StartChar: tm_ss_ikaar
Encoding: 65562 -1 139
Width: 2164
GlyphClass: 2
Flags: W
LayerCount: 2
Fore
SplineSet
295 230 m 0,0,1
 297 146 297 146 323.5 106 c 128,-1,2
 350 66 350 66 387 68 c 0,3,4
 428 68 428 68 449.5 113 c 128,-1,5
 471 158 471 158 471 252 c 0,6,7
 473 328 473 328 450.5 363 c 128,-1,8
 428 398 428 398 391 396 c 0,9,10
 350 393 350 393 321.5 346 c 128,-1,11
 293 299 293 299 295 230 c 0,0,1
2029 572 m 1,12,-1
 2029 781 l 2,13,14
 2027 895 2027 895 1976.5 935 c 128,-1,15
 1926 975 1926 975 1838 975 c 0,16,17
 1736 977 1736 977 1686.5 942.5 c 128,-1,18
 1637 908 1637 908 1637 861 c 0,19,20
 1635 834 1635 834 1651.5 809.5 c 128,-1,21
 1668 785 1668 785 1693 775 c 1,22,23
 1838 771 1838 771 1890.5 694 c 128,-1,24
 1943 617 1943 617 1943 453 c 2,25,-1
 1943 80 l 1,26,-1
 2113 80 l 1,27,-1
 2113 -2 l 1,28,-1
 1943 -2 l 1,29,-1
 1943 -318 l 1,30,-1
 1648 -318 l 1,31,-1
 1648 -2 l 1,32,-1
 742 -2 l 1,33,-1
 742 80 l 1,34,-1
 760 80 l 2,35,36
 824 80 824 80 840.5 151.5 c 128,-1,37
 857 223 857 223 857 318 c 0,38,39
 857 490 857 490 795.5 584 c 128,-1,40
 734 678 734 678 576 684 c 0,41,42
 373 687 373 687 284 581 c 128,-1,43
 195 475 195 475 189 350 c 0,44,45
 189 340 189 340 189 332 c 128,-1,46
 189 324 189 324 191 316 c 1,47,48
 209 424 209 424 291 479.5 c 128,-1,49
 373 535 373 535 484 531 c 0,50,51
 605 529 605 529 677.5 462 c 128,-1,52
 750 395 750 395 748 258 c 0,53,54
 744 125 744 125 644.5 50 c 128,-1,55
 545 -25 545 -25 410 -23 c 0,56,57
 230 -21 230 -21 147 76.5 c 128,-1,58
 64 174 64 174 64 340 c 0,59,60
 64 561 64 561 226.5 680 c 128,-1,61
 389 799 389 799 617 799 c 0,62,63
 857 795 857 795 1005.5 686.5 c 128,-1,64
 1154 578 1154 578 1154 379 c 0,65,66
 1154 277 1154 277 1123 203 c 128,-1,67
 1092 129 1092 129 1016 80 c 1,68,-1
 1441 80 l 1,69,70
 1361 131 1361 131 1312.5 214 c 128,-1,71
 1264 297 1264 297 1260 402 c 0,72,73
 1252 555 1252 555 1341 649.5 c 128,-1,74
 1430 744 1430 744 1576 770 c 1,75,76
 1541 805 1541 805 1522.5 849 c 128,-1,77
 1504 893 1504 893 1504 936 c 0,78,79
 1502 1045 1502 1045 1588 1123 c 128,-1,80
 1674 1201 1674 1201 1816 1201 c 0,81,82
 1959 1201 1959 1201 2040 1131 c 128,-1,83
 2121 1061 2121 1061 2121 920 c 2,84,-1
 2121 572 l 1,85,-1
 2029 572 l 1,12,-1
1648 80 m 1,86,-1
 1648 482 l 2,87,88
 1648 566 1648 566 1629.5 611 c 128,-1,89
 1611 656 1611 656 1541 652 c 0,90,91
 1475 648 1475 648 1426 583 c 128,-1,92
 1377 518 1377 518 1381 408 c 0,93,94
 1385 283 1385 283 1456 192.5 c 128,-1,95
 1527 102 1527 102 1648 80 c 1,86,-1
EndSplineSet
Ligature2: "'psts' Post Base Substitutions lookup 8 subtable" tm_ssa tm_ikaar
EndChar

StartChar: tm_s_ikaar
Encoding: 65563 -1 140
Width: 2260
GlyphClass: 2
Flags: W
LayerCount: 2
Fore
SplineSet
293 230 m 0,0,1
 297 145 297 145 322.5 105.5 c 128,-1,2
 348 66 348 66 387 68 c 0,3,4
 428 68 428 68 449.5 113 c 128,-1,5
 471 158 471 158 471 252 c 0,6,7
 471 328 471 328 447.5 363 c 128,-1,8
 424 398 424 398 387 396 c 0,9,10
 346 393 346 393 319.5 347 c 128,-1,11
 293 301 293 301 293 230 c 0,0,1
2137 572 m 1,12,-1
 2137 756 l 2,13,14
 2137 875 2137 875 2088 933.5 c 128,-1,15
 2039 992 2039 992 1924 994 c 0,16,17
 1834 994 1834 994 1761.5 950 c 128,-1,18
 1689 906 1689 906 1687 822 c 0,19,20
 1687 746 1687 746 1737 715 c 128,-1,21
 1787 684 1787 684 1857 689 c 1,22,23
 1838 715 1838 715 1813.5 736.5 c 128,-1,24
 1789 758 1789 758 1760 775 c 1,25,-1
 1812 838 l 1,26,27
 1939 766 1939 766 2008.5 643.5 c 128,-1,28
 2078 521 2078 521 2078 389 c 0,29,30
 2078 193 2078 193 1963 89.5 c 128,-1,31
 1848 -14 1848 -14 1654 -14 c 1,32,33
 1506 -18 1506 -18 1414 59.5 c 128,-1,34
 1322 137 1322 137 1324 285 c 0,35,36
 1324 312 1324 312 1335 473.5 c 128,-1,37
 1346 635 1346 635 1223 637 c 0,38,39
 1102 637 1102 637 1104.5 502 c 128,-1,40
 1107 367 1107 367 1107 359 c 2,41,-1
 1107 -2 l 1,42,-1
 812 -2 l 1,43,-1
 812 348 l 2,44,45
 812 496 812 496 756.5 591 c 128,-1,46
 701 686 701 686 559 684 c 0,47,48
 363 684 363 684 277 577.5 c 128,-1,49
 191 471 191 471 189 350 c 2,50,-1
 189 316 l 1,51,52
 209 424 209 424 290 479.5 c 128,-1,53
 371 535 371 535 482 531 c 0,54,55
 600 529 600 529 674 460 c 128,-1,56
 748 391 748 391 746 258 c 0,57,58
 746 125 746 125 645.5 50 c 128,-1,59
 545 -25 545 -25 406 -23 c 0,60,61
 227 -21 227 -21 145.5 76.5 c 128,-1,62
 64 174 64 174 64 340 c 0,63,64
 64 553 64 553 214.5 671 c 128,-1,65
 365 789 365 789 582 799 c 0,66,67
 727 803 727 803 843 762 c 128,-1,68
 959 721 959 721 1027 633 c 1,69,70
 1057 709 1057 709 1124 751 c 128,-1,71
 1191 793 1191 793 1303 793 c 0,72,73
 1396 793 1396 793 1458.5 772.5 c 128,-1,74
 1521 752 1521 752 1557 707 c 0,75,76
 1621 619 1621 619 1619 488 c 128,-1,77
 1617 357 1617 357 1617 340 c 0,78,79
 1617 234 1617 234 1635.5 178.5 c 128,-1,80
 1654 123 1654 123 1734 121 c 0,81,82
 1836 119 1836 119 1895.5 195 c 128,-1,83
 1955 271 1955 271 1955 379 c 0,84,85
 1955 439 1955 439 1944.5 496 c 128,-1,86
 1934 553 1934 553 1910 600 c 1,87,88
 1762 570 1762 570 1660.5 644.5 c 128,-1,89
 1559 719 1559 719 1557 877 c 0,90,91
 1555 1029 1555 1029 1661.5 1122 c 128,-1,92
 1768 1215 1768 1215 1920 1215 c 0,93,94
 2086 1213 2086 1213 2157.5 1123 c 128,-1,95
 2229 1033 2229 1033 2229 865 c 2,96,-1
 2229 572 l 1,97,-1
 2137 572 l 1,12,-1
EndSplineSet
Ligature2: "'psts' Post Base Substitutions lookup 8 subtable" tm_sa tm_ikaar
EndChar

StartChar: tm_h_ikaar
Encoding: 65564 -1 141
Width: 2629
GlyphClass: 2
Flags: W
LayerCount: 2
Fore
SplineSet
295 232 m 0,0,1
 297 150 297 150 322.5 109 c 128,-1,2
 348 68 348 68 387 72 c 0,3,4
 426 72 426 72 449.5 117 c 128,-1,5
 473 162 473 162 473 256 c 0,6,7
 473 332 473 332 449.5 367 c 128,-1,8
 426 402 426 402 389 398 c 0,9,10
 348 396 348 396 320.5 349.5 c 128,-1,11
 293 303 293 303 295 232 c 0,0,1
1826 -158 m 2,12,-1
 445 -158 l 2,13,14
 359 -158 359 -158 329 -188.5 c 128,-1,15
 299 -219 299 -219 299 -295 c 2,16,-1
 299 -342 l 1,17,-1
 4 -342 l 1,18,-1
 4 -275 l 2,19,20
 4 -168 4 -168 69.5 -121 c 128,-1,21
 135 -74 135 -74 268 -74 c 2,22,-1
 1814 -74 l 2,23,24
 2014 -74 2014 -74 2063.5 41 c 128,-1,25
 2113 156 2113 156 2113 383 c 0,26,27
 2113 500 2113 500 2094.5 579 c 128,-1,28
 2076 658 2076 658 2000 664 c 0,29,30
 1955 666 1955 666 1915 637.5 c 128,-1,31
 1875 609 1875 609 1875 537 c 2,32,-1
 1875 0 l 1,33,-1
 1578 0 l 1,34,-1
 1578 531 l 2,35,36
 1578 615 1578 615 1552.5 643.5 c 128,-1,37
 1527 672 1527 672 1486 670 c 0,38,39
 1445 666 1445 666 1420 634 c 128,-1,40
 1395 602 1395 602 1395 518 c 2,41,-1
 1395 0 l 1,42,-1
 742 0 l 1,43,-1
 742 84 l 1,44,-1
 760 84 l 2,45,46
 824 84 824 84 840.5 155.5 c 128,-1,47
 857 227 857 227 857 322 c 0,48,49
 857 494 857 494 795.5 587 c 128,-1,50
 734 680 734 680 576 686 c 0,51,52
 373 689 373 689 283 583 c 128,-1,53
 193 477 193 477 191 354 c 0,54,55
 189 346 189 346 190 334 c 128,-1,56
 191 322 191 322 191 318 c 1,57,58
 209 426 209 426 291 481.5 c 128,-1,59
 373 537 373 537 484 535 c 0,60,61
 604 531 604 531 677 464.5 c 128,-1,62
 750 398 750 398 748 262 c 0,63,64
 744 127 744 127 644.5 52 c 128,-1,65
 545 -23 545 -23 410 -20 c 0,66,67
 230 -18 230 -18 147 80 c 128,-1,68
 64 178 64 178 64 342 c 0,69,70
 64 562 64 562 226.5 681.5 c 128,-1,71
 389 801 389 801 617 801 c 0,72,73
 857 799 857 799 1005.5 690.5 c 128,-1,74
 1154 582 1154 582 1154 383 c 0,75,76
 1156 281 1156 281 1125 207 c 128,-1,77
 1094 133 1094 133 1016 84 c 1,78,-1
 1260 84 l 1,79,-1
 1260 518 l 2,80,81
 1260 662 1260 662 1346 727.5 c 128,-1,82
 1432 793 1432 793 1559 793 c 0,83,84
 1645 795 1645 795 1712 774.5 c 128,-1,85
 1779 754 1779 754 1820 707 c 1,86,87
 1859 742 1859 742 1918 761.5 c 128,-1,88
 1977 781 1977 781 2045 781 c 1,89,90
 2014 816 2014 816 1997 857 c 128,-1,91
 1980 898 1980 898 1977 941 c 0,92,93
 1975 1051 1975 1051 2060.5 1128 c 128,-1,94
 2146 1205 2146 1205 2289 1205 c 0,95,96
 2434 1205 2434 1205 2516 1134.5 c 128,-1,97
 2598 1064 2598 1064 2598 924 c 2,98,-1
 2598 576 l 1,99,-1
 2506 576 l 1,100,-1
 2506 785 l 1,101,102
 2502 900 2502 900 2450 939.5 c 128,-1,103
 2398 979 2398 979 2311 979 c 0,104,105
 2234 979 2234 979 2171.5 953.5 c 128,-1,106
 2109 928 2109 928 2109 861 c 0,107,108
 2109 822 2109 822 2128.5 801.5 c 128,-1,109
 2148 781 2148 781 2180 781 c 1,110,111
 2277 764 2277 764 2341.5 651.5 c 128,-1,112
 2406 539 2406 539 2406 383 c 0,113,114
 2410 115 2410 115 2258.5 -21.5 c 128,-1,115
 2107 -158 2107 -158 1826 -158 c 2,12,-1
EndSplineSet
Ligature2: "'psts' Post Base Substitutions lookup 8 subtable" tm_ha tm_ikaar
EndChar

StartChar: tm_k_iikaar
Encoding: 65565 -1 142
Width: 1271
GlyphClass: 2
Flags: W
LayerCount: 2
Fore
SplineSet
514 414 m 1,0,-1
 363 414 l 2,1,2
 268 414 268 414 217 377 c 128,-1,3
 166 340 166 340 168 264 c 0,4,5
 168 189 168 189 217 146.5 c 128,-1,6
 266 104 266 104 344 104 c 0,7,8
 424 104 424 104 469 151.5 c 128,-1,9
 514 199 514 199 514 293 c 2,10,-1
 514 414 l 1,0,-1
791 1037 m 1,11,12
 750 1023 750 1023 727.5 987 c 128,-1,13
 705 951 705 951 705 908 c 0,14,15
 705 871 705 871 722.5 835 c 128,-1,16
 740 799 740 799 771 781 c 1,17,-1
 1047 781 l 1,18,-1
 1047 697 l 1,19,-1
 809 697 l 1,20,-1
 809 496 l 1,21,-1
 914 496 l 2,22,23
 1068 496 1068 496 1147.5 441.5 c 128,-1,24
 1227 387 1227 387 1223 244 c 0,25,26
 1221 105 1221 105 1130 43.5 c 128,-1,27
 1039 -18 1039 -18 912 -18 c 0,28,29
 861 -18 861 -18 814.5 -9 c 128,-1,30
 768 0 768 0 730 14 c 1,31,-1
 768 98 l 1,32,33
 787 88 787 88 807.5 84 c 128,-1,34
 828 80 828 80 846 80 c 0,35,36
 900 78 900 78 921.5 120 c 128,-1,37
 943 162 943 162 943 236 c 2,38,-1
 943 287 l 2,39,40
 943 354 943 354 919.5 384 c 128,-1,41
 896 414 896 414 840 414 c 2,42,-1
 809 414 l 1,43,-1
 809 305 l 2,44,45
 809 125 809 125 694.5 58.5 c 128,-1,46
 580 -8 580 -8 387 -8 c 0,47,48
 225 -8 225 -8 135 56.5 c 128,-1,49
 45 121 45 121 45 250 c 0,50,51
 45 344 45 344 102.5 408.5 c 128,-1,52
 160 473 160 473 252 488 c 1,53,-1
 252 781 l 1,54,-1
 648 781 l 1,55,56
 607 818 607 818 586.5 870 c 128,-1,57
 566 922 566 922 566 979 c 0,58,59
 566 1119 566 1119 676.5 1201 c 128,-1,60
 787 1283 787 1283 926 1283 c 0,61,62
 1033 1281 1033 1281 1112 1227.5 c 128,-1,63
 1191 1174 1191 1174 1191 1068 c 0,64,65
 1189 969 1189 969 1122 917 c 128,-1,66
 1055 865 1055 865 955 865 c 1,67,68
 889 861 889 861 838 892.5 c 128,-1,69
 787 924 787 924 785 988 c 0,70,71
 783 1002 783 1002 785 1014.5 c 128,-1,72
 787 1027 787 1027 791 1037 c 1,11,12
514 697 m 1,73,-1
 387 697 l 1,74,-1
 387 496 l 1,75,-1
 514 496 l 1,76,-1
 514 697 l 1,73,-1
887 1008 m 0,77,78
 887 984 887 984 905.5 971.5 c 128,-1,79
 924 959 924 959 947 959 c 0,80,81
 979 957 979 957 1001 972.5 c 128,-1,82
 1023 988 1023 988 1023 1020 c 0,83,84
 1023 1045 1023 1045 1003.5 1058.5 c 128,-1,85
 984 1072 984 1072 957 1072 c 0,86,87
 928 1072 928 1072 907.5 1055.5 c 128,-1,88
 887 1039 887 1039 887 1008 c 0,77,78
EndSplineSet
Ligature2: "'abvs' Above Base Substitutions lookup 6 subtable" tm_ka tm_iikaar
EndChar

StartChar: tm_ng_iikaar
Encoding: 65566 -1 143
Width: 1615
GlyphClass: 2
Flags: W
LayerCount: 2
Fore
SplineSet
826 205 m 2,0,-1
 826 326 l 2,1,2
 826 361 826 361 804.5 386.5 c 128,-1,3
 783 412 783 412 752 412 c 0,4,5
 721 410 721 410 698.5 390.5 c 128,-1,6
 676 371 676 371 676 344 c 2,7,-1
 676 189 l 1,8,-1
 381 189 l 1,9,-1
 381 697 l 1,10,-1
 252 697 l 1,11,-1
 252 2 l 1,12,-1
 117 2 l 1,13,-1
 117 781 l 1,14,-1
 906 781 l 1,15,-1
 906 697 l 1,16,-1
 676 697 l 1,17,-1
 676 490 l 1,18,19
 713 508 713 508 753 517.5 c 128,-1,20
 793 527 793 527 834 527 c 0,21,22
 945 527 945 527 1023.5 455 c 128,-1,23
 1102 383 1102 383 1102 281 c 0,24,25
 1102 219 1102 219 1081.5 168 c 128,-1,26
 1061 117 1061 117 1023 86 c 1,27,-1
 1201 86 l 1,28,-1
 1201 590 l 1,29,30
 1094 609 1094 609 1026.5 698 c 128,-1,31
 959 787 959 787 963 902 c 1,32,33
 963 1051 963 1051 1075 1156.5 c 128,-1,34
 1187 1262 1187 1262 1346 1262 c 1,35,36
 1455 1258 1455 1258 1532 1194.5 c 128,-1,37
 1609 1131 1609 1131 1609 1045 c 0,38,39
 1609 961 1609 961 1541 901.5 c 128,-1,40
 1473 842 1473 842 1375 842 c 1,41,42
 1307 838 1307 838 1256 874 c 128,-1,43
 1205 910 1205 910 1205 965 c 0,44,45
 1203 977 1203 977 1204 989.5 c 128,-1,46
 1205 1002 1205 1002 1211 1014 c 1,47,48
 1166 1006 1166 1006 1136.5 961 c 128,-1,49
 1107 916 1107 916 1107 855 c 0,50,51
 1107 797 1107 797 1132.5 752 c 128,-1,52
 1158 707 1158 707 1201 689 c 1,53,-1
 1201 781 l 1,54,-1
 1498 781 l 1,55,-1
 1498 2 l 1,56,-1
 381 2 l 1,57,-1
 381 86 l 1,58,-1
 709 86 l 2,59,60
 758 86 758 86 792 121 c 128,-1,61
 826 156 826 156 826 205 c 2,0,-1
1305 984 m 0,62,63
 1305 965 1305 965 1322.5 950.5 c 128,-1,64
 1340 936 1340 936 1365 936 c 0,65,66
 1396 934 1396 934 1419.5 952.5 c 128,-1,67
 1443 971 1443 971 1443 996 c 0,68,69
 1443 1018 1443 1018 1423.5 1033.5 c 128,-1,70
 1404 1049 1404 1049 1377 1049 c 0,71,72
 1348 1049 1348 1049 1326.5 1030.5 c 128,-1,73
 1305 1012 1305 1012 1305 984 c 0,62,63
EndSplineSet
Ligature2: "'abvs' Above Base Substitutions lookup 6 subtable" tm_nga tm_iikaar
EndChar

StartChar: tm_c_iikaar
Encoding: 65567 -1 144
Width: 1068
GlyphClass: 2
Flags: W
LayerCount: 2
Fore
SplineSet
514 414 m 1,0,-1
 363 414 l 2,1,2
 268 414 268 414 217 377 c 128,-1,3
 166 340 166 340 168 264 c 0,4,5
 168 189 168 189 217 146.5 c 128,-1,6
 266 104 266 104 344 104 c 0,7,8
 424 104 424 104 469 151.5 c 128,-1,9
 514 199 514 199 514 293 c 2,10,-1
 514 414 l 1,0,-1
791 1037 m 1,11,12
 750 1023 750 1023 727.5 987 c 128,-1,13
 705 951 705 951 705 908 c 0,14,15
 705 871 705 871 722.5 835 c 128,-1,16
 740 799 740 799 771 781 c 1,17,-1
 1047 781 l 1,18,-1
 1047 697 l 1,19,-1
 809 697 l 1,20,-1
 809 496 l 1,21,-1
 1016 496 l 1,22,-1
 1016 414 l 1,23,-1
 809 414 l 1,24,-1
 809 305 l 2,25,26
 809 125 809 125 694.5 58.5 c 128,-1,27
 580 -8 580 -8 387 -8 c 0,28,29
 225 -8 225 -8 135 56.5 c 128,-1,30
 45 121 45 121 45 250 c 0,31,32
 45 344 45 344 102.5 408.5 c 128,-1,33
 160 473 160 473 252 488 c 1,34,-1
 252 781 l 1,35,-1
 648 781 l 1,36,37
 607 818 607 818 586.5 870 c 128,-1,38
 566 922 566 922 566 979 c 0,39,40
 566 1119 566 1119 676.5 1201 c 128,-1,41
 787 1283 787 1283 926 1283 c 0,42,43
 1033 1281 1033 1281 1112 1227.5 c 128,-1,44
 1191 1174 1191 1174 1191 1068 c 0,45,46
 1189 969 1189 969 1122 917 c 128,-1,47
 1055 865 1055 865 955 865 c 1,48,49
 889 861 889 861 838 892.5 c 128,-1,50
 787 924 787 924 785 988 c 0,51,52
 783 1002 783 1002 785 1014.5 c 128,-1,53
 787 1027 787 1027 791 1037 c 1,11,12
514 697 m 1,54,-1
 387 697 l 1,55,-1
 387 496 l 1,56,-1
 514 496 l 1,57,-1
 514 697 l 1,54,-1
887 1008 m 0,58,59
 887 984 887 984 905.5 971.5 c 128,-1,60
 924 959 924 959 947 959 c 0,61,62
 979 957 979 957 1001 972.5 c 128,-1,63
 1023 988 1023 988 1023 1020 c 0,64,65
 1023 1045 1023 1045 1003.5 1058.5 c 128,-1,66
 984 1072 984 1072 957 1072 c 0,67,68
 928 1072 928 1072 907.5 1055.5 c 128,-1,69
 887 1039 887 1039 887 1008 c 0,58,59
EndSplineSet
Ligature2: "'abvs' Above Base Substitutions lookup 6 subtable" tm_ca tm_iikaar
EndChar

StartChar: tm_j_iikaar
Encoding: 65568 -1 145
Width: 1525
GlyphClass: 2
Flags: W
LayerCount: 2
Fore
SplineSet
1184 -176 m 0,0,1
 1184 -127 1184 -127 1156.5 -102.5 c 128,-1,2
 1129 -78 1129 -78 1090 -82 c 1,3,4
 1039 -82 1039 -82 1009.5 -111.5 c 128,-1,5
 980 -141 980 -141 980 -191 c 0,6,7
 980 -240 980 -240 1008.5 -267.5 c 128,-1,8
 1037 -295 1037 -295 1076 -295 c 0,9,10
 1123 -295 1123 -295 1152.5 -261 c 128,-1,11
 1182 -227 1182 -227 1184 -176 c 0,0,1
338 301 m 0,12,13
 375 301 375 301 394.5 332 c 128,-1,14
 414 363 414 363 414 406 c 0,15,16
 414 451 414 451 393.5 481.5 c 128,-1,17
 373 512 373 512 334 510 c 0,18,19
 297 510 297 510 275.5 478.5 c 128,-1,20
 254 447 254 447 254 400 c 0,21,22
 254 359 254 359 275.5 330 c 128,-1,23
 297 301 297 301 338 301 c 0,12,13
418 -393 m 0,24,25
 270 -387 270 -387 168 -312.5 c 128,-1,26
 66 -238 66 -238 66 -88 c 0,27,28
 68 49 68 49 163 102.5 c 128,-1,29
 258 156 258 156 400 156 c 2,30,-1
 1027 156 l 2,31,32
 1105 156 1105 156 1137.5 191.5 c 128,-1,33
 1170 227 1170 227 1170 283 c 2,34,-1
 1170 479 l 2,35,36
 1170 594 1170 594 1142.5 634 c 128,-1,37
 1115 674 1115 674 1061 674 c 1,38,39
 1008 670 1008 670 975.5 624 c 128,-1,40
 943 578 943 578 943 492 c 2,41,-1
 943 221 l 1,42,-1
 646 221 l 1,43,-1
 646 467 l 2,44,45
 646 590 646 590 610 645.5 c 128,-1,46
 574 701 574 701 457 703 c 0,47,48
 336 703 336 703 249 647.5 c 128,-1,49
 162 592 162 592 162 479 c 0,50,51
 162 457 162 457 167 435.5 c 128,-1,52
 172 414 172 414 180 398 c 1,53,54
 168 482 168 482 225.5 544.5 c 128,-1,55
 283 607 283 607 377 605 c 0,56,57
 457 605 457 605 511.5 550.5 c 128,-1,58
 566 496 566 496 564 416 c 0,59,60
 564 318 564 318 496 264.5 c 128,-1,61
 428 211 428 211 328 211 c 0,62,63
 207 211 207 211 133 274.5 c 128,-1,64
 59 338 59 338 59 469 c 0,65,66
 57 625 57 625 183 707 c 128,-1,67
 309 789 309 789 498 785 c 0,68,69
 617 781 617 781 709 742 c 128,-1,70
 801 703 801 703 852 627 c 1,71,72
 881 689 881 689 943.5 725.5 c 128,-1,73
 1006 762 1006 762 1080 762 c 1,74,75
 1041 801 1041 801 1019.5 852.5 c 128,-1,76
 998 904 998 904 998 961 c 0,77,78
 1000 1100 1000 1100 1110.5 1182 c 128,-1,79
 1221 1264 1221 1264 1359 1264 c 0,80,81
 1467 1262 1467 1262 1545 1208 c 128,-1,82
 1623 1154 1623 1154 1621 1049 c 0,83,84
 1621 951 1621 951 1553.5 898.5 c 128,-1,85
 1486 846 1486 846 1389 846 c 1,86,87
 1320 842 1320 842 1269.5 873 c 128,-1,88
 1219 904 1219 904 1217 969 c 0,89,90
 1217 982 1217 982 1219 995 c 128,-1,91
 1221 1008 1221 1008 1225 1018 c 1,92,93
 1182 1004 1182 1004 1158.5 968 c 128,-1,94
 1135 932 1135 932 1135 889 c 1,95,96
 1139 848 1139 848 1155.5 813.5 c 128,-1,97
 1172 779 1172 779 1201 762 c 1,98,99
 1312 754 1312 754 1389.5 661 c 128,-1,100
 1467 568 1467 568 1467 441 c 0,101,102
 1469 240 1469 240 1350.5 157 c 128,-1,103
 1232 74 1232 74 1027 74 c 2,104,-1
 621 74 l 2,105,106
 479 74 479 74 418 50.5 c 128,-1,107
 357 27 357 27 357 -78 c 2,108,-1
 357 -150 l 2,109,110
 357 -221 357 -221 395.5 -258 c 128,-1,111
 434 -295 434 -295 492 -297 c 0,112,113
 590 -297 590 -297 632 -215 c 128,-1,114
 674 -133 674 -133 687 -113 c 0,115,116
 744 -31 744 -31 858.5 -5 c 128,-1,117
 973 21 973 21 1119 21 c 0,118,119
 1264 21 1264 21 1365.5 -18 c 128,-1,120
 1467 -57 1467 -57 1463 -182 c 0,121,122
 1461 -295 1461 -295 1378 -346.5 c 128,-1,123
 1295 -398 1295 -398 1162 -404 c 0,124,125
 1021 -408 1021 -408 941 -361 c 128,-1,126
 861 -314 861 -314 859 -199 c 0,127,128
 859 -174 859 -174 868 -145.5 c 128,-1,129
 877 -117 877 -117 891 -94 c 1,130,131
 840 -100 840 -100 805 -143 c 128,-1,132
 770 -186 770 -186 736 -260 c 0,133,134
 699 -342 699 -342 612 -370 c 128,-1,135
 525 -398 525 -398 418 -393 c 0,24,25
1316 988 m 0,136,137
 1316 965 1316 965 1335 952 c 128,-1,138
 1354 939 1354 939 1379 939 c 0,139,140
 1410 937 1410 937 1433.5 953 c 128,-1,141
 1457 969 1457 969 1455 1000 c 0,142,143
 1455 1025 1455 1025 1434.5 1039 c 128,-1,144
 1414 1053 1414 1053 1389 1053 c 0,145,146
 1359 1053 1359 1053 1337.5 1036.5 c 128,-1,147
 1316 1020 1316 1020 1316 988 c 0,136,137
EndSplineSet
Ligature2: "'abvs' Above Base Substitutions lookup 6 subtable" tm_ja tm_iikaar
EndChar

StartChar: tm_ny_iikaar
Encoding: 65569 -1 146
Width: 1857
GlyphClass: 2
Flags: W
LayerCount: 2
Fore
SplineSet
547 234 m 0,0,1
 549 150 549 150 576.5 110 c 128,-1,2
 604 70 604 70 643 74 c 0,3,4
 682 74 682 74 703.5 119 c 128,-1,5
 725 164 725 164 725 258 c 0,6,7
 725 332 725 332 702.5 368 c 128,-1,8
 680 404 680 404 643 400 c 0,9,10
 602 398 602 398 574.5 351.5 c 128,-1,11
 547 305 547 305 547 234 c 0,0,1
1375 424 m 1,12,13
 1416 441 1416 441 1460 451 c 128,-1,14
 1504 461 1504 461 1545 459 c 0,15,16
 1662 459 1662 459 1733.5 389.5 c 128,-1,17
 1805 320 1805 320 1805 184 c 0,18,19
 1807 -166 1807 -166 1545 -299 c 128,-1,20
 1283 -432 1283 -432 900 -424 c 0,21,22
 502 -414 502 -414 288 -255 c 128,-1,23
 74 -96 74 -96 76 275 c 0,24,25
 76 426 76 426 143.5 566.5 c 128,-1,26
 211 707 211 707 334 795 c 1,27,-1
 383 746 l 1,28,29
 283 668 283 668 241 545 c 128,-1,30
 199 422 199 422 199 271 c 0,31,32
 197 -51 197 -51 380.5 -189.5 c 128,-1,33
 564 -328 564 -328 916 -328 c 0,34,35
 1193 -326 1193 -326 1361 -226.5 c 128,-1,36
 1529 -127 1529 -127 1529 117 c 2,37,-1
 1529 246 l 2,38,39
 1531 297 1531 297 1508.5 323.5 c 128,-1,40
 1486 350 1486 350 1453 350 c 0,41,42
 1424 350 1424 350 1401.5 331 c 128,-1,43
 1379 312 1379 312 1375 281 c 1,44,-1
 1375 2 l 1,45,-1
 1078 2 l 1,46,-1
 1078 697 l 1,47,-1
 920 697 l 2,48,49
 725 697 725 697 587 617 c 128,-1,50
 449 537 449 537 443 355 c 1,51,-1
 443 320 l 1,52,53
 463 428 463 428 544 483.5 c 128,-1,54
 625 539 625 539 736 537 c 0,55,56
 857 533 857 533 931.5 466.5 c 128,-1,57
 1006 400 1006 400 1002 264 c 0,58,59
 998 129 998 129 898.5 54 c 128,-1,60
 799 -21 799 -21 662 -18 c 0,61,62
 482 -16 482 -16 401 82 c 128,-1,63
 320 180 320 180 320 344 c 0,64,65
 320 420 320 420 341.5 483.5 c 128,-1,66
 363 547 363 547 404 596 c 0,67,68
 488 697 488 697 624 739 c 128,-1,69
 760 781 760 781 916 781 c 2,70,-1
 1115 781 l 1,71,72
 1076 820 1076 820 1054.5 872 c 128,-1,73
 1033 924 1033 924 1033 980 c 0,74,75
 1035 1119 1035 1119 1145.5 1201 c 128,-1,76
 1256 1283 1256 1283 1395 1283 c 0,77,78
 1502 1281 1502 1281 1580 1227.5 c 128,-1,79
 1658 1174 1658 1174 1656 1068 c 0,80,81
 1656 971 1656 971 1588.5 918 c 128,-1,82
 1521 865 1521 865 1424 865 c 1,83,84
 1355 861 1355 861 1304.5 892.5 c 128,-1,85
 1254 924 1254 924 1252 988 c 0,86,87
 1252 1002 1252 1002 1254 1014.5 c 128,-1,88
 1256 1027 1256 1027 1260 1037 c 1,89,90
 1217 1023 1217 1023 1193.5 987 c 128,-1,91
 1170 951 1170 951 1170 908 c 1,92,93
 1174 867 1174 867 1190.5 833 c 128,-1,94
 1207 799 1207 799 1236 781 c 1,95,-1
 1547 781 l 1,96,-1
 1547 697 l 1,97,-1
 1375 697 l 1,98,-1
 1375 424 l 1,12,13
1352 1008 m 0,99,100
 1352 984 1352 984 1370.5 971.5 c 128,-1,101
 1389 959 1389 959 1414 959 c 0,102,103
 1445 957 1445 957 1468.5 972.5 c 128,-1,104
 1492 988 1492 988 1490 1020 c 0,105,106
 1490 1045 1490 1045 1469.5 1058.5 c 128,-1,107
 1449 1072 1449 1072 1424 1072 c 0,108,109
 1395 1072 1395 1072 1373.5 1055.5 c 128,-1,110
 1352 1039 1352 1039 1352 1008 c 0,99,100
EndSplineSet
Ligature2: "'abvs' Above Base Substitutions lookup 6 subtable" tm_nya tm_iikaar
EndChar

StartChar: tm_tt_iikaar
Encoding: 65570 -1 147
Width: 1242
GlyphClass: 2
Flags: W
LayerCount: 2
Fore
SplineSet
691 258 m 1,0,1
 744 178 744 178 816.5 136 c 128,-1,2
 889 94 889 94 961 84 c 1,3,-1
 1180 84 l 1,4,-1
 1180 0 l 1,5,-1
 117 0 l 1,6,-1
 117 779 l 1,7,-1
 412 779 l 1,8,-1
 412 84 l 1,9,-1
 727 84 l 1,10,11
 643 131 643 131 595 220 c 128,-1,12
 547 309 547 309 545 416 c 0,13,14
 545 570 545 570 639.5 676.5 c 128,-1,15
 734 783 734 783 893 783 c 0,16,17
 1027 783 1027 783 1102.5 691.5 c 128,-1,18
 1178 600 1178 600 1174 465 c 0,19,20
 1166 273 1166 273 1002 209 c 128,-1,21
 838 145 838 145 691 258 c 1,0,1
779 605 m 0,22,23
 740 605 740 605 713.5 569 c 128,-1,24
 687 533 687 533 687 475 c 0,25,26
 687 414 687 414 713.5 377 c 128,-1,27
 740 340 740 340 779 340 c 0,28,29
 816 340 816 340 842.5 377 c 128,-1,30
 869 414 869 414 869 475 c 0,31,32
 869 533 869 533 842.5 569 c 128,-1,33
 816 605 816 605 779 605 c 0,22,23
EndSplineSet
Ligature2: "'abvs' Above Base Substitutions lookup 5 subtable" tm_tta tm_iikaar
EndChar

StartChar: tm_nn_iikaar
Encoding: 65571 -1 148
Width: 2402
GlyphClass: 2
Flags: W
LayerCount: 2
Fore
SplineSet
287 230 m 0,0,1
 291 148 291 148 316.5 108 c 128,-1,2
 342 68 342 68 379 66 c 0,3,4
 434 66 434 66 449.5 124 c 128,-1,5
 465 182 465 182 465 250 c 0,6,7
 465 324 465 324 443.5 360 c 128,-1,8
 422 396 422 396 387 396 c 0,9,10
 336 396 336 396 311.5 341.5 c 128,-1,11
 287 287 287 287 287 230 c 0,0,1
2229 697 m 1,12,-1
 2229 2 l 1,13,-1
 1934 2 l 1,14,-1
 1934 697 l 1,15,-1
 1861 697 l 2,16,17
 1799 697 1799 697 1739.5 686.5 c 128,-1,18
 1680 676 1680 676 1643 658 c 1,19,20
 1732 590 1732 590 1785 502 c 128,-1,21
 1838 414 1838 414 1838 311 c 0,22,23
 1836 164 1836 164 1742 69.5 c 128,-1,24
 1648 -25 1648 -25 1502 -25 c 0,25,26
 1402 -25 1402 -25 1333 34.5 c 128,-1,27
 1264 94 1264 94 1238 189 c 1,28,29
 1205 90 1205 90 1121 32.5 c 128,-1,30
 1037 -25 1037 -25 922 -25 c 0,31,32
 848 -25 848 -25 791 8 c 128,-1,33
 734 41 734 41 697 100 c 1,34,35
 652 35 652 35 575 0 c 128,-1,36
 498 -35 498 -35 410 -35 c 0,37,38
 240 -35 240 -35 151 61.5 c 128,-1,39
 62 158 62 158 62 328 c 0,40,41
 62 553 62 553 230 671 c 128,-1,42
 398 789 398 789 629 789 c 0,43,44
 717 789 717 789 804 773.5 c 128,-1,45
 891 758 891 758 961 725 c 1,46,47
 1029 758 1029 758 1101.5 775.5 c 128,-1,48
 1174 793 1174 793 1250 793 c 0,49,50
 1324 793 1324 793 1397.5 775.5 c 128,-1,51
 1471 758 1471 758 1539 725 c 1,52,53
 1611 758 1611 758 1687.5 769.5 c 128,-1,54
 1764 781 1764 781 1861 781 c 2,55,-1
 2006 781 l 1,56,57
 1967 820 1967 820 1945.5 872 c 128,-1,58
 1924 924 1924 924 1924 980 c 0,59,60
 1926 1119 1926 1119 2036 1201 c 128,-1,61
 2146 1283 2146 1283 2285 1283 c 0,62,63
 2393 1281 2393 1281 2471 1227.5 c 128,-1,64
 2549 1174 2549 1174 2547 1068 c 0,65,66
 2547 971 2547 971 2479.5 918 c 128,-1,67
 2412 865 2412 865 2314 865 c 1,68,69
 2246 861 2246 861 2195.5 892.5 c 128,-1,70
 2145 924 2145 924 2143 988 c 0,71,72
 2143 1002 2143 1002 2144.5 1014.5 c 128,-1,73
 2146 1027 2146 1027 2150 1037 c 1,74,75
 2107 1023 2107 1023 2084 987 c 128,-1,76
 2061 951 2061 951 2061 908 c 0,77,78
 2064 867 2064 867 2081 833 c 128,-1,79
 2098 799 2098 799 2127 781 c 1,80,-1
 2389 781 l 1,81,-1
 2389 697 l 1,82,-1
 2229 697 l 1,12,-1
1398 633 m 1,83,84
 1357 662 1357 662 1309.5 676.5 c 128,-1,85
 1262 691 1262 691 1211 695 c 0,86,87
 1172 695 1172 695 1134 686.5 c 128,-1,88
 1096 678 1096 678 1062 658 c 1,89,90
 1137 604 1137 604 1183 539.5 c 128,-1,91
 1229 475 1229 475 1246 404 c 1,92,93
 1264 469 1264 469 1303 525.5 c 128,-1,94
 1342 582 1342 582 1398 633 c 1,83,84
680 445 m 1,95,96
 703 498 703 498 740 546 c 128,-1,97
 777 594 777 594 818 633 c 1,98,99
 766 664 766 664 708 677.5 c 128,-1,100
 650 691 650 691 586 691 c 0,101,102
 428 691 428 691 308.5 595.5 c 128,-1,103
 189 500 189 500 186 340 c 2,104,-1
 186 305 l 1,105,106
 199 406 199 406 276.5 467.5 c 128,-1,107
 354 529 354 529 459 529 c 0,108,109
 523 529 523 529 582 508.5 c 128,-1,110
 641 488 641 488 680 445 c 1,95,96
891 572 m 1,111,112
 826 510 826 510 794 435.5 c 128,-1,113
 762 361 762 361 762 275 c 0,114,115
 762 213 762 213 788 159 c 128,-1,116
 814 105 814 105 873 105 c 0,117,118
 939 107 939 107 969.5 168 c 128,-1,119
 1000 229 1000 229 1000 301 c 0,120,121
 1000 381 1000 381 972.5 450.5 c 128,-1,122
 945 520 945 520 891 572 c 1,111,112
1471 572 m 1,123,124
 1406 510 1406 510 1374 435.5 c 128,-1,125
 1342 361 1342 361 1342 275 c 0,126,127
 1342 211 1342 211 1366.5 158 c 128,-1,128
 1391 105 1391 105 1449 105 c 0,129,130
 1518 107 1518 107 1547 168 c 128,-1,131
 1576 229 1576 229 1576 301 c 0,132,133
 1576 381 1576 381 1550.5 450.5 c 128,-1,134
 1525 520 1525 520 1471 572 c 1,123,124
2242 1008 m 0,135,136
 2242 984 2242 984 2260.5 971.5 c 128,-1,137
 2279 959 2279 959 2305 959 c 0,138,139
 2336 957 2336 957 2359.5 972.5 c 128,-1,140
 2383 988 2383 988 2381 1020 c 0,141,142
 2381 1045 2381 1045 2360.5 1058.5 c 128,-1,143
 2340 1072 2340 1072 2314 1072 c 0,144,145
 2285 1072 2285 1072 2263.5 1055.5 c 128,-1,146
 2242 1039 2242 1039 2242 1008 c 0,135,136
EndSplineSet
Ligature2: "'abvs' Above Base Substitutions lookup 6 subtable" tm_nna tm_iikaar
EndChar

StartChar: tm_t_iikaar
Encoding: 65572 -1 149
Width: 1270
GlyphClass: 2
Flags: W
LayerCount: 2
Fore
SplineSet
514 414 m 1,0,-1
 363 414 l 2,1,2
 268 414 268 414 217 377 c 128,-1,3
 166 340 166 340 168 264 c 0,4,5
 168 189 168 189 217 146.5 c 128,-1,6
 266 104 266 104 344 104 c 0,7,8
 424 104 424 104 469 151.5 c 128,-1,9
 514 199 514 199 514 293 c 2,10,-1
 514 414 l 1,0,-1
791 1037 m 1,11,12
 750 1023 750 1023 727.5 987 c 128,-1,13
 705 951 705 951 705 908 c 0,14,15
 705 871 705 871 722.5 835 c 128,-1,16
 740 799 740 799 771 781 c 1,17,-1
 1047 781 l 1,18,-1
 1047 697 l 1,19,-1
 809 697 l 1,20,-1
 809 496 l 1,21,-1
 916 496 l 2,22,23
 1057 496 1057 496 1138 429.5 c 128,-1,24
 1219 363 1219 363 1217 238 c 0,25,26
 1215 14 1215 14 1065.5 -70 c 128,-1,27
 916 -154 916 -154 676 -154 c 2,28,-1
 434 -154 l 2,29,30
 348 -154 348 -154 317.5 -185.5 c 128,-1,31
 287 -217 287 -217 287 -293 c 2,32,-1
 287 -340 l 1,33,-1
 -8 -340 l 1,34,-1
 -8 -273 l 2,35,36
 -8 -166 -8 -166 57.5 -119 c 128,-1,37
 123 -72 123 -72 256 -72 c 2,38,-1
 666 -72 l 2,39,40
 809 -72 809 -72 876 -4 c 128,-1,41
 943 64 943 64 943 160 c 2,42,-1
 943 287 l 2,43,44
 943 354 943 354 919.5 384 c 128,-1,45
 896 414 896 414 840 414 c 2,46,-1
 809 414 l 1,47,-1
 809 305 l 2,48,49
 809 125 809 125 694.5 58.5 c 128,-1,50
 580 -8 580 -8 387 -8 c 0,51,52
 225 -8 225 -8 135 56.5 c 128,-1,53
 45 121 45 121 45 250 c 0,54,55
 45 344 45 344 102.5 408.5 c 128,-1,56
 160 473 160 473 252 488 c 1,57,-1
 252 781 l 1,58,-1
 648 781 l 1,59,60
 607 818 607 818 586.5 870 c 128,-1,61
 566 922 566 922 566 979 c 0,62,63
 566 1119 566 1119 676.5 1201 c 128,-1,64
 787 1283 787 1283 926 1283 c 0,65,66
 1033 1281 1033 1281 1112 1227.5 c 128,-1,67
 1191 1174 1191 1174 1191 1068 c 0,68,69
 1189 969 1189 969 1122 917 c 128,-1,70
 1055 865 1055 865 955 865 c 1,71,72
 889 861 889 861 838 892.5 c 128,-1,73
 787 924 787 924 785 988 c 0,74,75
 783 1002 783 1002 785 1014.5 c 128,-1,76
 787 1027 787 1027 791 1037 c 1,11,12
514 697 m 1,77,-1
 387 697 l 1,78,-1
 387 496 l 1,79,-1
 514 496 l 1,80,-1
 514 697 l 1,77,-1
887 1008 m 0,81,82
 887 984 887 984 905.5 971.5 c 128,-1,83
 924 959 924 959 947 959 c 0,84,85
 979 957 979 957 1001 972.5 c 128,-1,86
 1023 988 1023 988 1023 1020 c 0,87,88
 1023 1045 1023 1045 1003.5 1058.5 c 128,-1,89
 984 1072 984 1072 957 1072 c 0,90,91
 928 1072 928 1072 907.5 1055.5 c 128,-1,92
 887 1039 887 1039 887 1008 c 0,81,82
EndSplineSet
Ligature2: "'abvs' Above Base Substitutions lookup 6 subtable" tm_ta tm_iikaar
EndChar

StartChar: tm_n_iikaar
Encoding: 65573 -1 150
Width: 1160
GlyphClass: 2
Flags: W
LayerCount: 2
Fore
SplineSet
676 697 m 1,0,-1
 676 475 l 1,1,2
 711 490 711 490 750 498 c 128,-1,3
 789 506 789 506 830 506 c 0,4,5
 961 508 961 508 1035 425 c 128,-1,6
 1109 342 1109 342 1105 209 c 0,7,8
 1102 -8 1102 -8 968 -81 c 128,-1,9
 834 -154 834 -154 598 -154 c 2,10,-1
 420 -154 l 2,11,12
 336 -154 336 -154 314.5 -179.5 c 128,-1,13
 293 -205 293 -205 293 -279 c 2,14,-1
 293 -340 l 1,15,-1
 -4 -340 l 1,16,-1
 -4 -273 l 2,17,18
 -4 -164 -4 -164 50.5 -118 c 128,-1,19
 105 -72 105 -72 236 -72 c 2,20,-1
 555 -72 l 2,21,22
 701 -72 701 -72 765.5 -22.5 c 128,-1,23
 830 27 830 27 830 127 c 2,24,-1
 830 307 l 2,25,26
 830 357 830 357 812.5 382.5 c 128,-1,27
 795 408 795 408 752 408 c 0,28,29
 713 408 713 408 694.5 381 c 128,-1,30
 676 354 676 354 676 311 c 2,31,-1
 676 2 l 1,32,-1
 379 2 l 1,33,-1
 379 697 l 1,34,-1
 250 697 l 1,35,-1
 250 2 l 1,36,-1
 117 2 l 1,37,-1
 117 781 l 1,38,-1
 475 781 l 1,39,40
 436 820 436 820 414.5 872 c 128,-1,41
 393 924 393 924 393 980 c 0,42,43
 395 1119 395 1119 505 1201 c 128,-1,44
 615 1283 615 1283 754 1283 c 0,45,46
 861 1281 861 1281 939.5 1227.5 c 128,-1,47
 1018 1174 1018 1174 1016 1068 c 0,48,49
 1016 971 1016 971 948.5 918 c 128,-1,50
 881 865 881 865 783 865 c 1,51,52
 715 861 715 861 664 892.5 c 128,-1,53
 613 924 613 924 611 988 c 0,54,55
 611 1002 611 1002 613 1014.5 c 128,-1,56
 615 1027 615 1027 619 1037 c 1,57,58
 576 1023 576 1023 552.5 987 c 128,-1,59
 529 951 529 951 529 908 c 1,60,61
 533 867 533 867 549.5 833 c 128,-1,62
 566 799 566 799 596 781 c 1,63,-1
 939 781 l 1,64,-1
 939 697 l 1,65,-1
 676 697 l 1,0,-1
711 1008 m 0,66,67
 711 984 711 984 729.5 971.5 c 128,-1,68
 748 959 748 959 773 959 c 0,69,70
 805 957 805 957 828.5 972.5 c 128,-1,71
 852 988 852 988 850 1020 c 0,72,73
 850 1045 850 1045 829.5 1058.5 c 128,-1,74
 809 1072 809 1072 783 1072 c 0,75,76
 754 1072 754 1072 732.5 1055.5 c 128,-1,77
 711 1039 711 1039 711 1008 c 0,66,67
EndSplineSet
Ligature2: "'abvs' Above Base Substitutions lookup 6 subtable" tm_na tm_iikaar
EndChar

StartChar: tm_nnn_iikaar
Encoding: 65574 -1 151
Width: 1826
GlyphClass: 2
Flags: W
LayerCount: 2
Fore
SplineSet
289 230 m 0,0,1
 291 148 291 148 316.5 107 c 128,-1,2
 342 66 342 66 379 66 c 0,3,4
 434 66 434 66 449.5 124 c 128,-1,5
 465 182 465 182 465 250 c 0,6,7
 465 324 465 324 443.5 360 c 128,-1,8
 422 396 422 396 387 396 c 0,9,10
 336 395 336 395 311.5 340 c 128,-1,11
 287 285 287 285 289 230 c 0,0,1
684 445 m 1,12,13
 707 498 707 498 742 547 c 128,-1,14
 777 596 777 596 820 633 c 1,15,16
 768 664 768 664 709 677.5 c 128,-1,17
 650 691 650 691 586 691 c 0,18,19
 428 691 428 691 308.5 595.5 c 128,-1,20
 189 500 189 500 186 340 c 2,21,-1
 186 305 l 1,22,23
 199 406 199 406 276.5 467.5 c 128,-1,24
 354 529 354 529 459 529 c 0,25,26
 523 529 523 529 583 508.5 c 128,-1,27
 643 488 643 488 684 445 c 1,12,13
891 572 m 1,28,29
 828 510 828 510 796 435.5 c 128,-1,30
 764 361 764 361 764 275 c 0,31,32
 764 211 764 211 789 158 c 128,-1,33
 814 105 814 105 873 105 c 0,34,35
 939 107 939 107 969.5 168 c 128,-1,36
 1000 229 1000 229 1000 301 c 0,37,38
 1000 381 1000 381 972.5 450.5 c 128,-1,39
 945 520 945 520 891 572 c 1,28,29
1650 697 m 1,40,-1
 1650 2 l 1,41,-1
 1352 2 l 1,42,-1
 1352 697 l 1,43,-1
 1283 697 l 2,44,45
 1221 697 1221 697 1160.5 686.5 c 128,-1,46
 1100 676 1100 676 1062 658 c 1,47,48
 1162 584 1162 584 1210 495 c 128,-1,49
 1258 406 1258 406 1258 311 c 0,50,51
 1258 164 1258 164 1164 68.5 c 128,-1,52
 1070 -27 1070 -27 924 -25 c 0,53,54
 850 -25 850 -25 793 8 c 128,-1,55
 736 41 736 41 697 100 c 1,56,57
 652 35 652 35 575 0 c 128,-1,58
 498 -35 498 -35 410 -35 c 0,59,60
 240 -35 240 -35 151 61.5 c 128,-1,61
 62 158 62 158 62 328 c 0,62,63
 62 553 62 553 230 671 c 128,-1,64
 398 789 398 789 629 789 c 0,65,66
 717 789 717 789 804 773.5 c 128,-1,67
 891 758 891 758 961 725 c 1,68,69
 1041 762 1041 762 1110.5 771.5 c 128,-1,70
 1180 781 1180 781 1283 781 c 2,71,-1
 1430 781 l 1,72,73
 1391 820 1391 820 1369.5 872 c 128,-1,74
 1348 924 1348 924 1348 980 c 0,75,76
 1350 1119 1350 1119 1460 1201 c 128,-1,77
 1570 1283 1570 1283 1709 1283 c 0,78,79
 1816 1281 1816 1281 1894.5 1227.5 c 128,-1,80
 1973 1174 1973 1174 1971 1068 c 0,81,82
 1971 971 1971 971 1903.5 918 c 128,-1,83
 1836 865 1836 865 1738 865 c 1,84,85
 1670 861 1670 861 1619 892.5 c 128,-1,86
 1568 924 1568 924 1566 988 c 0,87,88
 1566 1002 1566 1002 1568 1014.5 c 128,-1,89
 1570 1027 1570 1027 1574 1037 c 1,90,91
 1531 1023 1531 1023 1507.5 987 c 128,-1,92
 1484 951 1484 951 1484 908 c 1,93,94
 1488 867 1488 867 1504.5 833 c 128,-1,95
 1521 799 1521 799 1551 781 c 1,96,-1
 1812 781 l 1,97,-1
 1812 697 l 1,98,-1
 1650 697 l 1,40,-1
1666 1008 m 0,99,100
 1666 984 1666 984 1684.5 971.5 c 128,-1,101
 1703 959 1703 959 1729 959 c 0,102,103
 1760 957 1760 957 1783.5 972.5 c 128,-1,104
 1807 988 1807 988 1805 1020 c 0,105,106
 1805 1045 1805 1045 1784.5 1058.5 c 128,-1,107
 1764 1072 1764 1072 1738 1072 c 0,108,109
 1709 1072 1709 1072 1687.5 1055.5 c 128,-1,110
 1666 1039 1666 1039 1666 1008 c 0,99,100
EndSplineSet
Ligature2: "'abvs' Above Base Substitutions lookup 6 subtable" tm_nnna tm_iikaar
EndChar

StartChar: tm_p_iikaar
Encoding: 65575 -1 152
Width: 1359
GlyphClass: 2
Flags: W
LayerCount: 2
Fore
SplineSet
1242 779 m 1,0,-1
 1242 0 l 1,1,-1
 117 0 l 1,2,-1
 117 779 l 1,3,-1
 412 779 l 1,4,-1
 412 84 l 1,5,-1
 947 84 l 1,6,-1
 947 605 l 1,7,8
 818 609 818 609 742 700 c 128,-1,9
 666 791 666 791 666 922 c 0,10,11
 668 1078 668 1078 774.5 1179.5 c 128,-1,12
 881 1281 881 1281 1051 1281 c 1,13,14
 1160 1277 1160 1277 1237 1223.5 c 128,-1,15
 1314 1170 1314 1170 1314 1066 c 0,16,17
 1312 967 1312 967 1244 914 c 128,-1,18
 1176 861 1176 861 1078 861 c 0,19,20
 1010 859 1010 859 961 889.5 c 128,-1,21
 912 920 912 920 910 984 c 0,22,23
 908 996 908 996 909 1008.5 c 128,-1,24
 910 1021 910 1021 916 1033 c 1,25,26
 867 1025 867 1025 839.5 980.5 c 128,-1,27
 812 936 812 936 812 877 c 0,28,29
 812 805 812 805 847.5 753 c 128,-1,30
 883 701 883 701 947 701 c 1,31,-1
 947 779 l 1,32,-1
 1242 779 l 1,0,-1
1010 1006 m 0,33,34
 1010 980 1010 980 1027.5 968.5 c 128,-1,35
 1045 957 1045 957 1070 957 c 0,36,37
 1100 953 1100 953 1124 969.5 c 128,-1,38
 1148 986 1148 986 1148 1018 c 0,39,40
 1148 1041 1148 1041 1127.5 1054.5 c 128,-1,41
 1107 1068 1107 1068 1082 1068 c 0,42,43
 1053 1068 1053 1068 1031.5 1052.5 c 128,-1,44
 1010 1037 1010 1037 1010 1006 c 0,33,34
EndSplineSet
Ligature2: "'abvs' Above Base Substitutions lookup 6 subtable" tm_pa tm_iikaar
EndChar

